<svg xmlns="http://www.w3.org/2000/svg" version="1.1" xmlns:xlink="http://www.w3.org/1999/xlink" xmlns:svgjs="http://svgjs.dev/svgjs" width="1500" height="1500" viewBox="0 0 1500 1500"><rect width="1500" height="1500" fill="#000000"></rect><g transform="matrix(0.6666666666666666,0,0,0.6666666666666666,249.39393939393938,438.58569500674764)"><svg viewBox="0 0 396 247" data-background-color="#ffffff" preserveAspectRatio="xMidYMid meet" height="935" width="1500" xmlns="http://www.w3.org/2000/svg" xmlns:xlink="http://www.w3.org/1999/xlink"><g id="tight-bounds" transform="matrix(1,0,0,1,0.2400000000000091,-0.09999999999999432)"><svg viewBox="0 0 395.52 247.2" height="247.2" width="395.52"><g><svg></svg></g><g><svg viewBox="0 0 395.52 247.2" height="247.2" width="395.52"><g transform="matrix(1,0,0,1,75.54432,49.252635602881966)"><svg viewBox="0 0 244.43135999999998 148.69472879423606" height="148.69472879423606" width="244.43135999999998"><g><svg viewBox="0 0 245.65351679999995 149.4382024382072" height="148.69472879423606" width="244.43135999999998"><g><rect width="245.65351679999995" height="3.359954862906593" x="0" y="68.2035967660934" fill="#ffffff" opacity="1" stroke-width="0" stroke="transparent" fill-opacity="1" class="rect-qz-0" data-fill-palette-color="primary" rx="1%" id="qz-0" data-palette-color="#085392"></rect></g><g transform="matrix(1,0,0,1,0.6110783999999825,80.3592449873942)"><svg viewBox="0 0 244.43135999999998 69.078957450813" height="69.078957450813" width="244.43135999999998"><g id="textblocktransform"><svg viewBox="0 0 244.43135999999998 69.078957450813" height="69.078957450813" width="244.43135999999998" id="textblock"><g><svg viewBox="0 0 244.43135999999998 37.257888808664255" height="37.257888808664255" width="244.43135999999998"><g transform="matrix(1,0,0,1,0,0)"><svg width="244.43135999999998" viewBox="0.05 -37.5 249.28 38" height="37.257888808664255" data-palette-color="#085392"><path d="M11.55 0L0.05 0 0.05-1.7 3.35-1.7 3.35-35.3 0.05-35.3 0.05-37 10.05-37 10.05-35.3 6.75-35.3 6.75-18 18-35.3 15-35.3 15-37 24.25-37 24.25-35.3 20.05-35.3 11.95-22.85 22-1.7 25.55-1.7 25.55 0 14.35 0 14.35-1.7 18.3-1.7 9.8-19.55 6.75-14.85 6.75-1.7 11.55-1.7 11.55 0ZM34.2 0.5L34.2 0.5Q31.45 0.5 29.87-1.18 28.3-2.85 28.3-5.25L28.3-5.25Q28.3-7.5 29.42-8.97 30.55-10.45 32.25-11.45 33.95-12.45 35.6-13.2L35.6-13.2 40.7-15.55 40.7-20.4Q40.7-22.85 39.15-24.25 37.6-25.65 35.25-25.65L35.25-25.65Q33.1-25.65 31.7-24.6 30.3-23.55 29.75-22.55L29.75-22.55Q30.9-21.35 31.47-20.65 32.05-19.95 32.05-19L32.05-19Q32.05-18.15 31.47-17.4 30.9-16.65 29.75-16.65L29.75-16.65Q28.65-16.65 28.02-17.43 27.4-18.2 27.4-19.35L27.4-19.35Q27.4-20.5 27.97-21.88 28.55-23.25 29.72-24.55 30.9-25.85 32.7-26.68 34.5-27.5 36.95-27.5L36.95-27.5Q39.6-27.5 41.17-26.45 42.75-25.4 43.42-23.78 44.1-22.15 44.1-20.4L44.1-20.4 44.1-4.2Q44.1-2.1 45.55-2.1L45.55-2.1Q46.5-2.1 47.05-2.88 47.6-3.65 47.8-4.4L47.8-4.4 48.7-4.1Q48.55-3.1 48-2.02 47.45-0.95 46.52-0.23 45.6 0.5 44.25 0.5L44.25 0.5Q42.75 0.5 41.72-0.5 40.7-1.5 40.7-3.6L40.7-3.6Q40.3-2.7 39.4-1.75 38.5-0.8 37.2-0.15 35.9 0.5 34.2 0.5ZM31.35-6.4L31.35-6.4Q31.35-4.45 32.55-3.08 33.75-1.7 35.75-1.7L35.75-1.7Q37.05-1.7 38.07-2.27 39.1-2.85 39.77-3.65 40.45-4.45 40.7-5.2L40.7-5.2 40.7-14.35 35.95-12Q34.8-11.45 33.75-10.78 32.7-10.1 32.02-9.1 31.35-8.1 31.35-6.4ZM59.65-1.7L67.8-1.7 67.8 0 50.25 0 50.25-1.7 56.25-1.7 56.25-24.4 51.15-24.4 51.15-25.6 56.25-26.25 58.45-27.5 59.65-27.5 59.65-18.7 59.8-18.7 60.05-19.45Q61.2-22.9 63.4-25.2 65.59-27.5 68.65-27.5L68.65-27.5Q70.55-27.5 71.9-26.65 73.25-25.8 73.25-24.2L73.25-24.2Q73.25-23.25 72.75-22.65 72.25-22.05 71.2-22.05L71.2-22.05Q69.95-22.05 69.34-22.85 68.75-23.65 68.34-24.35L68.34-24.35 67.59-25.8Q65.8-25.8 64.45-24.53 63.1-23.25 62.1-21.18 61.1-19.1 60.35-16.7L60.35-16.7 59.65-14.45 59.65-1.7ZM83.99 0L76.09 0 76.09-1.7 78.29-1.7 78.29-24.4 75.59-24.4 75.59-25.4 78.59-26.15 80.59-27.5 81.54-27.5 81.54-23.95 81.69-23.95Q82.09-25.1 83.27-26.3 84.44-27.5 86.14-27.5L86.14-27.5Q87.49-27.5 88.37-26.6 89.24-25.7 89.34-23.95L89.34-23.95 89.49-23.95Q89.94-25.1 91.09-26.3 92.24-27.5 93.94-27.5L93.94-27.5Q95.49-27.5 96.34-26.48 97.19-25.45 97.19-23.5L97.19-23.5 97.19-1.7 99.64-1.7 99.64 0 93.94 0 93.94-23.35Q93.94-25.25 92.29-25.25L92.29-25.25Q91.39-25.25 90.77-24.63 90.14-24 89.79-23.08 89.44-22.15 89.34-21.3L89.34-21.3 89.34-1.7 91.79-1.7 91.79 0 86.14 0 86.14-23.35Q86.14-25.25 84.34-25.25L84.34-25.25Q83.49-25.25 82.89-24.63 82.29-24 81.97-23.08 81.64-22.15 81.54-21.3L81.54-21.3 81.54-1.7 83.99-1.7 83.99 0ZM109.19 0.5L109.19 0.5Q106.44 0.5 104.87-1.18 103.29-2.85 103.29-5.25L103.29-5.25Q103.29-7.5 104.42-8.97 105.54-10.45 107.24-11.45 108.94-12.45 110.59-13.2L110.59-13.2 115.69-15.55 115.69-20.4Q115.69-22.85 114.14-24.25 112.59-25.65 110.24-25.65L110.24-25.65Q108.09-25.65 106.69-24.6 105.29-23.55 104.74-22.55L104.74-22.55Q105.89-21.35 106.47-20.65 107.04-19.95 107.04-19L107.04-19Q107.04-18.15 106.47-17.4 105.89-16.65 104.74-16.65L104.74-16.65Q103.64-16.65 103.02-17.43 102.39-18.2 102.39-19.35L102.39-19.35Q102.39-20.5 102.97-21.88 103.54-23.25 104.72-24.55 105.89-25.85 107.69-26.68 109.49-27.5 111.94-27.5L111.94-27.5Q114.59-27.5 116.17-26.45 117.74-25.4 118.42-23.78 119.09-22.15 119.09-20.4L119.09-20.4 119.09-4.2Q119.09-2.1 120.54-2.1L120.54-2.1Q121.49-2.1 122.04-2.88 122.59-3.65 122.79-4.4L122.79-4.4 123.69-4.1Q123.54-3.1 122.99-2.02 122.44-0.95 121.52-0.23 120.59 0.5 119.24 0.5L119.24 0.5Q117.74 0.5 116.72-0.5 115.69-1.5 115.69-3.6L115.69-3.6Q115.29-2.7 114.39-1.75 113.49-0.8 112.19-0.15 110.89 0.5 109.19 0.5ZM106.34-6.4L106.34-6.4Q106.34-4.45 107.54-3.08 108.74-1.7 110.74-1.7L110.74-1.7Q112.04-1.7 113.07-2.27 114.09-2.85 114.77-3.65 115.44-4.45 115.69-5.2L115.69-5.2 115.69-14.35 110.94-12Q109.79-11.45 108.74-10.78 107.69-10.1 107.02-9.1 106.34-8.1 106.34-6.4ZM138.44 0.5L138.44 0.5Q135.49 0.5 133.21-1.23 130.94-2.95 129.66-6.03 128.39-9.1 128.39-13.1L128.39-13.1Q128.39-17.25 129.74-20.5 131.09-23.75 133.51-25.63 135.94-27.5 139.14-27.5L139.14-27.5Q141.34-27.5 143.14-26.63 144.94-25.75 145.99-24.28 147.04-22.8 147.04-20.95L147.04-20.95Q147.04-19.2 146.16-18.4 145.29-17.6 144.29-17.6L144.29-17.6Q143.49-17.6 142.81-18.13 142.14-18.65 142.14-19.6L142.14-19.6Q142.14-20.6 142.89-21.48 143.64-22.35 144.54-23.9L144.54-23.9Q144.04-24.55 142.71-25.23 141.39-25.9 139.49-25.9L139.49-25.9Q135.99-25.9 134.04-23.25 132.09-20.6 132.09-16L132.09-16 132.09-11Q132.09-7.85 133.11-5.78 134.14-3.7 135.79-2.65 137.44-1.6 139.34-1.6L139.34-1.6Q141.14-1.6 142.44-2.4 143.74-3.2 144.54-4.38 145.34-5.55 145.64-6.6L145.64-6.6 146.69-6.25Q146.39-4.8 145.36-3.23 144.34-1.65 142.61-0.58 140.89 0.5 138.44 0.5ZM163.24 0L150.69 0 150.69-1.7 154.89-1.7 154.89-34.4 149.79-34.4 149.79-35.6 154.89-36.25 157.09-37.5 158.29-37.5 158.29-23.45 158.44-23.45Q158.84-24.35 159.69-25.28 160.54-26.2 161.84-26.85 163.14-27.5 164.84-27.5L164.84-27.5Q167.29-27.5 168.71-25.98 170.14-24.45 170.14-21.5L170.14-21.5 170.14-1.7 174.34-1.7 174.34 0 166.74 0 166.74-21.2Q166.74-25.2 163.24-25.2L163.24-25.2Q161.84-25.2 160.81-24.55 159.79-23.9 159.16-22.93 158.54-21.95 158.29-21.05L158.29-21.05 158.29-1.7 161.24-1.7 161.24-1.65 163.24-1.65 163.24 0ZM184.18 0.5L184.18 0.5Q181.43 0.5 179.86-1.18 178.28-2.85 178.28-5.25L178.28-5.25Q178.28-7.5 179.41-8.97 180.53-10.45 182.23-11.45 183.93-12.45 185.58-13.2L185.58-13.2 190.68-15.55 190.68-20.4Q190.68-22.85 189.13-24.25 187.58-25.65 185.23-25.65L185.23-25.65Q183.08-25.65 181.68-24.6 180.28-23.55 179.73-22.55L179.73-22.55Q180.88-21.35 181.46-20.65 182.03-19.95 182.03-19L182.03-19Q182.03-18.15 181.46-17.4 180.88-16.65 179.73-16.65L179.73-16.65Q178.63-16.65 178.01-17.43 177.38-18.2 177.38-19.35L177.38-19.35Q177.38-20.5 177.96-21.88 178.53-23.25 179.71-24.55 180.88-25.85 182.68-26.68 184.48-27.5 186.93-27.5L186.93-27.5Q189.58-27.5 191.16-26.45 192.73-25.4 193.41-23.78 194.08-22.15 194.08-20.4L194.08-20.4 194.08-4.2Q194.08-2.1 195.53-2.1L195.53-2.1Q196.48-2.1 197.03-2.88 197.58-3.65 197.78-4.4L197.78-4.4 198.68-4.1Q198.53-3.1 197.98-2.02 197.43-0.95 196.51-0.23 195.58 0.5 194.23 0.5L194.23 0.5Q192.73 0.5 191.71-0.5 190.68-1.5 190.68-3.6L190.68-3.6Q190.28-2.7 189.38-1.75 188.48-0.8 187.18-0.15 185.88 0.5 184.18 0.5ZM181.33-6.4L181.33-6.4Q181.33-4.45 182.53-3.08 183.73-1.7 185.73-1.7L185.73-1.7Q187.03-1.7 188.06-2.27 189.08-2.85 189.76-3.65 190.43-4.45 190.68-5.2L190.68-5.2 190.68-14.35 185.93-12Q184.78-11.45 183.73-10.78 182.68-10.1 182.01-9.1 181.33-8.1 181.33-6.4ZM223.63 0L201.33 0 201.33-1.7 210.78-1.7 210.78-24.4 203.68-24.4 203.68-25.6 210.78-26.25 212.98-27.5 214.18-27.5 214.18-1.7 223.63-1.7 223.63 0ZM212.48-31.5L212.48-31.5Q211.33-31.5 210.53-32.3 209.73-33.1 209.73-34.25L209.73-34.25Q209.73-35.4 210.53-36.2 211.33-37 212.48-37L212.48-37Q213.63-37 214.43-36.2 215.23-35.4 215.23-34.25L215.23-34.25Q215.23-33.1 214.43-32.3 213.63-31.5 212.48-31.5ZM238.23 0L225.68 0 225.68-1.4 229.88-1.8 229.88-24.4 224.78-24.4 224.78-25.6 229.88-26.25 232.08-27.5 233.28-27.5 233.28-23.45 233.43-23.45Q233.83-24.35 234.68-25.28 235.53-26.2 236.83-26.85 238.13-27.5 239.83-27.5L239.83-27.5Q242.28-27.5 243.7-25.98 245.13-24.45 245.13-21.5L245.13-21.5 245.13-1.7 249.33-1.7 249.33 0 241.73 0 241.73-21.2Q241.73-25.2 238.23-25.2L238.23-25.2Q236.83-25.2 235.8-24.55 234.78-23.9 234.15-22.93 233.53-21.95 233.28-21.05L233.28-21.05 233.28-1.8 238.23-1.4 238.23 0Z" opacity="1" transform="matrix(1,0,0,1,0,0)" fill="#ffffff" class="wordmark-text-0" data-fill-palette-color="primary" id="text-0"></path></svg></g></svg></g><g transform="matrix(1,0,0,1,0,46.05358216705848)"><svg viewBox="0 0 244.43135999999998 23.02537528375451" height="23.02537528375451" width="244.43135999999998"><g transform="matrix(1,0,0,1,0,0)"><svg width="244.43135999999998" viewBox="2.2 -39.65 536.0899999999999 50.5" height="23.02537528375451" data-palette-color="#a04040"><path d="M2.85-26.45L9-26.45 9 0 2.85 0 2.85-26.45ZM5.9-39.65Q7.55-39.65 8.58-38.6 9.6-37.55 9.6-35.9L9.6-35.9Q9.6-34.3 8.58-33.25 7.55-32.2 5.9-32.2L5.9-32.2Q4.25-32.2 3.23-33.25 2.2-34.3 2.2-35.9L2.2-35.9Q2.2-37.55 3.23-38.6 4.25-39.65 5.9-39.65L5.9-39.65ZM31.37-27.15Q34.22-27.15 35.87-25.1 37.52-23.05 37.52-19.6L37.52-19.6 37.52 0 31.37 0 31.37-18.9Q31.37-20.8 30.84-21.63 30.32-22.45 29.32-22.45L29.32-22.45Q27.22-22.45 25.17-18.5L25.17-18.5 25.17 0 19.02 0 19.02-26.45 24.37-26.45 24.82-23Q26.17-25.1 27.69-26.13 29.22-27.15 31.37-27.15L31.37-27.15ZM57.08-33.05Q55.68-33.05 55.01-32.3 54.33-31.55 54.33-30L54.33-30 54.33-26.45 59.38-26.45 58.68-22 54.33-22 54.33 0 48.18 0 48.18-22 44.88-22 44.88-26.45 48.18-26.45 48.18-29.8Q48.18-33.4 50.28-35.55 52.38-37.7 56.28-37.7L56.28-37.7Q59.33-37.7 62.18-36.2L62.18-36.2 60.48-32.2Q58.73-33.05 57.08-33.05L57.08-33.05ZM75.9-27.15Q80.9-27.15 83.67-23.65 86.45-20.15 86.45-13.25L86.45-13.25Q86.45-6.65 83.65-2.95 80.85 0.75 75.9 0.75L75.9 0.75Q70.95 0.75 68.15-2.88 65.35-6.5 65.35-13.25L65.35-13.25Q65.35-19.95 68.15-23.55 70.95-27.15 75.9-27.15L75.9-27.15ZM75.9-22.5Q73.75-22.5 72.75-20.38 71.75-18.25 71.75-13.25L71.75-13.25Q71.75-8.2 72.75-6.08 73.75-3.95 75.9-3.95L75.9-3.95Q78.05-3.95 79.05-6.08 80.05-8.2 80.05-13.25L80.05-13.25Q80.05-18.3 79.05-20.4 78.05-22.5 75.9-22.5L75.9-22.5ZM106.97-27.1Q108.12-27.1 109.02-26.75L109.02-26.75 108.02-20.85Q107.02-21.1 106.17-21.1L106.17-21.1Q104.27-21.1 103.17-19.45 102.07-17.8 101.47-14.55L101.47-14.55 101.47 0 95.32 0 95.32-26.45 100.67-26.45 101.12-21.85Q102.97-27.1 106.97-27.1L106.97-27.1ZM139.83-27.15Q142.48-27.15 144.08-25.1 145.68-23.05 145.68-19.6L145.68-19.6 145.68 0 139.63 0 139.63-18.95Q139.63-20.85 139.13-21.68 138.63-22.5 137.68-22.5L137.68-22.5Q135.73-22.5 133.93-18.8L133.93-18.8 133.93 0 127.93 0 127.93-18.95Q127.93-22.5 126.03-22.5L126.03-22.5Q123.98-22.5 122.23-18.8L122.23-18.8 122.23 0 116.18 0 116.18-26.45 121.53-26.45 121.93-23.05Q124.53-27.15 128.18-27.15L128.18-27.15Q130.03-27.15 131.38-26 132.73-24.85 133.43-22.75L133.43-22.75Q136.08-27.15 139.83-27.15L139.83-27.15ZM172.4-6.4Q172.4-5.1 172.75-4.48 173.1-3.85 173.9-3.45L173.9-3.45 172.65 0.65Q170.6 0.4 169.37-0.45 168.15-1.3 167.55-3.05L167.55-3.05Q165.25 0.75 161.1 0.75L161.1 0.75Q157.8 0.75 155.85-1.48 153.9-3.7 153.9-7.4L153.9-7.4Q153.9-11.7 156.57-13.95 159.25-16.2 164.35-16.2L164.35-16.2 166.4-16.2 166.4-18.05Q166.4-20.55 165.52-21.58 164.65-22.6 162.7-22.6L162.7-22.6Q160.35-22.6 156.85-21.3L156.85-21.3 155.45-25.3Q157.45-26.2 159.6-26.68 161.75-27.15 163.7-27.15L163.7-27.15Q172.4-27.15 172.4-18.35L172.4-18.35 172.4-6.4ZM162.75-3.7Q165.15-3.7 166.4-7L166.4-7 166.4-12.55 164.95-12.55Q162.4-12.55 161.22-11.4 160.05-10.25 160.05-7.85L160.05-7.85Q160.05-5.8 160.75-4.75 161.45-3.7 162.75-3.7L162.75-3.7ZM193.66-5L195.81-1.2Q193.36 0.75 190.06 0.75L190.06 0.75Q186.61 0.75 184.81-1.23 183.01-3.2 183.01-6.6L183.01-6.6 183.01-22 179.91-22 179.91-26.45 183.01-26.45 183.01-32.3 189.16-33.05 189.16-26.45 194.16-26.45 193.56-22 189.16-22 189.16-6.6Q189.16-4.2 191.21-4.2L191.21-4.2Q191.86-4.2 192.36-4.38 192.86-4.55 193.66-5L193.66-5ZM202.68-26.45L208.83-26.45 208.83 0 202.68 0 202.68-26.45ZM205.73-39.65Q207.38-39.65 208.41-38.6 209.43-37.55 209.43-35.9L209.43-35.9Q209.43-34.3 208.41-33.25 207.38-32.2 205.73-32.2L205.73-32.2Q204.08-32.2 203.06-33.25 202.03-34.3 202.03-35.9L202.03-35.9Q202.03-37.55 203.06-38.6 204.08-39.65 205.73-39.65L205.73-39.65ZM228.25-27.15Q233.25-27.15 236.02-23.65 238.8-20.15 238.8-13.25L238.8-13.25Q238.8-6.65 236-2.95 233.2 0.75 228.25 0.75L228.25 0.75Q223.3 0.75 220.5-2.88 217.7-6.5 217.7-13.25L217.7-13.25Q217.7-19.95 220.5-23.55 223.3-27.15 228.25-27.15L228.25-27.15ZM228.25-22.5Q226.1-22.5 225.1-20.38 224.1-18.25 224.1-13.25L224.1-13.25Q224.1-8.2 225.1-6.08 226.1-3.95 228.25-3.95L228.25-3.95Q230.4-3.95 231.4-6.08 232.4-8.2 232.4-13.25L232.4-13.25Q232.4-18.3 231.4-20.4 230.4-22.5 228.25-22.5L228.25-22.5ZM260.01-27.15Q262.86-27.15 264.51-25.1 266.16-23.05 266.16-19.6L266.16-19.6 266.16 0 260.01 0 260.01-18.9Q260.01-20.8 259.49-21.63 258.96-22.45 257.96-22.45L257.96-22.45Q255.86-22.45 253.81-18.5L253.81-18.5 253.81 0 247.66 0 247.66-26.45 253.01-26.45 253.46-23Q254.81-25.1 256.34-26.13 257.86-27.15 260.01-27.15L260.01-27.15ZM301.35-5L303.5-1.2Q301.05 0.75 297.75 0.75L297.75 0.75Q294.3 0.75 292.5-1.23 290.7-3.2 290.7-6.6L290.7-6.6 290.7-22 287.6-22 287.6-26.45 290.7-26.45 290.7-32.3 296.85-33.05 296.85-26.45 301.85-26.45 301.25-22 296.85-22 296.85-6.6Q296.85-4.2 298.9-4.2L298.9-4.2Q299.55-4.2 300.05-4.38 300.55-4.55 301.35-5L301.35-5ZM329.21-13.85Q329.21-13.4 329.06-11.3L329.06-11.3 315.41-11.3Q315.61-7.2 316.84-5.58 318.06-3.95 320.31-3.95L320.31-3.95Q321.86-3.95 323.11-4.48 324.36-5 325.81-6.15L325.81-6.15 328.36-2.65Q324.86 0.75 319.96 0.75L319.96 0.75Q314.76 0.75 311.99-2.85 309.21-6.45 309.21-13L309.21-13Q309.21-19.55 311.86-23.35 314.51-27.15 319.36-27.15L319.36-27.15Q324.01-27.15 326.61-23.78 329.21-20.4 329.21-13.85L329.21-13.85ZM323.21-15.3L323.21-15.65Q323.21-19.4 322.31-21.13 321.41-22.85 319.41-22.85L319.41-22.85Q317.56-22.85 316.59-21.18 315.61-19.5 315.41-15.3L315.41-15.3 323.21-15.3ZM347.33-27.15Q349.48-27.15 351.23-26.43 352.98-25.7 354.58-24.15L354.58-24.15 351.93-20.65Q350.83-21.55 349.85-21.98 348.88-22.4 347.73-22.4L347.73-22.4Q345.48-22.4 344.33-20.28 343.18-18.15 343.18-13.1L343.18-13.1Q343.18-8.2 344.35-6.2 345.53-4.2 347.73-4.2L347.73-4.2Q348.83-4.2 349.73-4.6 350.63-5 351.83-5.85L351.83-5.85 354.58-2.3Q351.38 0.75 347.43 0.75L347.43 0.75Q342.33 0.75 339.5-2.73 336.68-6.2 336.68-13L336.68-13Q336.68-17.4 337.98-20.6 339.28-23.8 341.7-25.48 344.13-27.15 347.33-27.15L347.33-27.15ZM374.3-27.15Q377.15-27.15 378.8-25.1 380.45-23.05 380.45-19.6L380.45-19.6 380.45 0 374.3 0 374.3-18.9Q374.3-20.8 373.77-21.63 373.25-22.45 372.25-22.45L372.25-22.45Q370.15-22.45 368.1-18.5L368.1-18.5 368.1 0 361.95 0 361.95-37 368.1-37.65 368.1-23.3Q369.35-25.25 370.82-26.2 372.3-27.15 374.3-27.15L374.3-27.15ZM402.66-27.15Q405.51-27.15 407.16-25.1 408.81-23.05 408.81-19.6L408.81-19.6 408.81 0 402.66 0 402.66-18.9Q402.66-20.8 402.14-21.63 401.61-22.45 400.61-22.45L400.61-22.45Q398.51-22.45 396.46-18.5L396.46-18.5 396.46 0 390.31 0 390.31-26.45 395.66-26.45 396.11-23Q397.46-25.1 398.99-26.13 400.51-27.15 402.66-27.15L402.66-27.15ZM428.08-27.15Q433.08-27.15 435.85-23.65 438.63-20.15 438.63-13.25L438.63-13.25Q438.63-6.65 435.83-2.95 433.03 0.75 428.08 0.75L428.08 0.75Q423.13 0.75 420.33-2.88 417.53-6.5 417.53-13.25L417.53-13.25Q417.53-19.95 420.33-23.55 423.13-27.15 428.08-27.15L428.08-27.15ZM428.08-22.5Q425.93-22.5 424.93-20.38 423.93-18.25 423.93-13.25L423.93-13.25Q423.93-8.2 424.93-6.08 425.93-3.95 428.08-3.95L428.08-3.95Q430.23-3.95 431.23-6.08 432.23-8.2 432.23-13.25L432.23-13.25Q432.23-18.3 431.23-20.4 430.23-22.5 428.08-22.5L428.08-22.5ZM453.1 0.75Q450.4 0.75 448.82-0.93 447.25-2.6 447.25-5.4L447.25-5.4 447.25-37.05 453.4-37.7 453.4-5.65Q453.4-5 453.7-4.6 454-4.2 454.6-4.2L454.6-4.2Q454.95-4.2 455.27-4.3 455.6-4.4 455.7-4.4L455.7-4.4 456.9-0.2Q455.2 0.75 453.1 0.75L453.1 0.75ZM473.66-27.15Q478.66-27.15 481.44-23.65 484.21-20.15 484.21-13.25L484.21-13.25Q484.21-6.65 481.41-2.95 478.61 0.75 473.66 0.75L473.66 0.75Q468.71 0.75 465.91-2.88 463.11-6.5 463.11-13.25L463.11-13.25Q463.11-19.95 465.91-23.55 468.71-27.15 473.66-27.15L473.66-27.15ZM473.66-22.5Q471.51-22.5 470.51-20.38 469.51-18.25 469.51-13.25L469.51-13.25Q469.51-8.2 470.51-6.08 471.51-3.95 473.66-3.95L473.66-3.95Q475.81-3.95 476.81-6.08 477.81-8.2 477.81-13.25L477.81-13.25Q477.81-18.3 476.81-20.4 475.81-22.5 473.66-22.5L473.66-22.5ZM511.03-29.85L512.58-25.1Q511.53-24.6 510.05-24.4 508.58-24.2 506.38-24.2L506.38-24.2Q508.48-23.2 509.5-21.53 510.53-19.85 510.53-17.4L510.53-17.4Q510.53-13.4 508.08-10.95 505.63-8.5 501.43-8.5L501.43-8.5Q500.18-8.5 498.88-8.9L498.88-8.9Q497.98-8.15 497.98-6.85L497.98-6.85Q497.98-5.85 498.53-5.35 499.08-4.85 500.58-4.85L500.58-4.85 503.38-4.85Q507.38-4.85 509.73-2.78 512.08-0.7 512.08 2.5L512.08 2.5Q512.08 6.3 509.15 8.58 506.23 10.85 500.83 10.85L500.83 10.85Q495.13 10.85 492.85 8.75 490.58 6.65 490.58 2.6L490.58 2.6 496.03 2.6Q496.03 4.75 497.03 5.65 498.03 6.55 500.88 6.55L500.88 6.55Q503.63 6.55 504.78 5.6 505.93 4.65 505.93 2.9L505.93 2.9Q505.93 1.2 504.98 0.4 504.03-0.4 502.03-0.4L502.03-0.4 500.13-0.4Q496.33-0.4 494.58-1.75 492.83-3.1 492.83-5.45L492.83-5.45Q492.83-6.8 493.55-8.03 494.28-9.25 495.53-10.2L495.53-10.2Q493.48-11.5 492.53-13.3 491.58-15.1 491.58-17.7L491.58-17.7Q491.58-22.05 494.18-24.58 496.78-27.1 501.18-27.1L501.18-27.1Q504.43-27.1 506.55-27.8 508.68-28.5 511.03-29.85L511.03-29.85ZM501.18-23Q499.43-23 498.53-21.75 497.63-20.5 497.63-17.8L497.63-17.8Q497.63-15.25 498.53-13.88 499.43-12.5 501.13-12.5L501.13-12.5Q502.88-12.5 503.73-13.73 504.58-14.95 504.58-17.85L504.58-17.85Q504.58-20.55 503.75-21.78 502.93-23 501.18-23L501.18-23ZM538.29-26.45L531.29 0.1Q529.99 4.9 527.09 7.65 524.19 10.4 519.34 10.85L519.34 10.85 518.64 6.5Q521.79 5.85 523.37 4.42 524.94 3 525.84 0L525.84 0 523.54 0 516.84-26.45 523.09-26.45 527.49-4.1 532.19-26.45 538.29-26.45Z" opacity="1" transform="matrix(1,0,0,1,0,0)" fill="#ffffff" class="slogan-text-1" data-fill-palette-color="secondary" id="text-1"></path></svg></g></svg></g></svg></g></svg></g><g transform="matrix(1,0,0,1,93.12280669615038,0)"><svg viewBox="0 0 59.40790340769918 59.40790340769918" height="59.40790340769918" width="59.40790340769918"><g><svg xmlns="http://www.w3.org/2000/svg" xmlns:xlink="http://www.w3.org/1999/xlink" version="1.1" x="0" y="0" viewBox="5 5 90 90" enable-background="new 0 0 100 100" xml:space="preserve" height="59.40790340769918" width="59.40790340769918" class="icon-icon-0" data-fill-palette-color="accent" id="icon-0"><path d="M84.3 5.7C83.8 5.3 83.2 5 82.5 5h-65c-0.7 0-1.3 0.3-1.8 0.7l-10 10C5.3 16.2 5 16.8 5 17.5v65c0 0.7 0.3 1.3 0.7 1.8l10 10c0.5 0.5 1.1 0.7 1.8 0.7h65c0.7 0 1.3-0.3 1.8-0.7l10-10c0.5-0.5 0.7-1.1 0.7-1.8v-65c0-0.7-0.3-1.3-0.7-1.8L84.3 5.7zM86.3 76.1V23.9L90 21V79L86.3 76.1zM10 79V21l3.8 2.9v52.1L10 79zM16.3 25.9l5 3.9c0 0.1 0 0.1 0 0.2v40c0 0.1 0 0.1 0 0.2l-5 3.9V25.9zM70.1 33.3l-3.4-3.4 3.9-5 4.6 4.6L70.1 33.3zM35.6 71.3h28.8l3.9 5H31.7L35.6 71.3zM64.5 68.8h-29l-4.3-4.3v-29l4.3-4.3h29l4.3 4.3v29L64.5 68.8zM64.4 28.8H35.6l-3.9-5h36.6L64.4 28.8zM70.2 21.3c-0.1 0-0.1 0-0.2 0H30c-0.1 0-0.1 0-0.2 0l-3.9-5h48.2L70.2 21.3zM33.3 29.9l-3.4 3.4-5-3.9 4.6-4.6L33.3 29.9zM28.8 35.6v28.8l-5 3.9V31.7L28.8 35.6zM29.9 66.7l3.4 3.4-3.9 5-4.6-4.6L29.9 66.7zM29.8 78.7c0.1 0 0.1 0 0.2 0h40c0.1 0 0.1 0 0.2 0l3.9 5H25.9L29.8 78.7zM66.7 70.1l3.4-3.4 5 3.9-4.6 4.6L66.7 70.1zM71.3 64.4V35.6l5-3.9v36.6L71.3 64.4zM77.1 27.9l-5-5 4.5-5.7 6.3 6.3L77.1 27.9zM76.1 13.8H23.9L21 10H79L76.1 13.8zM27.9 22.9l-5 5-6.4-5 6.4-6.4L27.9 22.9zM22.9 72.1l5 5-5 6.4-6.4-6.4L22.9 72.1zM23.9 86.3h52.1L79 90H21L23.9 86.3zM72.1 77.1l5-5 6.4 5-6.4 6.4L72.1 77.1zM78.7 70.2c0-0.1 0-0.1 0-0.2V30c0-0.1 0-0.1 0-0.2l5-3.9v48.2L78.7 70.2zM89.6 18.2l-4.8 3.7-6.7-6.7 3.7-4.8L89.6 18.2zM18.2 10.4l3.1 4-6.9 6.9-4-3.1L18.2 10.4zM10.4 81.8l4-3.1 6.9 6.9-3.1 4L10.4 81.8zM81.8 89.6l-3.1-4 6.9-6.9 4 3.1L81.8 89.6z" fill="#ffffff" data-fill-palette-color="accent"></path></svg></g></svg></g><g></g></svg></g></svg></g><g><path d="M108.143 40.501A122.216 122.216 0 0 1 287.377 40.501L284.034 40.501A118.872 118.872 0 0 0 111.486 40.501L108.143 40.501M108.143 206.699A122.216 122.216 0 0 0 287.377 206.699L284.034 206.699A118.872 118.872 0 0 1 111.486 206.699L108.143 206.699" fill="#ffffff" stroke="transparent" data-fill-palette-color="tertiary"></path></g></svg></g><defs></defs></svg><rect width="395.52" height="247.2" fill="none" stroke="none" visibility="hidden"></rect></g></svg></g></svg>