<svg width="51" height="51" viewBox="0 0 51 51" fill="none" xmlns="http://www.w3.org/2000/svg">
<g clip-path="url(#clip0_670_172)">
<path d="M40.019 5.03748C33.9109 -0.235187 20.396 -2.84721 10.2682 4.72278C0.766739 11.0921 0.296875 22.7337 0.296875 22.7337C1.9152 29.1031 8.33653 35.2111 20.7091 32.2354C19.2476 23.6735 22.1124 2.00976 40.019 5.03768V5.03748Z" fill="#00ACD2"/>
<path d="M33.6563 25.7445C26.9724 31.2914 6.62765 39.7555 0.296604 22.7339C-1.21577 30.66 2.98105 43.8521 14.6006 48.8383C24.8674 53.8822 35.5667 48.0406 35.5667 48.0406C40.2733 43.4545 42.4198 34.9718 33.6563 25.7445Z" fill="#C8E9EB"/>
<path d="M21.584 17.9648C29.7296 20.9798 47.1421 34.0469 35.5666 48.0408C43.187 45.3873 52.1229 35.2347 50.6312 22.6789C49.866 11.2657 40.0188 5.03783 40.0188 5.03783C33.6939 3.25481 25.1933 5.76187 21.584 17.9648Z" fill="#662D91"/>
</g>
<defs>
<clipPath id="clip0_670_172">
<rect width="50.796" height="51" fill="white"/>
</clipPath>
</defs>
</svg>
