<svg width="51" height="58" viewBox="0 0 51 58" fill="none" xmlns="http://www.w3.org/2000/svg">
<path d="M17.6782 46.3V51.3436C17.6782 52.412 16.5113 53.0708 15.5822 52.5099L13.2365 51.0036L12.6754 50.6869C12.6353 50.6642 9.39191 48.7887 2.34437 44.713L1.78461 44.3919C1.23272 44.0732 0.779974 43.6174 0.467092 43.0672C0.157662 42.5211 -0.00336633 41.9015 0.00268803 41.2858L0 28.7252V16.1445C0 15.4766 0.188578 14.8245 0.539656 14.264C0.886938 13.7016 1.38981 13.2395 1.91248 12.9868L12.1025 7.09674L12.6589 6.77098C12.844 6.6649 12.844 6.6649 13.2203 6.45048L22.9804 0.814643L23.5498 0.477266C24.1439 0.134966 24.816 -0.0278532 25.4972 0.00389315C26.1587 0.0360068 26.8108 0.252862 27.268 0.578313L37.4241 6.44837L37.9868 6.76595C38.0275 6.78953 41.4147 8.74836 48.3108 12.7362L48.8738 13.0583C49.4255 13.3777 49.8771 13.8329 50.1898 14.3831C50.4985 14.9277 50.6595 15.5472 50.6544 16.1647L50.6565 27.6023C50.6567 28.6594 49.5121 29.3199 48.5969 28.7908L44.215 26.2574C43.7907 26.0121 43.5294 25.5592 43.5294 25.0692V18.1968L34.6075 13.0368C34.5304 12.9986 34.3567 12.8994 33.8741 12.6198L25.3278 7.67249L16.4361 12.8088C16.3509 12.8649 16.3509 12.8649 16.2999 12.8973C16.2793 12.91 16.0695 13.0321 15.6705 13.2637L7.12766 18.1973V39.2531L16.0538 44.415C16.1109 44.4435 16.2336 44.5138 16.8028 44.8424L16.9867 45.0057L17.1391 45.2094C17.4769 45.4675 17.6782 45.8699 17.6782 46.3ZM43.5294 33.3368C43.5294 32.2808 44.672 31.6203 45.5871 32.1474L49.9691 34.6716C50.3944 34.9167 50.6565 35.3702 50.6565 35.861V40.0401C50.6565 40.3982 50.5166 40.7421 50.2659 40.9991L48.2001 43.1054C47.4254 44.0957 46.288 44.4898 45.2731 43.9051L28.9903 34.4648L28.9863 52.2772C29.0435 52.9455 28.7675 53.5994 28.2429 54.0222C27.7293 54.4374 27.7293 54.4374 25.24 56.4484C24.8669 56.7941 24.3784 56.987 23.8673 56.987C22.7532 56.987 21.8502 56.0832 21.8502 54.9689L21.8528 30.3374L19.1089 28.7512L17.7216 29.549C17.6555 29.5953 17.6789 29.5817 16.2787 30.39C15.2919 30.9674 14.0492 30.6619 13.4816 29.6828C13.3466 29.4497 13.3466 29.4497 12.7085 28.347L11.9423 27.0255C11.3683 26.0351 11.6748 24.7947 12.6545 24.2281C12.8941 24.0905 12.8941 24.0905 14.002 23.4544L17.3431 21.531L17.9455 21.1909C18.5874 20.7341 19.4381 20.6925 20.1274 21.0904L20.8883 21.5338L43.5294 34.619V33.3368Z" fill="#0EBAC5"/>
</svg>
