<svg width="51" height="51" viewBox="0 0 51 51" fill="none" xmlns="http://www.w3.org/2000/svg">
<path d="M44.2595 12.9692C41.8449 9.84258 38.5574 7.5022 34.8127 6.24407C31.068 4.98594 27.0343 4.86658 23.2217 5.90108C19.4092 6.93558 15.989 9.07747 13.3938 12.0559C10.7987 15.0343 9.14501 18.7154 8.64205 22.6336C8.13908 26.5519 8.80939 30.5313 10.5682 34.0686C12.327 37.6059 15.0953 40.5422 18.5229 42.506C21.9506 44.4699 25.8837 45.3732 29.8248 45.1017C33.7658 44.8301 37.5379 43.3959 40.6638 40.9805C49.3893 34.2373 50.9995 21.6978 44.2588 12.9692H44.2595Z" fill="#FF6C37"/>
<path d="M35.189 17.9299L26.7675 26.4181L24.3877 23.9715C32.6762 15.683 33.5082 16.4319 35.1896 17.9299H35.189Z" fill="white"/>
<path d="M26.7674 26.6503C26.6929 26.6485 26.6216 26.6189 26.5677 26.5673L24.171 24.1706C24.1171 24.1147 24.0869 24.0401 24.0869 23.9624C24.0869 23.8848 24.1171 23.8102 24.171 23.7543C32.3429 15.5825 33.4582 15.9651 35.3887 17.7126C35.421 17.7385 35.4468 17.7715 35.4642 17.8091C35.4815 17.8467 35.4898 17.8878 35.4885 17.9292C35.501 18.0104 35.4698 18.0934 35.4055 18.1458L26.984 26.5679C26.925 26.622 26.8476 26.6517 26.7674 26.6509V26.6503ZM24.8033 23.9709L26.7674 25.935L34.7564 17.9461C34.4806 17.6004 34.087 17.3685 33.6509 17.2948C33.2148 17.2211 32.7669 17.3108 32.3928 17.5466C30.9448 18.1957 28.6149 20.1761 24.8033 23.9709Z" fill="#FF6C37"/>
<path d="M29.1806 28.7647L26.8838 26.418L35.3053 18.0957C37.569 20.3095 34.2068 24.0044 29.1806 28.7641V28.7647Z" fill="white"/>
<path d="M29.1803 29.0644C29.1066 29.0586 29.0367 29.0295 28.9806 28.9814L26.6338 26.6846C26.5986 26.5992 26.5986 26.5034 26.6338 26.4181C26.6089 26.348 26.6089 26.2715 26.6338 26.2015L35.0553 17.78C35.1139 17.725 35.1912 17.6943 35.2716 17.6943C35.3519 17.6943 35.4293 17.725 35.4878 17.78C35.7606 18.031 35.976 18.3378 36.1196 18.6795C36.2632 19.0213 36.3314 19.3899 36.3198 19.7604C36.3198 22.0073 33.7565 24.8365 29.3963 28.9645C29.338 29.0222 29.2613 29.0575 29.1797 29.0644H29.1803ZM27.316 26.4181L29.1965 28.298C32.5251 25.1523 35.7044 21.9068 35.7206 19.7098C35.7387 19.2441 35.5848 18.788 35.2881 18.4285L27.316 26.4181Z" fill="#FF6C37"/>
<path d="M24.4534 24.0214L26.118 25.6859C26.1286 25.6953 26.1371 25.7068 26.143 25.7197C26.1488 25.7327 26.1518 25.7467 26.1518 25.7608C26.1518 25.775 26.1488 25.789 26.143 25.8019C26.1371 25.8148 26.1286 25.8264 26.118 25.8357L22.606 26.5847C22.5351 26.6 22.4611 26.5917 22.3954 26.5611C22.3296 26.5305 22.2757 26.4792 22.2418 26.4151C22.2078 26.351 22.1958 26.2776 22.2075 26.206C22.2191 26.1344 22.2539 26.0686 22.3064 26.0186L24.3536 23.9883C24.3536 23.9883 24.4203 23.9883 24.4534 24.0214Z" fill="white"/>
<path d="M22.5234 26.9173C22.4124 26.9159 22.3036 26.8861 22.2075 26.8307C22.1113 26.7753 22.031 26.6962 21.9741 26.6009C21.9101 26.4802 21.8869 26.342 21.9079 26.207C21.929 26.072 21.9931 25.9474 22.0908 25.8519L24.1211 23.8047C24.1944 23.7393 24.2891 23.7031 24.3873 23.7031C24.4855 23.7031 24.5803 23.7393 24.6535 23.8047L26.3181 25.4693C26.4167 25.5629 26.4554 25.7046 26.418 25.8357C26.3805 25.9668 26.2707 26.071 26.1352 26.1022L22.6232 26.8512L22.5234 26.9173ZM24.3877 24.3877L22.5071 26.2682L25.6197 25.6023L24.3877 24.3877Z" fill="#FF6C37"/>
<path d="M39.666 13.2524C38.4614 12.0903 36.569 12.0416 35.3058 13.1382C34.0425 14.2348 33.8265 16.1172 34.8102 17.4716C35.7938 18.826 37.6481 19.2054 39.0837 18.3454L36.8199 16.0816L39.666 13.2524Z" fill="white"/>
<path d="M37.4195 19.1106C36.7274 19.1017 36.0533 18.8894 35.481 18.5C34.9088 18.1107 34.4638 17.5616 34.2014 16.9211C33.9393 16.2811 33.8705 15.5783 34.0036 14.8996C34.1368 14.2209 34.4659 13.5962 34.9504 13.1026C35.6168 12.4485 36.5132 12.082 37.447 12.082C38.3807 12.082 39.2772 12.4485 39.9435 13.1026C40.0072 13.1563 40.0434 13.2356 40.0434 13.3192C40.0432 13.3603 40.0342 13.401 40.017 13.4383C39.9998 13.4757 39.9747 13.5089 39.9435 13.5358L37.2472 16.0822L39.2944 18.0963C39.3276 18.128 39.3525 18.1673 39.367 18.2108C39.3814 18.2544 39.385 18.3008 39.3774 18.346C39.3725 18.3896 39.358 18.4316 39.3351 18.4691C39.3121 18.5065 39.2812 18.5384 39.2445 18.5626C38.6945 18.9063 38.0623 19.096 37.4139 19.1118L37.4195 19.1106ZM37.4195 12.6526C36.2336 12.6589 35.1726 13.3722 34.7276 14.4626C34.2826 15.553 34.5248 16.8081 35.3561 17.6457C35.7696 18.0616 36.2991 18.343 36.8752 18.4529C37.4513 18.5628 38.0472 18.4962 38.5848 18.2617L36.6206 16.2976C36.5894 16.2726 36.5642 16.2409 36.5469 16.2049C36.5295 16.1689 36.5205 16.1294 36.5205 16.0894C36.5205 16.0494 36.5295 16.01 36.5469 15.9739C36.5642 15.9379 36.5894 15.9062 36.6206 15.8813L39.217 13.268C38.7009 12.8725 38.0698 12.6562 37.4195 12.652V12.6526Z" fill="#FF6C37"/>
<path d="M39.7162 13.3022L36.8701 16.1315L39.1339 18.3952C39.3617 18.2644 39.5738 18.108 39.7661 17.929C40.3594 17.3019 40.6859 16.4688 40.6765 15.6055C40.6672 14.7423 40.3229 13.9164 39.7162 13.3022Z" fill="white"/>
<path d="M39.0831 18.6451C39.0457 18.6471 39.0083 18.6407 38.9738 18.6263C38.9392 18.612 38.9083 18.59 38.8834 18.5621L36.6196 16.2983C36.5884 16.2734 36.5632 16.2417 36.5458 16.2056C36.5285 16.1696 36.5195 16.1301 36.5195 16.0902C36.5195 16.0502 36.5285 16.0107 36.5458 15.9747C36.5632 15.9387 36.5884 15.907 36.6196 15.882L39.4488 13.1027C39.4761 13.0615 39.5132 13.0277 39.5568 13.0044C39.6004 12.981 39.649 12.9688 39.6985 12.9688C39.7479 12.9688 39.7966 12.981 39.8401 13.0044C39.8837 13.0277 39.9208 13.0615 39.9481 13.1027C40.2803 13.4282 40.5441 13.8166 40.7243 14.2453C40.9044 14.674 40.9972 15.1343 40.9972 15.5993C40.9972 16.0643 40.9044 16.5246 40.7243 16.9533C40.5441 17.382 40.2803 17.7704 39.9481 18.0958C39.7522 18.3036 39.528 18.4829 39.2822 18.6282C39.2203 18.6594 39.1487 18.6655 39.0825 18.6451H39.0831ZM37.2525 16.0824L39.133 17.9629C39.2624 17.8722 39.3848 17.7721 39.4994 17.6633C40.0522 17.112 40.3636 16.3638 40.3651 15.5831C40.3663 14.8844 40.1117 14.2094 39.6492 13.6857L37.2525 16.0824Z" fill="#FF6C37"/>
<path d="M35.5385 18.2792C35.3131 18.0675 35.0154 17.9497 34.7062 17.9497C34.397 17.9497 34.0993 18.0675 33.8739 18.2792L26.335 25.8013L27.5832 27.0665L35.5553 20.0761C35.6769 19.9596 35.7734 19.8194 35.8387 19.6642C35.9041 19.509 35.937 19.3421 35.9354 19.1737C35.9338 19.0053 35.8978 18.8391 35.8295 18.6851C35.7613 18.5312 35.6622 18.3928 35.5385 18.2786V18.2792Z" fill="white"/>
<path d="M27.5158 27.3664C27.4412 27.3645 27.37 27.3349 27.316 27.2833L26.0509 26.0182C25.997 25.9624 25.9668 25.8877 25.9668 25.8101C25.9668 25.7324 25.997 25.6578 26.0509 25.6019L33.5905 18.0954C33.8077 17.8785 34.085 17.7319 34.3865 17.6745C34.688 17.6171 34.9998 17.6516 35.2815 17.7736C35.5631 17.8955 35.8017 18.0993 35.9661 18.3585C36.1306 18.6176 36.2134 18.9202 36.2038 19.227C36.1951 19.4352 36.145 19.6396 36.0564 19.8282C35.9678 20.0169 35.8424 20.1859 35.6876 20.3255L27.7155 27.3158C27.6575 27.3568 27.5862 27.3747 27.5158 27.3657V27.3664ZM26.6339 25.801L27.4658 26.6498L35.2882 19.8424C35.4816 19.6739 35.5971 19.4329 35.6046 19.1764C35.6121 18.9199 35.511 18.669 35.3219 18.4942C35.1472 18.3203 34.9108 18.2227 34.6643 18.2227C34.4179 18.2227 34.1814 18.3203 34.0068 18.4942L26.6339 25.801Z" fill="#FF6C37"/>
<path d="M20.4924 34.3729C20.4711 34.4019 20.4596 34.4369 20.4596 34.4728C20.4596 34.5087 20.4711 34.5437 20.4924 34.5727L20.8251 36.0207C20.8384 36.1059 20.8258 36.1931 20.7888 36.2711C20.7519 36.349 20.6923 36.414 20.6179 36.4576C20.5437 36.5009 20.4577 36.5197 20.3722 36.511C20.2868 36.5024 20.2063 36.4668 20.1423 36.4095L17.8623 34.2125L24.9694 27.0493H27.4328L29.0974 28.7139C26.5008 30.9841 23.6056 32.8882 20.4924 34.3729Z" fill="white"/>
<path d="M20.343 36.8197C20.1545 36.816 19.9685 36.7386 19.8437 36.6032L17.6636 34.4231C17.6323 34.3981 17.6071 34.3664 17.5898 34.3304C17.5725 34.2944 17.5635 34.2549 17.5635 34.2149C17.5635 34.1749 17.5725 34.1355 17.5898 34.0994C17.6071 34.0634 17.6323 34.0317 17.6636 34.0068L24.8199 26.8335C24.86 26.791 24.9124 26.7619 24.9697 26.7505H27.4494C27.514 26.7277 27.5845 26.7277 27.6491 26.7505L29.3137 28.4151C29.3454 28.4443 29.3694 28.4807 29.3839 28.5213C29.3984 28.5618 29.4028 28.6053 29.3967 28.6479C29.3979 28.6893 29.3895 28.7303 29.3722 28.7679C29.3548 28.8055 29.3291 28.8385 29.2969 28.8645L29.1639 28.9812C26.5568 31.1546 23.6886 32.9941 20.6257 34.4568L20.9421 35.8049C20.9666 35.9089 20.9675 36.017 20.9449 36.1214C20.9222 36.2259 20.8766 36.3239 20.8112 36.4084C20.7458 36.4929 20.6624 36.5617 20.567 36.6099C20.4717 36.6581 20.3668 36.6843 20.26 36.6868L20.343 36.8197ZM18.3127 34.2065L20.2762 36.1869C20.2945 36.2032 20.3181 36.2122 20.3427 36.2122C20.3672 36.2122 20.3908 36.2032 20.4091 36.1869C20.4214 36.1699 20.428 36.1495 20.428 36.1285C20.428 36.1076 20.4214 36.0872 20.4091 36.0702L20.0765 34.6222C20.0503 34.5182 20.0608 34.4084 20.1063 34.3114C20.1518 34.2144 20.2295 34.1361 20.3261 34.0898C23.3067 32.6466 26.101 30.8469 28.6478 28.7303L27.2828 27.3653H25.0527L18.3127 34.2065Z" fill="#FF6C37"/>
<path d="M16.149 35.9209L17.8136 34.2563L20.3769 36.8197L16.2994 36.5369C16.2294 36.5315 16.1629 36.504 16.1095 36.4585C16.056 36.413 16.0183 36.3517 16.0016 36.2835C15.985 36.2153 15.9904 36.1435 16.017 36.0785C16.0436 36.0135 16.09 35.9586 16.1496 35.9215L16.149 35.9209Z" fill="white"/>
<path d="M20.4255 37.0695L16.3642 36.7868C16.1233 36.7643 15.9161 36.5995 15.8312 36.3792C15.7463 36.1589 15.7982 35.8974 15.9648 35.7214L17.6294 34.0568C17.6852 34.0028 17.7599 33.9727 17.8375 33.9727C17.9152 33.9727 17.9898 34.0028 18.0457 34.0568L20.5922 36.6033C20.6274 36.6516 20.6464 36.7098 20.6464 36.7696C20.6464 36.8294 20.6274 36.8876 20.5922 36.9359C20.5536 36.9982 20.4948 37.0452 20.4255 37.0689V37.0695ZM16.3642 36.1377L19.6928 36.3542L17.8622 34.6397L16.3642 36.1377Z" fill="#FF6C37"/>
<path d="M27.6659 27.2507L24.3037 27.7669L26.251 25.8364L27.6659 27.2507Z" fill="white"/>
<path d="M24.3035 28.0821C24.2476 28.0836 24.1925 28.0685 24.1451 28.0389C24.0977 28.0093 24.0601 27.9663 24.037 27.9154C24.0015 27.8672 23.9824 27.809 23.9824 27.7491C23.9824 27.6893 24.0015 27.631 24.037 27.5828L25.9674 25.6355C26.026 25.5804 26.1033 25.5498 26.1837 25.5498C26.2641 25.5498 26.3414 25.5804 26.4 25.6355L27.8155 27.0498C27.8438 27.0946 27.8588 27.1465 27.8588 27.1996C27.8588 27.2526 27.8438 27.3045 27.8155 27.3494C27.8016 27.404 27.7723 27.4535 27.731 27.4919C27.6897 27.5303 27.6382 27.556 27.5827 27.5659L24.2542 28.0821H24.3035ZM26.2508 26.2677L25.1692 27.3494L27.0335 27.0666L26.2508 26.2677Z" fill="#FF6C37"/>
<path d="M27.6658 27.2494L25.319 27.549C25.2562 27.5632 25.1905 27.5569 25.1316 27.5308C25.0727 27.5048 25.0238 27.4605 24.992 27.4044C24.9603 27.3484 24.9475 27.2836 24.9554 27.2197C24.9634 27.1558 24.9918 27.0962 25.0363 27.0497L26.2515 25.8345L27.6658 27.2494Z" fill="white"/>
<path d="M25.2528 27.8658C25.1441 27.8648 25.0375 27.8349 24.944 27.7794C24.8505 27.7238 24.7734 27.6444 24.7205 27.5494C24.6569 27.4354 24.6323 27.3039 24.6503 27.1747C24.6683 27.0455 24.728 26.9257 24.8203 26.8335L26.0355 25.6183C26.0941 25.5633 26.1714 25.5326 26.2518 25.5326C26.3321 25.5326 26.4095 25.5633 26.468 25.6183L27.883 27.0332C27.925 27.0731 27.9546 27.1243 27.9682 27.1807C27.9817 27.237 27.9787 27.2961 27.9593 27.3507C27.9399 27.4054 27.9051 27.4532 27.8591 27.4885C27.8131 27.5237 27.7579 27.5449 27.7001 27.5494L25.3702 27.849L25.2528 27.8658ZM25.2528 27.2498L27.0173 27.0332L26.2352 26.2512L25.2366 27.2498H25.2528ZM39.7328 15.2164C39.7015 15.1639 39.6519 15.1247 39.5936 15.1063C39.5353 15.0879 39.4722 15.0915 39.4164 15.1165C39.3888 15.1305 39.3644 15.1499 39.3444 15.1734C39.3245 15.197 39.3095 15.2244 39.3003 15.2539C39.2818 15.3134 39.2876 15.3778 39.3165 15.433C39.4332 15.6783 39.4008 15.9685 39.2335 16.182C39.2127 16.2025 39.1965 16.2272 39.1857 16.2543C39.175 16.2815 39.17 16.3106 39.1711 16.3399C39.1717 16.3984 39.1939 16.4546 39.2335 16.4978C39.2762 16.5146 39.3238 16.5146 39.3665 16.4978C39.4052 16.5075 39.4459 16.5064 39.4841 16.4947C39.5223 16.4829 39.5565 16.4609 39.583 16.431C39.7201 16.2632 39.8069 16.06 39.8334 15.845C39.8599 15.63 39.825 15.4118 39.7328 15.2158V15.2164Z" fill="#FF6C37"/>
</svg>
