<svg width="51" height="46" viewBox="0 0 51 46" fill="none" xmlns="http://www.w3.org/2000/svg">
<path d="M14.7876 0.177246C13.4194 0.180215 12.08 0.956948 11.3913 2.14174L0.678558 20.7509C0.000376359 21.9388 0.000376359 23.4917 0.678558 24.6797L11.3913 43.289C12.08 44.4738 13.4194 45.2507 14.7876 45.2535H36.2132C37.5814 45.2505 38.9207 44.4738 39.6094 43.289L50.3222 24.6797C51.0004 23.4917 51.0002 21.9388 50.3222 20.7509L39.6094 2.14174C38.9207 0.95675 37.5814 0.180017 36.2132 0.177246L14.7876 0.177246ZM14.9821 11.064C15.0116 11.061 15.0425 11.061 15.072 11.064H18.7674C18.8496 11.0666 18.9297 11.09 19.0003 11.132C19.071 11.1739 19.1299 11.233 19.1715 11.3038L25.4406 22.4753C25.4723 22.5307 25.4925 22.5921 25.5 22.6554C25.5079 22.5921 25.5281 22.5307 25.5597 22.4753L31.8138 11.3038C31.8569 11.231 31.9181 11.1706 31.9916 11.1286C32.065 11.0865 32.1481 11.0643 32.2327 11.064H35.9284C36.2555 11.0667 36.5007 11.479 36.3473 11.7687L30.2279 22.7154L36.3473 33.647C36.5151 33.9383 36.2642 34.3695 35.9284 34.3668H32.2327C32.1466 34.3649 32.0625 34.3404 31.989 34.2957C31.9154 34.2509 31.855 34.1875 31.8138 34.1119L25.5597 22.9402C25.5281 22.885 25.5079 22.8234 25.5002 22.7603C25.4925 22.8237 25.4722 22.8849 25.4406 22.9404L19.1713 34.1119C19.1315 34.1854 19.0734 34.2474 19.0028 34.292C18.9321 34.3366 18.8511 34.3624 18.7676 34.3668H15.0718C14.7359 34.3697 14.485 33.9383 14.6528 33.647L20.7723 22.7154L14.6528 11.7687C14.5062 11.5043 14.6851 11.1204 14.9819 11.064H14.9821Z" fill="#3498DB"/>
</svg>
