<svg width="51" height="51" viewBox="0 0 51 51" fill="none" xmlns="http://www.w3.org/2000/svg">
<g clip-path="url(#clip0_653_279)">
<path d="M50.9996 0H25.6058L1.35742 25.5H25.4549L25.5675 25.3853L50.9996 0Z" fill="url(#paint0_linear_653_279)"/>
<path d="M51 51H0H51ZM25.568 25.3853L25.4554 25.5H25.6828L25.568 25.3853Z" fill="url(#paint1_linear_653_279)"/>
<path d="M25.6063 0H0V26.928V25.5H1.35787L25.6063 0Z" fill="url(#paint2_linear_653_279)"/>
<path d="M25.4554 25.5H1.35787L0 26.928V51L25.4554 25.5Z" fill="url(#paint3_linear_653_279)"/>
<path d="M25.6828 25.5H25.4554L0 51H51L25.6828 25.5Z" fill="url(#paint4_linear_653_279)"/>
<path d="M1.35787 25.5H0V26.928L1.35787 25.5Z" fill="url(#paint5_linear_653_279)"/>
</g>
<defs>
<linearGradient id="paint0_linear_653_279" x1="-9.10292" y1="46.607" x2="38.3553" y2="-0.851196" gradientUnits="userSpaceOnUse">
<stop stop-color="#C757BC"/>
<stop offset="0.108" stop-color="#C757BC"/>
<stop offset="0.173" stop-color="#CD5CA9"/>
<stop offset="0.492" stop-color="#E8744F"/>
<stop offset="0.716" stop-color="#F88316"/>
<stop offset="0.823" stop-color="#FF8900"/>
<stop offset="1" stop-color="#FF8900"/>
</linearGradient>
<linearGradient id="paint1_linear_653_279" x1="16.475" y1="60.1866" x2="39.6069" y2="37.0547" gradientUnits="userSpaceOnUse">
<stop stop-color="#00AFFF"/>
<stop offset="0.296" stop-color="#00AFFF"/>
<stop offset="0.694" stop-color="#5282FF"/>
<stop offset="1" stop-color="#945DFF"/>
</linearGradient>
<linearGradient id="paint2_linear_653_279" x1="-0.537875" y1="14.0945" x2="15.6895" y2="-2.13331" gradientUnits="userSpaceOnUse">
<stop stop-color="#00AFFF"/>
<stop offset="0.296" stop-color="#00AFFF"/>
<stop offset="0.694" stop-color="#5282FF"/>
<stop offset="1" stop-color="#945DFF"/>
</linearGradient>
<linearGradient id="paint3_linear_653_279" x1="-8.81772" y1="46.8917" x2="38.6405" y2="-0.566447" gradientUnits="userSpaceOnUse">
<stop stop-color="#AD4CA4"/>
<stop offset="0.108" stop-color="#AD4CA4"/>
<stop offset="0.173" stop-color="#B25093"/>
<stop offset="0.492" stop-color="#CA6545"/>
<stop offset="0.716" stop-color="#D87213"/>
<stop offset="0.823" stop-color="#DE7700"/>
<stop offset="1" stop-color="#DE7700"/>
</linearGradient>
<linearGradient id="paint4_linear_653_279" x1="16.475" y1="60.1866" x2="39.6069" y2="37.0547" gradientUnits="userSpaceOnUse">
<stop stop-color="#0098DE"/>
<stop offset="0.296" stop-color="#0098DE"/>
<stop offset="0.694" stop-color="#4771DE"/>
<stop offset="1" stop-color="#8151DE"/>
</linearGradient>
<linearGradient id="paint5_linear_653_279" x1="5.83964" y1="20.4718" x2="22.067" y2="4.24404" gradientUnits="userSpaceOnUse">
<stop stop-color="#0098DE"/>
<stop offset="0.296" stop-color="#0098DE"/>
<stop offset="0.694" stop-color="#4771DE"/>
<stop offset="1" stop-color="#8151DE"/>
</linearGradient>
<clipPath id="clip0_653_279">
<rect width="51" height="51" fill="white"/>
</clipPath>
</defs>
</svg>
