<svg width="45" height="56" viewBox="0 0 45 56" fill="none" xmlns="http://www.w3.org/2000/svg">
<g clip-path="url(#clip0_653_323)">
<path d="M8.57679 36.6211L0 27.9977L27.8487 0H45L8.57679 36.6211ZM45 25.8362H27.8487L21.424 32.2959L30.0007 40.9192" fill="#42A5F5" fill-opacity="0.8"/>
<path d="M21.4238 49.5403L27.8485 55.9999H44.9999L30.0006 40.9192" fill="#0D47A1"/>
<path d="M12.8672 40.9238L21.4305 32.3118L29.9938 40.9216L21.4305 49.5337L12.8672 40.9238Z" fill="#42A5F5"/>
<path d="M21.4307 49.5336L29.9939 40.9238L31.1893 42.1257L22.626 50.7355L21.4307 49.5336Z" fill="url(#paint0_linear_653_323)"/>
<path d="M21.4238 49.5404L34.1494 45.12L30.0006 40.917" fill="url(#paint1_linear_653_323)"/>
</g>
<defs>
<linearGradient id="paint0_linear_653_323" x1="25.7139" y1="45.2272" x2="26.9158" y2="46.4225" gradientUnits="userSpaceOnUse">
<stop offset="0.2" stop-opacity="0.15"/>
<stop offset="0.85" stop-color="#616161" stop-opacity="0.01"/>
</linearGradient>
<linearGradient id="paint1_linear_653_323" x1="21.4269" y1="45.2289" x2="34.1523" y2="45.2289" gradientUnits="userSpaceOnUse">
<stop offset="0.2" stop-opacity="0.55"/>
<stop offset="0.85" stop-color="#616161" stop-opacity="0.01"/>
</linearGradient>
<clipPath id="clip0_653_323">
<rect width="45" height="56" fill="white"/>
</clipPath>
</defs>
</svg>
