<svg width="51" height="51" viewBox="0 0 51 51" fill="none" xmlns="http://www.w3.org/2000/svg">
<g clip-path="url(#clip0_653_341)">
<path d="M11.336 0H39.5852C40.9598 0 42.2946 0.219141 43.5895 0.677344C45.4622 1.35469 47.1555 2.55 48.4305 4.10391C49.7254 5.65781 50.5821 7.57031 50.8809 9.5625C51.0004 10.2996 51.0204 11.0367 51.0204 11.7738V39.3258C51.0204 40.2023 50.9805 41.0988 50.8012 41.9555C50.4028 43.9277 49.4665 45.7805 48.1118 47.2746C46.777 48.7687 45.0239 49.8844 43.1313 50.482C41.9758 50.8406 40.7805 51 39.5653 51C39.0274 51 11.2563 51 10.838 50.9801C8.80592 50.8805 6.79381 50.223 5.10045 49.0875C3.44694 47.9719 2.09225 46.418 1.21569 44.625C0.458655 43.091 0.0801392 41.3777 0.0801392 39.6645V11.3355C0.0402955 9.64219 0.398889 7.96875 1.136 6.45469C1.99264 4.66172 3.3274 3.08789 4.98092 1.97227C6.67428 0.816797 8.66647 0.139453 10.6985 0.0398437C10.8977 0 11.1169 0 11.336 0Z" fill="url(#paint0_linear_653_341)"/>
<path d="M43.0313 41.7164C42.852 41.4375 42.6527 41.1586 42.4336 40.8996C41.9356 40.302 41.3578 39.784 40.7203 39.3457C39.9234 38.8078 38.9871 38.4691 38.0309 38.4293C37.3535 38.3895 36.6762 38.509 36.0387 38.748C35.4012 38.9672 34.7836 39.2859 34.1859 39.6047C33.4887 39.9633 32.7914 40.3219 32.0543 40.6207C31.1777 40.9793 30.2613 41.2582 29.325 41.4574C28.1496 41.6766 26.9543 41.7562 25.7789 41.7363C23.6473 41.6965 21.5156 41.3777 19.4836 40.7801C17.6906 40.2422 15.9773 39.5051 14.3637 38.5688C12.9492 37.752 11.6344 36.8156 10.3992 35.7598C9.3832 34.8832 8.44688 33.9469 7.57031 32.9508C6.97266 32.2535 6.39492 31.5164 5.85703 30.7594C5.63789 30.4605 5.43867 30.1418 5.25938 29.823L0 24.1453V11.2957C0 5.06016 5.04023 0 11.2758 0H21.3363L28.7871 7.57031C45.6012 19.0055 40.1625 31.616 40.1625 31.616C40.1625 31.616 44.9438 36.9949 43.0313 41.7164Z" fill="url(#paint1_linear_653_341)"/>
<path d="M28.8273 7.57031C45.6414 19.0055 40.2027 31.616 40.2027 31.616C40.2027 31.616 44.984 37.0148 43.0516 41.7363C43.0516 41.7363 41.0793 38.4293 37.7723 38.4293C34.5848 38.4293 32.7121 41.7363 26.2973 41.7363C12.0133 41.7363 5.25977 29.8031 5.25977 29.8031C18.1293 38.2699 26.9148 32.2734 26.9148 32.2734C21.1176 28.9066 8.78594 12.8098 8.78594 12.8098C19.5238 21.9539 24.1656 24.3645 24.1656 24.3645C21.3965 22.0734 13.627 10.8773 13.627 10.8773C19.8426 17.1727 32.1941 25.9582 32.1941 25.9582C35.7004 16.2363 28.8273 7.57031 28.8273 7.57031Z" fill="white"/>
</g>
<defs>
<linearGradient id="paint0_linear_653_341" x1="30.3397" y1="-1.81986" x2="20.7041" y2="52.826" gradientUnits="userSpaceOnUse">
<stop stop-color="#FAAE42"/>
<stop offset="1" stop-color="#EF3E31"/>
</linearGradient>
<linearGradient id="paint1_linear_653_341" x1="26.0204" y1="0.823969" x2="18.9682" y2="40.8185" gradientUnits="userSpaceOnUse">
<stop stop-color="#E39F3A"/>
<stop offset="1" stop-color="#D33929"/>
</linearGradient>
<clipPath id="clip0_653_341">
<rect width="51" height="51" fill="white"/>
</clipPath>
</defs>
</svg>
