<svg width="51" height="59" viewBox="0 0 51 59" fill="none" xmlns="http://www.w3.org/2000/svg">
<path d="M51 29.0617C51 25.6832 46.7691 22.4814 40.2823 20.4958C41.7793 13.8843 41.1139 8.62426 38.1824 6.9402C37.5067 6.54517 36.7167 6.35805 35.8539 6.35805V8.67623C36.332 8.67623 36.7167 8.76979 37.0389 8.94651C38.4527 9.75736 39.066 12.8448 38.5879 16.8159C38.4735 17.793 38.2864 18.8222 38.0577 19.8721C36.0202 19.3731 33.7956 18.9885 31.4566 18.739C30.0532 16.8159 28.5978 15.0694 27.1321 13.5413C30.521 10.3915 33.702 8.66584 35.8643 8.66584V6.34766C33.0055 6.34766 29.2631 8.38516 25.4792 11.9196C21.6953 8.40595 17.9529 6.38924 15.0942 6.38924V8.70742C17.246 8.70742 20.4374 10.4227 23.8263 13.5517C22.371 15.0798 20.9156 16.8159 19.533 18.739C17.1837 18.9885 14.959 19.3731 12.9215 19.8825C12.6824 18.843 12.5057 17.8346 12.381 16.8678C11.8924 12.8968 12.4953 9.80934 13.8987 8.9881C14.2106 8.80098 14.616 8.71782 15.0942 8.71782V6.39963C14.221 6.39963 13.4309 6.58675 12.7448 6.98178C9.82368 8.66584 9.16877 13.9155 10.6761 20.5062C4.21015 22.5022 0 25.6936 0 29.0617C0 32.4402 4.23094 35.642 10.7177 37.6275C9.22075 44.239 9.88606 49.4991 12.8176 51.1832C13.4933 51.5782 14.2833 51.7653 15.1565 51.7653C18.0153 51.7653 21.7576 49.7278 25.5416 46.1934C29.3255 49.707 33.0679 51.7237 35.9266 51.7237C36.7998 51.7237 37.5899 51.5366 38.276 51.1416C41.1971 49.4575 41.852 44.2078 40.3447 37.6171C46.7898 35.6316 51 32.4298 51 29.0617ZM37.4651 22.1279C37.0805 23.4689 36.6023 24.8515 36.0618 26.2341C35.6355 25.4025 35.1885 24.5709 34.7 23.7392C34.2218 22.9076 33.7124 22.0967 33.203 21.3067C34.6792 21.525 36.1033 21.7953 37.4651 22.1279ZM32.704 33.1991C31.8932 34.6024 31.0616 35.9331 30.1987 37.1701C28.6498 37.3053 27.0801 37.378 25.5 37.378C23.9303 37.378 22.3606 37.3053 20.8221 37.1805C19.9592 35.9435 19.1172 34.6232 18.3064 33.2302C17.5163 31.8684 16.799 30.4859 16.1441 29.0929C16.7886 27.6999 17.5163 26.3069 18.296 24.9451C19.1068 23.5417 19.9384 22.2111 20.8013 20.974C22.3502 20.8389 23.9199 20.7661 25.5 20.7661C27.0697 20.7661 28.6394 20.8389 30.1779 20.9636C31.0408 22.2007 31.8828 23.5209 32.6936 24.9139C33.4837 26.2757 34.201 27.6583 34.8559 29.0513C34.201 30.4443 33.4837 31.8373 32.704 33.1991ZM36.0618 31.8477C36.6231 33.2406 37.1013 34.6336 37.4963 35.985C36.1345 36.3177 34.7 36.5984 33.2134 36.8167C33.7228 36.0162 34.2322 35.195 34.7104 34.353C35.1885 33.5213 35.6355 32.6793 36.0618 31.8477ZM25.5208 42.9396C24.554 41.9416 23.5872 40.8293 22.6309 39.613C23.5665 39.6546 24.5228 39.6858 25.4896 39.6858C26.4668 39.6858 27.4336 39.665 28.3795 39.613C27.4439 40.8293 26.4772 41.9416 25.5208 42.9396ZM17.7866 36.8167C16.3104 36.5984 14.8863 36.3281 13.5245 35.9954C13.9091 34.6544 14.3873 33.2718 14.9278 31.8892C15.3541 32.7209 15.8011 33.5525 16.2896 34.3841C16.7782 35.2158 17.2772 36.0266 17.7866 36.8167ZM25.4688 15.1838C26.4356 16.1817 27.4024 17.294 28.3587 18.5103C27.4232 18.4687 26.4668 18.4375 25.5 18.4375C24.5228 18.4375 23.5561 18.4583 22.6101 18.5103C23.5457 17.294 24.5124 16.1817 25.4688 15.1838ZM17.7762 21.3067C17.2668 22.1071 16.7574 22.9284 16.2792 23.7704C15.8011 24.602 15.3541 25.4337 14.9278 26.2653C14.3665 24.8723 13.8883 23.4793 13.4933 22.1279C14.8551 21.8057 16.2896 21.525 17.7762 21.3067ZM8.36833 34.3218C4.68834 32.7521 2.30779 30.6938 2.30779 29.0617C2.30779 27.4296 4.68834 25.3609 8.36833 23.8016C9.26233 23.417 10.2395 23.0739 11.2479 22.7517C11.8404 24.7892 12.6201 26.9098 13.5868 29.0825C12.6305 31.2447 11.8612 33.355 11.279 35.3821C10.2499 35.0598 9.27273 34.7064 8.36833 34.3218ZM13.9611 49.1768C12.5473 48.366 11.934 45.2786 12.4121 41.3075C12.5265 40.3303 12.7136 39.3012 12.9423 38.2512C14.9798 38.7502 17.2044 39.1349 19.5434 39.3843C20.9468 41.3075 22.4022 43.0539 23.8679 44.5821C20.479 47.7319 17.298 49.4575 15.1358 49.4575C14.668 49.4471 14.2729 49.3536 13.9611 49.1768ZM38.619 41.2555C39.1076 45.2266 38.5047 48.314 37.1013 49.1353C36.7894 49.3224 36.384 49.4055 35.9058 49.4055C33.754 49.4055 30.5626 47.6903 27.1737 44.5613C28.629 43.0331 30.0844 41.2971 31.467 39.374C33.8163 39.1245 36.041 38.7398 38.0785 38.2305C38.3176 39.2804 38.5047 40.2887 38.619 41.2555ZM42.6213 34.3218C41.7273 34.7064 40.7501 35.0494 39.7417 35.3717C39.1492 33.3342 38.3695 31.2135 37.4028 29.0409C38.3592 26.8786 39.1284 24.7684 39.7106 22.7413C40.7397 23.0635 41.7169 23.417 42.6317 23.8016C46.3117 25.3713 48.6922 27.4296 48.6922 29.0617C48.6818 30.6938 46.3013 32.7625 42.6213 34.3218Z" fill="#61DAFB"/>
<path d="M25.7507 33.5014C28.3745 33.5014 30.5014 31.3745 30.5014 28.7507C30.5014 26.127 28.3745 24 25.7507 24C23.127 24 21 26.127 21 28.7507C21 31.3745 23.127 33.5014 25.7507 33.5014Z" fill="#61DAFB"/>
</svg>
