<svg width="45" height="51" viewBox="0 0 45 51" fill="none" xmlns="http://www.w3.org/2000/svg">
<g clip-path="url(#clip0_661_1155)">
<path d="M39.086 10.0148C39.0509 9.75979 38.8275 9.61867 38.6429 9.60312C38.4586 9.58775 34.5588 9.29869 34.5588 9.29869C34.5588 9.29869 31.8504 6.60984 31.5532 6.31223C31.2557 6.01478 30.6748 6.10526 30.4493 6.17163C30.4161 6.18141 29.8576 6.35379 28.9337 6.63971C28.0289 4.03626 26.4322 1.6438 23.6232 1.6438C23.5456 1.6438 23.4658 1.64695 23.386 1.65149C22.5871 0.594986 21.5975 0.135986 20.7427 0.135986C14.1992 0.135986 11.073 8.31607 10.0928 12.4729C7.55015 13.2608 5.74384 13.8209 5.51312 13.8934C4.09385 14.3386 4.04897 14.3833 3.86261 15.7207C3.72236 16.7332 0.00878906 45.4519 0.00878906 45.4519L28.9457 50.8736L44.6247 47.4818C44.6247 47.4818 39.1207 10.2698 39.0861 10.0148H39.086ZM27.3343 7.13434L24.8858 7.89218C24.8867 7.71962 24.8875 7.54985 24.8875 7.36419C24.8875 5.74616 24.6629 4.44339 24.3026 3.41064C25.75 3.59228 26.7139 5.23913 27.3343 7.13434ZM22.5071 3.73149C22.9095 4.73978 23.1712 6.18682 23.1712 8.13949C23.1712 8.2394 23.1703 8.33074 23.1694 8.42314C21.5771 8.91637 19.8467 9.45187 18.1126 9.98912C19.0863 6.23118 20.9115 4.41614 22.5071 3.73149ZM20.563 1.89112C20.8454 1.89112 21.1299 1.98701 21.4022 2.17441C19.3051 3.16123 17.0573 5.64661 16.108 10.6098L12.1108 11.8478C13.2227 8.06212 15.8628 1.89112 20.5628 1.89112H20.563Z" fill="#95BF46"/>
<path d="M38.643 9.60321C38.4588 9.58784 34.559 9.29878 34.559 9.29878C34.559 9.29878 31.8506 6.60993 31.5533 6.31231C31.4421 6.20158 31.292 6.14481 31.1352 6.12036L28.9473 50.8734L44.6249 47.4819C44.6249 47.4819 39.1207 10.2699 39.0861 10.0149C39.051 9.75987 38.8276 9.61875 38.643 9.60321Z" fill="#5E8E3E"/>
<path d="M23.6233 18.2665L21.69 24.0172C21.69 24.0172 19.9962 23.1132 17.9199 23.1132C14.876 23.1132 14.7228 25.0234 14.7228 25.5048C14.7228 28.1313 21.5694 29.1377 21.5694 35.2898C21.5694 40.1301 18.4994 43.2468 14.36 43.2468C9.39276 43.2468 6.85254 40.1554 6.85254 40.1554L8.18256 35.761C8.18256 35.761 10.7937 38.0028 12.997 38.0028C14.4367 38.0028 15.0223 36.8692 15.0223 36.041C15.0223 32.6149 9.40533 32.4621 9.40533 26.8324C9.40533 22.0941 12.8063 17.5088 19.6714 17.5088C22.3165 17.5088 23.6233 18.2665 23.6233 18.2665Z" fill="white"/>
</g>
<defs>
<clipPath id="clip0_661_1155">
<rect width="44.7168" height="51" fill="white"/>
</clipPath>
</defs>
</svg>
