<svg width="51" height="32" viewBox="0 0 51 32" fill="none" xmlns="http://www.w3.org/2000/svg">
<g clip-path="url(#clip0_655_586)">
<path d="M25.212 31.1829C25.0394 31.1829 24.8783 31.1369 24.7286 31.0563L23.1977 30.147C22.9674 30.0203 23.0825 29.9743 23.1517 29.9513C23.4624 29.8477 23.52 29.8246 23.8423 29.6405C23.8768 29.6174 23.9229 29.629 23.9574 29.652L25.1315 30.3541C25.1775 30.3771 25.2351 30.3771 25.2696 30.3541L29.8624 27.6951C29.9085 27.6721 29.9316 27.626 29.9316 27.5685V22.262C29.9316 22.2044 29.9085 22.1585 29.8624 22.1354L25.2696 19.4879C25.2236 19.4648 25.166 19.4648 25.1315 19.4879L20.5387 22.1354C20.4926 22.1584 20.4695 22.2159 20.4695 22.2619V27.5684C20.4695 27.6145 20.4926 27.672 20.5387 27.6951L21.7934 28.4203C22.4725 28.7656 22.8984 28.3627 22.8984 27.9598V22.7224C22.8984 22.6534 22.9559 22.5842 23.0365 22.5842H23.6235C23.6927 22.5842 23.7617 22.6418 23.7617 22.7224V27.9598C23.7617 28.8691 23.2667 29.3987 22.4034 29.3987C22.1387 29.3987 21.9315 29.3987 21.3444 29.1109L20.1358 28.4203C19.8365 28.2477 19.6523 27.9253 19.6523 27.58V22.2735C19.6523 21.9282 19.8365 21.6058 20.1358 21.4332L24.7286 18.7742C25.0164 18.613 25.4078 18.613 25.6955 18.7742L30.2883 21.4332C30.5876 21.6058 30.7719 21.9282 30.7719 22.2735V27.58C30.7719 27.9253 30.5876 28.2477 30.2883 28.4203L25.6955 31.0793C25.5458 31.1484 25.3732 31.1829 25.2121 31.1829H25.212ZM26.6279 27.534C24.6135 27.534 24.1991 26.6131 24.1991 25.8304C24.1991 25.7612 24.2567 25.6922 24.3372 25.6922H24.9358C25.0048 25.6922 25.0624 25.7382 25.0624 25.8074C25.1545 26.4174 25.4193 26.7167 26.6394 26.7167C27.6063 26.7167 28.0208 26.498 28.0208 25.98C28.0208 25.6807 27.9056 25.4621 26.3977 25.3124C25.143 25.1857 24.3603 24.9095 24.3603 23.9081C24.3603 22.9756 25.1431 22.4231 26.4553 22.4231C27.9286 22.4231 28.6538 22.9296 28.746 24.0346C28.746 24.0692 28.7344 24.1037 28.7114 24.1382C28.6883 24.1612 28.6538 24.1842 28.6193 24.1842H28.0207C27.9631 24.1842 27.9056 24.1382 27.8941 24.0807C27.756 23.4476 27.3991 23.2404 26.4553 23.2404C25.3963 23.2404 25.2696 23.6088 25.2696 23.885C25.2696 24.2188 25.4193 24.3224 26.8466 24.5065C28.2624 24.6908 28.9301 24.9555 28.9301 25.9454C28.9186 26.9584 28.0898 27.534 26.6279 27.534Z" fill="#539E43"/>
<path d="M10.9617 10.4289C10.9617 10.2218 10.8466 10.026 10.6624 9.92239L5.78183 7.11378C5.70116 7.06767 5.60913 7.04466 5.5171 7.03311H5.47099C5.37896 7.03311 5.28684 7.06767 5.20626 7.11378L0.325654 9.92239C0.141401 10.026 0.0263672 10.2217 0.0263672 10.4289L0.0379203 17.98C0.0379203 18.0836 0.0954869 18.1872 0.187514 18.2333C0.27964 18.2909 0.394674 18.2909 0.475347 18.2333L3.37609 16.5757C3.56024 16.4721 3.67537 16.2764 3.67537 16.0693V12.5354C3.67537 12.3282 3.79041 12.1325 3.97466 12.029L5.20626 11.3152C5.29839 11.2577 5.40197 11.2346 5.50555 11.2346C5.60913 11.2346 5.71271 11.2577 5.79338 11.3152L7.02499 12.029C7.20924 12.1325 7.32428 12.3281 7.32428 12.5354V16.0693C7.32428 16.2764 7.43941 16.4721 7.62356 16.5757L10.5243 18.2333C10.6164 18.2909 10.7315 18.2909 10.8236 18.2333C10.9157 18.1872 10.9733 18.0836 10.9733 17.98L10.9617 10.4289ZM34.4209 0.0345848C34.3289 -0.0115283 34.2137 -0.0115283 34.1331 0.0345848C34.041 0.0921514 33.9835 0.184178 33.9835 0.287758V7.76992C33.9835 7.83894 33.949 7.90796 33.8799 7.95407C33.8109 7.98853 33.7418 7.98853 33.6727 7.95407L32.4526 7.25192C32.3631 7.20099 32.262 7.1742 32.159 7.1742C32.0561 7.1742 31.9549 7.20099 31.8655 7.25192L26.9849 10.0721C26.8007 10.1757 26.6856 10.3714 26.6856 10.5785V16.2073C26.6856 16.4145 26.8007 16.6103 26.9849 16.7139L31.8655 19.534C31.9549 19.585 32.0561 19.6117 32.159 19.6117C32.262 19.6117 32.3631 19.585 32.4526 19.534L37.3332 16.7139C37.5174 16.6103 37.6325 16.4146 37.6325 16.2073V2.1756C37.6325 1.95689 37.5174 1.76128 37.3332 1.6576L34.421 0.0345848H34.4209ZM33.972 14.3541C33.972 14.4117 33.949 14.4577 33.9029 14.4807L32.2339 15.4476C32.2106 15.459 32.185 15.4649 32.159 15.4649C32.1331 15.4649 32.1075 15.459 32.0842 15.4476L30.4152 14.4807C30.369 14.4577 30.346 14.4001 30.346 14.3541V12.4203C30.346 12.3627 30.369 12.3167 30.4152 12.2937L32.0842 11.3267C32.1075 11.3153 32.1331 11.3094 32.159 11.3094C32.185 11.3094 32.2106 11.3153 32.2339 11.3267L33.9029 12.2937C33.949 12.3166 33.972 12.3743 33.972 12.4203V14.3541ZM50.6628 12.3743C50.847 12.2707 50.9506 12.075 50.9506 11.8677V10.498C50.9506 10.2908 50.8355 10.0951 50.6628 9.99151L45.8167 7.1829C45.7273 7.13199 45.6261 7.10521 45.5232 7.10521C45.4203 7.10521 45.3191 7.13199 45.2297 7.1829L40.3491 10.003C40.1648 10.1065 40.0498 10.3023 40.0498 10.5095V16.1383C40.0498 16.3454 40.1648 16.5412 40.3491 16.6447L45.1951 19.4073C45.3794 19.5109 45.598 19.5109 45.7707 19.4073L48.7059 17.773C48.798 17.7268 48.8556 17.6233 48.8556 17.5197C48.8556 17.4161 48.798 17.3125 48.7059 17.2664L43.8023 14.4462C43.7102 14.3888 43.6527 14.2967 43.6527 14.1931V12.4319C43.6527 12.3283 43.7102 12.2248 43.8023 12.1786L45.3333 11.3038C45.3781 11.2756 45.43 11.2606 45.4829 11.2606C45.5359 11.2606 45.5877 11.2756 45.6326 11.3038L47.1634 12.1786C47.2556 12.2362 47.3131 12.3282 47.3131 12.4319V13.8132C47.3131 13.9168 47.3707 14.0204 47.4627 14.0664C47.5549 14.124 47.6699 14.124 47.762 14.0664L50.6628 12.3743Z" fill="#333333"/>
<path d="M45.448 12.1095C45.4651 12.0983 45.4851 12.0923 45.5055 12.0923C45.526 12.0923 45.546 12.0983 45.563 12.1095L46.4954 12.6505C46.53 12.6734 46.553 12.708 46.553 12.7541V13.8361C46.553 13.8821 46.53 13.9167 46.4954 13.9397L45.563 14.4807C45.546 14.492 45.526 14.4979 45.5055 14.4979C45.4851 14.4979 45.4651 14.492 45.448 14.4807L44.5156 13.9397C44.481 13.9167 44.458 13.8821 44.458 13.8361V12.7541C44.458 12.708 44.481 12.6734 44.5156 12.6505L45.448 12.1095Z" fill="#539E43"/>
<mask id="mask0_655_586" style="mask-type:alpha" maskUnits="userSpaceOnUse" x="13" y="7" width="12" height="13">
<path d="M19.1232 7.20586C19.0338 7.15495 18.9327 7.12817 18.8297 7.12817C18.7268 7.12817 18.6257 7.15495 18.5362 7.20586L13.6902 10.0028C13.5059 10.1064 13.4023 10.3021 13.4023 10.5093V16.1151C13.4023 16.3223 13.5175 16.518 13.6902 16.6216L18.5362 19.4187C18.6257 19.4697 18.7268 19.4964 18.8297 19.4964C18.9327 19.4964 19.0338 19.4697 19.1232 19.4187L23.9694 16.6216C24.1536 16.518 24.2572 16.3223 24.2572 16.1151V10.5094C24.2572 10.3022 24.142 10.1065 23.9694 10.0029L19.1232 7.20586Z" fill="white"/>
</mask>
<g mask="url(#mask0_655_586)">
<path d="M19.1232 7.20586C19.0338 7.15495 18.9327 7.12817 18.8297 7.12817C18.7268 7.12817 18.6257 7.15495 18.5362 7.20586L13.6902 10.0028C13.5059 10.1064 13.4023 10.3021 13.4023 10.5093V16.1151C13.4023 16.3223 13.5175 16.518 13.6902 16.6216L18.5362 19.4187C18.6257 19.4697 18.7268 19.4964 18.8297 19.4964C18.9327 19.4964 19.0338 19.4697 19.1232 19.4187L23.9694 16.6216C24.1536 16.518 24.2572 16.3223 24.2572 16.1151V10.5094C24.2572 10.3022 24.142 10.1065 23.9694 10.0029L19.1232 7.20586Z" fill="url(#paint0_linear_655_586)"/>
<path d="M23.9808 10.0028L19.1117 7.20576C19.0639 7.1816 19.0137 7.16231 18.962 7.14819L13.5059 16.4951C13.5511 16.5503 13.6056 16.597 13.6671 16.6332L18.5362 19.4304C18.6743 19.511 18.8354 19.534 18.985 19.4879L24.1075 10.1181C24.0729 10.072 24.0268 10.0374 23.9808 10.0029V10.0028Z" fill="url(#paint1_linear_655_586)"/>
<path fill-rule="evenodd" clip-rule="evenodd" d="M23.9928 16.6219C24.1309 16.5413 24.2345 16.4032 24.2806 16.2536L18.9393 7.13694C18.8012 7.11393 18.6515 7.12539 18.525 7.20596L13.6904 9.99167L18.9048 19.4996C18.9806 19.4872 19.0543 19.464 19.1235 19.4306L23.9927 16.622L23.9928 16.6219Z" fill="url(#paint2_linear_655_586)"/>
<path fill-rule="evenodd" clip-rule="evenodd" d="M23.9923 16.6218L19.1347 19.419C19.0662 19.4539 18.9922 19.4773 18.916 19.488L19.0081 19.6607L24.3952 16.5413V16.4722L24.2571 16.2419C24.2341 16.4031 24.1305 16.5412 23.9923 16.6218Z" fill="url(#paint3_linear_655_586)"/>
<path fill-rule="evenodd" clip-rule="evenodd" d="M23.9923 16.6218L19.1347 19.419C19.0662 19.4539 18.9922 19.4773 18.916 19.488L19.0081 19.6607L24.3952 16.5413V16.4722L24.2571 16.2419C24.2341 16.4031 24.1305 16.5412 23.9923 16.6218Z" fill="url(#paint4_linear_655_586)"/>
</g>
</g>
<defs>
<linearGradient id="paint0_linear_655_586" x1="20.8041" y1="9.29101" x2="15.4923" y2="17.6373" gradientUnits="userSpaceOnUse">
<stop stop-color="#41873F"/>
<stop offset="0.3288" stop-color="#418B3D"/>
<stop offset="0.6352" stop-color="#419637"/>
<stop offset="0.9319" stop-color="#3FA92D"/>
<stop offset="1" stop-color="#3FAE2A"/>
</linearGradient>
<linearGradient id="paint1_linear_655_586" x1="18.0939" y1="13.9688" x2="31.3969" y2="6.74127" gradientUnits="userSpaceOnUse">
<stop offset="0.1376" stop-color="#41873F"/>
<stop offset="0.4032" stop-color="#54A044"/>
<stop offset="0.7136" stop-color="#66B848"/>
<stop offset="0.9081" stop-color="#6CC04A"/>
</linearGradient>
<linearGradient id="paint2_linear_655_586" x1="13.2256" y1="13.3127" x2="24.4393" y2="13.3127" gradientUnits="userSpaceOnUse">
<stop offset="0.09192" stop-color="#6CC04A"/>
<stop offset="0.2864" stop-color="#66B848"/>
<stop offset="0.5968" stop-color="#54A044"/>
<stop offset="0.8624" stop-color="#41873F"/>
</linearGradient>
<linearGradient id="paint3_linear_655_586" x1="13.2253" y1="17.9607" x2="24.4389" y2="17.9607" gradientUnits="userSpaceOnUse">
<stop offset="0.09192" stop-color="#6CC04A"/>
<stop offset="0.2864" stop-color="#66B848"/>
<stop offset="0.5968" stop-color="#54A044"/>
<stop offset="0.8624" stop-color="#41873F"/>
</linearGradient>
<linearGradient id="paint4_linear_655_586" x1="26.0725" y1="9.02605" x2="23.2317" y2="23.912" gradientUnits="userSpaceOnUse">
<stop stop-color="#41873F"/>
<stop offset="0.3288" stop-color="#418B3D"/>
<stop offset="0.6352" stop-color="#419637"/>
<stop offset="0.9319" stop-color="#3FA92D"/>
<stop offset="1" stop-color="#3FAE2A"/>
</linearGradient>
<clipPath id="clip0_655_586">
<rect width="51" height="31.2732" fill="white"/>
</clipPath>
</defs>
</svg>
