<svg width="51" height="49" viewBox="0 0 51 49" fill="none" xmlns="http://www.w3.org/2000/svg">
<path d="M17.5957 18.1214C19.4215 23.7047 20.1132 33.6649 25.4522 33.6649C25.8587 33.6649 26.2693 33.6251 26.6816 33.5467C21.8282 32.4151 21.253 22.5633 18.2915 17.4614C18.0593 17.6725 17.8287 17.8924 17.5957 18.1214Z" fill="url(#paint0_linear_656_1041)"/>
<path d="M18.291 17.4616C21.2526 22.5635 21.8278 32.4153 26.6811 33.5469C27.0624 33.4769 27.4445 33.3709 27.8275 33.2373C23.4711 31.1027 22.2669 21.5361 18.9037 16.9304C18.7 17.0999 18.4955 17.2776 18.291 17.4616Z" fill="url(#paint1_linear_656_1041)"/>
<path d="M22.5583 14.4275C22.1526 14.4275 21.7411 14.4672 21.3281 14.5457C20.2478 14.7493 19.1504 15.2145 18.0439 15.9184C18.3462 16.2166 18.6338 16.558 18.9042 16.9303C20.0294 15.9967 21.1472 15.3066 22.261 14.8919C22.6789 14.7371 23.0953 14.6206 23.5132 14.544C23.2118 14.4674 22.894 14.4275 22.5583 14.4275Z" fill="#14559A"/>
<path d="M31.2282 31.2695C31.6739 30.9152 32.1203 30.5232 32.5676 30.0956C30.7125 24.5382 30.0485 14.4355 24.6721 14.4355C24.2875 14.4355 23.8997 14.4714 23.5127 14.5431C28.4101 15.7611 29.0374 26.4162 31.2282 31.2695Z" fill="url(#paint2_linear_656_1041)"/>
<path d="M23.5135 14.5435C23.212 14.4669 22.8943 14.427 22.5586 14.427L24.6728 14.4347C24.2883 14.4347 23.9005 14.4706 23.5135 14.5431" fill="#3092C4"/>
<path d="M31.1341 32.4502C30.9239 32.2498 30.7243 32.0298 30.528 31.7952C29.6236 32.4355 28.7225 32.9211 27.8271 33.2372C28.1457 33.3929 28.4797 33.5086 28.8342 33.5803C29.1087 33.6363 29.3931 33.665 29.692 33.665C30.6966 33.665 31.491 33.5461 32.1672 33.2218C31.7949 33.0205 31.4535 32.7598 31.1341 32.4502Z" fill="#1969BC"/>
<path d="M22.2607 14.8928C26.6473 17.187 27.0286 27.5765 30.5286 31.7952C30.7633 31.6298 30.9955 31.4547 31.2277 31.2697C29.0369 26.4163 28.4103 15.7604 23.5138 14.5432C23.0959 14.6214 22.6787 14.7372 22.2607 14.8928Z" fill="url(#paint3_linear_656_1041)"/>
<path d="M18.9043 16.9304C22.2675 21.5361 23.4717 31.1027 27.8281 33.2373C28.7234 32.9212 29.6245 32.4356 30.5289 31.7953C27.0288 27.5766 26.6475 17.1871 22.261 14.8928C21.1472 15.3067 20.0294 15.9967 18.9043 16.9304Z" fill="url(#paint4_linear_656_1041)"/>
<path d="M15.4442 17.9872C14.917 19.1792 14.3785 20.7458 13.7275 22.7908C15.0221 20.9666 16.3127 19.395 17.5959 18.1216C17.4191 17.5782 17.2293 17.0771 17.0248 16.6306C16.5001 17.0323 15.9713 17.4845 15.4442 17.9872Z" fill="url(#paint5_linear_656_1041)"/>
<path d="M17.4922 16.2869C17.3374 16.3977 17.1818 16.5109 17.0254 16.6307C17.2299 17.0772 17.4189 17.5782 17.5957 18.1216C17.8287 17.8935 18.06 17.6727 18.2914 17.4617C18.043 17.0348 17.779 16.6404 17.4922 16.2869Z" fill="#2B74B1"/>
<path d="M18.0436 15.9185C17.8595 16.035 17.6762 16.158 17.4912 16.2867C17.778 16.6403 18.042 17.0346 18.2913 17.4624C18.4958 17.2774 18.7003 17.099 18.904 16.9304C18.6335 16.5581 18.3459 16.2166 18.0436 15.9185Z" fill="#125A9E"/>
<path d="M47.9638 14.0022C45.4829 23.5696 40.3012 31.2542 35.9571 33.1916H35.9488C35.8698 33.2275 35.7916 33.2601 35.7142 33.2918C35.7035 33.2982 35.6939 33.299 35.6856 33.3029C35.6628 33.3121 35.6417 33.3192 35.6188 33.3283C35.6082 33.3348 35.5985 33.3369 35.5887 33.3408C35.5521 33.3538 35.5162 33.3649 35.4804 33.3792C35.4649 33.3857 35.4503 33.3897 35.4355 33.3949C35.4192 33.4013 35.4004 33.4073 35.3817 33.4125C35.3655 33.4189 35.3484 33.4236 35.3296 33.4307C35.3141 33.4372 35.2978 33.4399 35.2832 33.4464C35.2514 33.4556 35.2221 33.4633 35.1903 33.4744C35.1772 33.4744 35.1651 33.4815 35.1512 33.4849C35.1316 33.4913 35.1096 33.496 35.0884 33.5018C35.0738 33.5083 35.0616 33.5104 35.0461 33.5136C35.024 33.5201 34.9996 33.526 34.9776 33.5312C34.9483 33.5377 34.9222 33.5437 34.8945 33.5495C35.0909 33.622 35.2954 33.6586 35.5162 33.6586C39.6355 33.6586 43.7889 26.2764 50.6612 14H47.9628L47.9638 14.0022Z" fill="url(#paint6_linear_656_1041)"/>
<path d="M12.8326 14.8157C12.8351 14.8157 12.8384 14.8092 12.84 14.8092C12.8432 14.8092 12.8482 14.8092 12.8498 14.8028H12.855C12.8778 14.795 12.899 14.7858 12.9218 14.7774C12.9276 14.7774 12.9307 14.7774 12.9349 14.7709C12.9407 14.7709 12.9463 14.7644 12.952 14.7636C12.9765 14.7559 13.0009 14.7467 13.0237 14.7382H13.0276C13.0822 14.7219 13.1327 14.7017 13.1856 14.6828C13.1931 14.6828 13.2003 14.6764 13.2092 14.6764C13.2313 14.6693 13.2541 14.6614 13.2769 14.6562C13.2875 14.6497 13.2981 14.6497 13.3078 14.6463C13.3314 14.6392 13.3543 14.6313 13.3763 14.6261C13.3861 14.6261 13.395 14.6197 13.4023 14.619C13.4781 14.5982 13.5531 14.5786 13.6288 14.5603C13.6395 14.5603 13.6484 14.5539 13.6598 14.5532C13.6817 14.5468 13.7022 14.5434 13.7258 14.5402C13.7356 14.5337 13.747 14.5337 13.7584 14.5303C13.7803 14.5239 13.8015 14.5232 13.8252 14.5179H13.8407C13.8863 14.5087 13.9327 14.501 13.9784 14.4925H14.0061C14.028 14.486 14.0476 14.4854 14.0696 14.4813C14.0817 14.4813 14.0941 14.4749 14.1055 14.4749C14.1258 14.4749 14.1462 14.4684 14.1665 14.4657C14.1772 14.4657 14.1877 14.4657 14.2 14.4592C14.248 14.4528 14.2977 14.4502 14.3482 14.4462C14.2057 14.4324 14.059 14.4233 13.9099 14.4233C9.27084 14.4233 2.87926 23.031 0 34.1781H0.554833C1.4763 32.5348 2.30406 30.9803 3.06095 29.5211C5.07741 21.6256 9.18448 16.241 12.8329 14.8144" fill="url(#paint7_linear_656_1041)"/>
<path d="M15.4434 17.9872C15.9705 17.4845 16.4993 17.0323 17.0239 16.6307C16.9042 16.3683 16.7804 16.1255 16.6475 15.9031C16.2231 16.418 15.8353 17.0975 15.4434 17.9872Z" fill="#0D82CA"/>
<path d="M15.8253 14.8809C16.1283 15.1351 16.3996 15.4847 16.6481 15.9035C16.7264 15.8073 16.8054 15.7185 16.8877 15.6354C16.5431 15.3136 16.1707 15.0496 15.7666 14.8508C15.7829 14.8599 15.7992 14.8671 15.8161 14.8743C15.8161 14.8743 15.8226 14.8808 15.8253 14.8808" fill="#0D82CA"/>
<path d="M3.06055 29.522C7.29064 21.3705 9.29488 16.2116 12.8324 14.8152C9.18489 16.2427 5.07701 21.6272 3.06055 29.522Z" fill="url(#paint8_linear_656_1041)"/>
<path d="M16.887 15.6353C16.8047 15.7192 16.7265 15.8072 16.6475 15.9033C16.7803 16.1257 16.9041 16.3677 17.0247 16.6309C17.1811 16.5111 17.3367 16.3978 17.4915 16.2871C17.3001 16.0508 17.098 15.8316 16.887 15.6353Z" fill="#127BCA"/>
<path d="M4.98154 34.1425C4.95547 34.1489 4.9294 34.1489 4.90496 34.1517H4.89028C4.86825 34.1517 4.84544 34.1581 4.82511 34.1581H4.81449C4.76156 34.1646 4.70939 34.1646 4.65887 34.1686H4.64258C8.924 34.0488 10.881 31.9052 11.8521 28.7962C12.5903 26.4392 13.1965 24.4537 13.7277 22.7876C11.9344 25.3116 10.1331 28.3204 8.32191 31.691C7.44852 33.3156 6.1205 33.9942 4.98151 34.1393" fill="url(#paint9_linear_656_1041)"/>
<path d="M4.98145 34.1407C6.12044 33.9956 7.44846 33.3178 8.32185 31.6924C10.133 28.3227 11.9352 25.3131 13.7268 22.789C14.3786 20.7432 14.9163 19.1773 15.4442 17.9854C11.8733 21.3844 8.28844 27.0363 4.98145 34.1391" fill="url(#paint10_linear_656_1041)"/>
<path d="M3.0608 29.5222C2.30395 30.9814 1.47618 32.5359 0.554688 34.1792H2.1687C2.38217 32.5473 2.68525 30.9911 3.0608 29.523" fill="#05A1E6"/>
<path d="M14.1999 14.4633C14.1868 14.4633 14.1771 14.4697 14.1657 14.4697C14.1461 14.4762 14.1257 14.4762 14.1054 14.4783C14.0933 14.4783 14.0818 14.4783 14.0696 14.4847C14.0475 14.4912 14.0272 14.4918 14.006 14.4959C13.9962 14.4959 13.9865 14.4959 13.9783 14.5023C13.9318 14.5101 13.8862 14.5186 13.8406 14.5264H13.8251C13.8015 14.5329 13.7803 14.5363 13.7583 14.5395C13.7469 14.546 13.7355 14.546 13.7249 14.5486C13.7029 14.555 13.6809 14.5578 13.6597 14.5616C13.6482 14.5681 13.6394 14.5681 13.6287 14.5687C13.553 14.587 13.478 14.6065 13.4022 14.6274C13.3942 14.6274 13.386 14.6338 13.3762 14.6351C13.3534 14.6416 13.3313 14.6482 13.3077 14.6553C13.2979 14.6618 13.2865 14.6618 13.2768 14.6644C13.254 14.6708 13.2311 14.6775 13.2091 14.6846C13.2003 14.6846 13.1929 14.691 13.1847 14.691C13.1326 14.7106 13.0812 14.7301 13.0275 14.7465C13.0047 14.7536 12.9802 14.7627 12.9558 14.7712C12.9459 14.7777 12.937 14.7791 12.9257 14.7836C12.9028 14.7907 12.88 14.7999 12.8588 14.8084C12.8508 14.8149 12.8426 14.8155 12.8369 14.8189C9.29932 16.2153 7.29507 21.3742 3.06498 29.5257C2.68939 30.9938 2.3855 32.55 2.17285 34.1818H2.39935C3.03728 34.1818 3.21734 34.1754 3.95141 34.1754H3.98889H4.09806H4.13554H4.14616H4.18364H4.20482H4.21949H4.24882H4.34007H4.43132H4.50791H4.52824H4.66267C4.71319 34.1689 4.76533 34.1689 4.81829 34.1649H4.82807C4.8501 34.1649 4.87206 34.1584 4.89325 34.1584H4.90869C4.93229 34.1584 4.9592 34.152 4.98528 34.1492C8.29228 27.0464 11.8771 21.3946 15.4481 17.9955C15.8408 17.1058 16.2278 16.4263 16.6514 15.9123C16.4037 15.4935 16.1324 15.1432 15.8294 14.8889C15.8294 14.8889 15.8211 14.8889 15.8205 14.8825C15.8033 14.8754 15.7871 14.8668 15.77 14.8583C15.7528 14.8491 15.7382 14.842 15.7203 14.8329C15.7048 14.8265 15.6869 14.8179 15.6714 14.8095C15.6503 14.803 15.6331 14.7938 15.6144 14.7853C15.5989 14.7789 15.5851 14.7723 15.5696 14.7658C15.5377 14.7534 15.506 14.7404 15.4759 14.7267C15.462 14.7202 15.449 14.7168 15.4359 14.7117C15.4139 14.7038 15.3887 14.6934 15.3658 14.6836C15.3544 14.6772 15.3414 14.6759 15.3284 14.6712C15.295 14.6601 15.2624 14.6484 15.2314 14.638H15.2233C15.1858 14.6255 15.1492 14.6165 15.1109 14.606C15.102 14.5996 15.0946 14.5996 15.0857 14.5983C15.0522 14.5891 15.0229 14.58 14.9912 14.5715C14.9831 14.5715 14.9757 14.5651 14.9692 14.5651C14.8926 14.5449 14.8136 14.5286 14.7337 14.5136C14.7255 14.5136 14.7175 14.5072 14.7093 14.5072C14.6751 14.5007 14.6417 14.4947 14.6075 14.4909C14.5992 14.4844 14.5944 14.4844 14.5871 14.4844C14.5464 14.4779 14.5065 14.4733 14.4665 14.4687H14.4454C14.4128 14.4623 14.3827 14.4616 14.3525 14.4583C14.3011 14.4647 14.2523 14.4675 14.2042 14.472" fill="url(#paint11_linear_656_1041)"/>
<path d="M38.2732 19.2989C37.4592 21.906 36.8001 24.0569 36.2266 25.8265C38.4597 22.7534 40.6595 18.8874 42.7542 14.426C40.3108 15.1934 39.0072 16.9501 38.2732 19.2989Z" fill="url(#paint12_linear_656_1041)"/>
<path d="M36.2976 33.0286C36.1835 33.0866 36.0695 33.1418 35.957 33.1916C40.3012 31.2541 45.4829 23.5696 47.9638 14.0022H47.4611C41.7612 24.1839 39.928 30.9999 36.2976 33.0286Z" fill="url(#paint13_linear_656_1041)"/>
<path d="M33.4609 32.1732C34.406 31.0195 35.1759 29.0585 36.227 25.8264C35.0146 27.4917 33.7942 28.9232 32.5729 30.0907C32.5729 30.0972 32.5729 30.0972 32.5664 30.1012C32.8329 30.8997 33.1253 31.6044 33.4586 32.173" fill="#079AE1"/>
<path d="M33.4608 32.1733C33.1389 32.5661 32.7984 32.8651 32.4196 33.0867C32.3365 33.1349 32.2526 33.1804 32.167 33.2219C32.5671 33.4378 33.0037 33.5821 33.4925 33.6399C33.5642 33.647 33.6351 33.6536 33.7093 33.6588H33.7223C33.7556 33.6588 33.7908 33.6588 33.8266 33.6652H33.841H33.9477H34.0627H34.0985H34.18C34.1931 33.6652 34.2067 33.6652 34.2197 33.6588C34.2452 33.6588 34.2719 33.6588 34.298 33.6523H34.3072H34.3365C34.3632 33.6523 34.3925 33.6459 34.4212 33.6431H34.4277C34.4362 33.6431 34.4453 33.6367 34.4537 33.6367C34.4837 33.6302 34.515 33.6275 34.5442 33.6229H34.5709C34.6042 33.6165 34.6385 33.6124 34.6727 33.606H34.6792H34.689C34.7575 33.5929 34.8243 33.5799 34.8919 33.563C34.3313 33.3577 33.8621 32.8737 33.458 32.1844" fill="#1969BC"/>
<path d="M25.4521 33.6651C25.8587 33.6651 26.2694 33.6253 26.6816 33.5461C27.0629 33.4769 27.445 33.3709 27.8279 33.2373C28.1465 33.393 28.4805 33.5087 28.8341 33.5803C29.1087 33.6364 29.3938 33.6651 29.6929 33.6651H25.4521Z" fill="#1E5CB3"/>
<path d="M29.6933 33.6651C30.697 33.6651 31.4922 33.5462 32.1677 33.2219C32.5677 33.4378 33.0044 33.582 33.4932 33.6399C33.5649 33.647 33.6358 33.6536 33.7099 33.6588H33.723C33.7563 33.6588 33.7915 33.6588 33.8273 33.6653H33.8423H33.9491H29.6904L29.6933 33.6651Z" fill="#1E5CB3"/>
<path d="M33.9512 33.665H34.0669H34.1027H34.1834C34.1971 33.665 34.2101 33.665 34.2232 33.6586C34.2486 33.6586 34.2753 33.6586 34.3022 33.6521H34.3108H34.3408C34.3675 33.6521 34.3968 33.6457 34.4247 33.6431H34.4318C34.4404 33.6431 34.4488 33.6366 34.4572 33.6366C34.4872 33.6302 34.5185 33.6276 34.5476 33.6229C34.5575 33.6229 34.5652 33.6229 34.5757 33.6164C34.6089 33.61 34.6433 33.6066 34.6775 33.6002H34.684H34.6938C34.7623 33.5871 34.8291 33.5741 34.8967 33.5571C35.093 33.6296 35.2975 33.6663 35.5183 33.6663L33.9524 33.6728L33.9512 33.665Z" fill="#1D60B5"/>
<path d="M32.5695 30.1014V30.095C32.1222 30.5227 31.6758 30.9146 31.2301 31.269C30.9971 31.4539 30.7649 31.6291 30.5303 31.7945C30.7266 32.0291 30.9262 32.2491 31.1364 32.4496C31.4558 32.7591 31.7971 33.0199 32.1695 33.2211C32.2542 33.1794 32.339 33.1339 32.4212 33.0858C32.8009 32.8642 33.1415 32.5652 33.4633 32.1725C33.13 31.6039 32.8376 30.8991 32.5711 30.1007" fill="#175FAB"/>
<path d="M45.8692 14.0022H43.7558H43.5456H43.3468H43.3391C43.2022 14.0087 43.0694 14.0133 42.9382 14.0218C42.8763 14.1546 42.8128 14.2874 42.7516 14.421C40.657 18.8824 38.4572 22.7484 36.224 25.8216C35.1738 29.0536 34.4031 31.0147 33.458 32.1683C33.8621 32.8576 34.3322 33.3423 34.8911 33.5476C34.9074 33.5412 34.9204 33.5412 34.9351 33.5378H34.9442C34.954 33.5378 34.9645 33.5313 34.9751 33.5313C34.9979 33.5249 35.0224 33.5208 35.0452 33.5137C35.0599 33.5073 35.072 33.5066 35.0868 33.502C35.108 33.4955 35.1299 33.4908 35.1495 33.4857C35.1626 33.4792 35.1755 33.4771 35.1886 33.4745C35.2212 33.464 35.2505 33.4563 35.2815 33.4465C35.2962 33.44 35.3116 33.4347 35.3279 33.4308C35.3459 33.4244 35.3638 33.4197 35.3801 33.4119C35.3988 33.4055 35.4176 33.4021 35.4339 33.395C35.4485 33.3885 35.464 33.3845 35.4778 33.3787C35.5145 33.3656 35.5504 33.3546 35.587 33.3402C35.5969 33.3402 35.6066 33.3312 35.6172 33.3291C35.6392 33.3199 35.662 33.3128 35.684 33.303C35.6921 33.2966 35.7019 33.2959 35.7125 33.2925C35.7891 33.2606 35.8681 33.228 35.9471 33.1924H35.9554C36.0678 33.1428 36.1819 33.0872 36.2951 33.0294C39.9264 31.0007 41.7595 24.1847 47.4594 14.003H45.8674L45.8692 14.0022Z" fill="url(#paint14_linear_656_1041)"/>
<path d="M14.3486 14.4497C14.3577 14.4497 14.3658 14.4497 14.3747 14.4562C14.3967 14.4562 14.4187 14.4562 14.4407 14.4633H14.4627C14.5026 14.4697 14.5426 14.4731 14.5833 14.4789C14.5907 14.4789 14.5972 14.4789 14.6036 14.4854C14.637 14.4918 14.6713 14.4971 14.7055 14.5023C14.7129 14.5023 14.7226 14.5088 14.7308 14.5088C14.809 14.5244 14.8888 14.5407 14.9654 14.5609C14.9727 14.5609 14.9801 14.5674 14.9866 14.5674C15.0192 14.5751 15.0485 14.585 15.0811 14.5941C15.0909 14.5941 15.0982 14.6005 15.1072 14.602C15.1455 14.6118 15.1813 14.6215 15.2188 14.6339C15.2204 14.6339 15.2227 14.6339 15.227 14.6404C15.2588 14.6501 15.2914 14.6625 15.3248 14.6736C15.3379 14.6801 15.35 14.6828 15.3623 14.686C15.3851 14.6959 15.4104 14.7056 15.4323 14.7147C15.4454 14.7147 15.4584 14.7238 15.4722 14.7284C15.5023 14.7422 15.5341 14.7545 15.5651 14.7675C15.5814 14.774 15.5952 14.7813 15.6107 14.7871C15.6287 14.7963 15.6474 14.8047 15.6669 14.8112C15.6832 14.819 15.7011 14.8275 15.7166 14.8347C15.7337 14.8439 15.75 14.851 15.7663 14.8601C16.1704 15.0589 16.5427 15.3237 16.8874 15.6447C17.0145 15.5111 17.1473 15.3913 17.285 15.2838C16.5313 14.7493 15.6775 14.4446 14.6925 14.4446C14.5784 14.4446 14.4644 14.451 14.3487 14.4596" fill="#7DCBEC"/>
<path d="M16.8867 15.6351C17.0977 15.8314 17.2998 16.0506 17.4912 16.2869C17.6762 16.1582 17.8595 16.0343 18.0436 15.9187C17.8025 15.6775 17.5483 15.4608 17.2835 15.2742C17.1458 15.3809 17.0138 15.5015 16.8867 15.6351Z" fill="#5EC5ED"/>
<path d="M14.3485 14.4494C14.4642 14.4396 14.5782 14.4356 14.6923 14.4356C15.6773 14.4356 16.5312 14.7403 17.2848 15.2739C18.08 14.6466 19.0413 14.4274 20.3767 14.4274H13.9102C14.0593 14.4274 14.2051 14.4364 14.3485 14.4494Z" fill="url(#paint15_linear_656_1041)"/>
<path d="M20.3761 14.4275C19.0407 14.4275 18.0794 14.6467 17.2842 15.274C17.5482 15.4606 17.8023 15.6773 18.0435 15.9185C19.1507 15.2145 20.2474 14.7485 21.3285 14.5448C21.7408 14.4674 22.1522 14.4275 22.5579 14.4275H20.3761Z" fill="url(#paint16_linear_656_1041)"/>
<path d="M36.2265 25.828C36.8009 24.0568 37.4584 21.9068 38.2739 19.2988C39.0088 16.9491 40.3099 15.1925 42.7533 14.4259C42.8179 14.2947 42.8788 14.1594 42.9416 14.0266C38.9583 14.2654 37.0966 16.2916 36.1597 19.2923C34.5213 24.531 33.5289 27.9268 32.5732 30.0907C33.7937 28.924 35.0142 27.4917 36.2265 25.828Z" fill="url(#paint17_linear_656_1041)"/>
<path d="M42.0709 32.2695H41.6195V33.6725H41.4354V32.2695H40.9824V32.1025H42.0709V32.2695Z" fill="black"/>
<path d="M43.9188 33.6722H43.7355V32.618C43.7355 32.5349 43.742 32.4331 43.7505 32.3133C43.7316 32.385 43.716 32.4347 43.7016 32.4664L43.1672 33.6722H43.0775L42.5414 32.4754C42.5258 32.4422 42.5102 32.3882 42.4932 32.3133H42.4868C42.4932 32.3765 42.4953 32.4787 42.4953 32.6205V33.6722H42.3193V32.1023H42.5621L43.0436 33.1981C43.0801 33.2804 43.1029 33.3439 43.1145 33.3863H43.1216C43.1536 33.2999 43.1796 33.2355 43.1974 33.1932L43.6887 32.1023H43.9201V33.6722H43.9188Z" fill="black"/>
<defs>
<linearGradient id="paint0_linear_656_1041" x1="22.1384" y1="14.2992" x2="22.1384" y2="38.4652" gradientUnits="userSpaceOnUse">
<stop stop-color="#0994DC"/>
<stop offset="0.350006" stop-color="#66CEF5"/>
<stop offset="0.846161" stop-color="#127BCA"/>
<stop offset="1" stop-color="#127BCA"/>
</linearGradient>
<linearGradient id="paint1_linear_656_1041" x1="23.0593" y1="13.6875" x2="23.0593" y2="38.4694" gradientUnits="userSpaceOnUse">
<stop stop-color="#0E76BC"/>
<stop offset="0.360001" stop-color="#36AEE8"/>
<stop offset="0.846161" stop-color="#00ADEF"/>
<stop offset="1" stop-color="#00ADEF"/>
</linearGradient>
<linearGradient id="paint2_linear_656_1041" x1="28.0401" y1="33.1081" x2="28.0401" y2="13.3895" gradientUnits="userSpaceOnUse">
<stop stop-color="#1C63B7"/>
<stop offset="0.5" stop-color="#33BDF2"/>
<stop offset="1" stop-color="#33BDF2" stop-opacity="0.419608"/>
</linearGradient>
<linearGradient id="paint3_linear_656_1041" x1="26.7443" y1="11.1765" x2="26.7443" y2="36.9065" gradientUnits="userSpaceOnUse">
<stop stop-color="#166AB8"/>
<stop offset="0.399994" stop-color="#36AEE8"/>
<stop offset="0.846161" stop-color="#0798DD"/>
<stop offset="1" stop-color="#0798DD"/>
</linearGradient>
<linearGradient id="paint4_linear_656_1041" x1="24.7164" y1="11.3118" x2="24.7164" y2="38.6722" gradientUnits="userSpaceOnUse">
<stop stop-color="#124379"/>
<stop offset="0.389999" stop-color="#1487CB"/>
<stop offset="0.780228" stop-color="#165197"/>
<stop offset="1" stop-color="#165197"/>
</linearGradient>
<linearGradient id="paint5_linear_656_1041" x1="13.7276" y1="19.7108" x2="17.5959" y2="19.7108" gradientUnits="userSpaceOnUse">
<stop stop-color="#33BDF2" stop-opacity="0.698039"/>
<stop offset="1" stop-color="#1DACD8"/>
</linearGradient>
<linearGradient id="paint6_linear_656_1041" x1="42.7794" y1="32.6141" x2="42.7794" y2="13.4054" gradientUnits="userSpaceOnUse">
<stop stop-color="#136AB4"/>
<stop offset="0.6" stop-color="#59CAF5" stop-opacity="0.54902"/>
<stop offset="1" stop-color="#59CAF5" stop-opacity="0.235294"/>
</linearGradient>
<linearGradient id="paint7_linear_656_1041" x1="-0.00010917" y1="24.3007" x2="14.3481" y2="24.3007" gradientUnits="userSpaceOnUse">
<stop stop-color="#05A1E6" stop-opacity="0.247059"/>
<stop offset="1" stop-color="#05A1E6"/>
</linearGradient>
<linearGradient id="paint8_linear_656_1041" x1="7.94633" y1="33.0977" x2="7.94633" y2="13.4296" gradientUnits="userSpaceOnUse">
<stop stop-color="#318ED5"/>
<stop offset="1" stop-color="#38A7E4"/>
</linearGradient>
<linearGradient id="paint9_linear_656_1041" x1="9.18499" y1="33.1671" x2="9.18499" y2="14.0486" gradientUnits="userSpaceOnUse">
<stop stop-color="#05A1E6"/>
<stop offset="1" stop-color="#05A1E6" stop-opacity="0.54902"/>
</linearGradient>
<linearGradient id="paint10_linear_656_1041" x1="10.2128" y1="34.1424" x2="10.2128" y2="17.987" gradientUnits="userSpaceOnUse">
<stop stop-color="#1959A6"/>
<stop offset="0.5" stop-color="#05A1E6"/>
<stop offset="0.917587" stop-color="#7EC5EA"/>
<stop offset="1" stop-color="#7EC5EA"/>
</linearGradient>
<linearGradient id="paint11_linear_656_1041" x1="10.8316" y1="33.1104" x2="5.35538" y2="16.3746" gradientUnits="userSpaceOnUse">
<stop stop-color="#165096"/>
<stop offset="1" stop-color="#0D82CA"/>
</linearGradient>
<linearGradient id="paint12_linear_656_1041" x1="39.49" y1="23.2042" x2="39.49" y2="14.0499" gradientUnits="userSpaceOnUse">
<stop stop-color="#05A1E6"/>
<stop offset="0.873627" stop-color="#0495D6"/>
<stop offset="1" stop-color="#0495D6"/>
</linearGradient>
<linearGradient id="paint13_linear_656_1041" x1="43.793" y1="13.2036" x2="35.2612" y2="32.1467" gradientUnits="userSpaceOnUse">
<stop stop-color="#38A7E4" stop-opacity="0.329412"/>
<stop offset="0.961533" stop-color="#0E88D3"/>
<stop offset="1" stop-color="#0E88D3"/>
</linearGradient>
<linearGradient id="paint14_linear_656_1041" x1="40.461" y1="13.9444" x2="40.461" y2="33.9155" gradientUnits="userSpaceOnUse">
<stop stop-color="#168CD4"/>
<stop offset="0.5" stop-color="#1C87CC"/>
<stop offset="1" stop-color="#154B8D"/>
</linearGradient>
<linearGradient id="paint15_linear_656_1041" x1="14.9884" y1="13.5338" x2="15.0749" y2="15.6283" gradientUnits="userSpaceOnUse">
<stop stop-color="#97D6EE"/>
<stop offset="0.703293" stop-color="#55C1EA"/>
<stop offset="1" stop-color="#55C1EA"/>
</linearGradient>
<linearGradient id="paint16_linear_656_1041" x1="17.6476" y1="15.8245" x2="18.0387" y2="13.6058" gradientUnits="userSpaceOnUse">
<stop stop-color="#7ACCEC"/>
<stop offset="1" stop-color="#3FB7ED"/>
</linearGradient>
<linearGradient id="paint17_linear_656_1041" x1="37.7571" y1="15.0487" x2="37.7571" y2="34.5825" gradientUnits="userSpaceOnUse">
<stop stop-color="#1DA7E7"/>
<stop offset="1" stop-color="#37ABE7" stop-opacity="0"/>
</linearGradient>
</defs>
</svg>
