<svg width="46" height="51" viewBox="0 0 46 51" fill="none" xmlns="http://www.w3.org/2000/svg">
<g clip-path="url(#clip0_656_1104)">
<path d="M45.2525 15.001C45.2521 14.1457 45.0692 13.39 44.6993 12.7414C44.336 12.1037 43.7919 11.5691 43.062 11.1464C37.0373 7.67258 31.0068 4.20936 24.9841 0.731966C23.3604 -0.20542 21.7862 -0.171246 20.1745 0.779596C17.7765 2.19382 5.77057 9.07229 2.19296 11.1445C0.719595 11.9974 0.00265598 13.3027 0.00230185 14.9994C0 21.9855 0.00230185 28.9715 0 35.9578C0.000354131 36.7942 0.175472 37.5352 0.529072 38.1741C0.892588 38.8312 1.44432 39.3804 2.19101 39.8127C5.7688 41.8848 17.7763 48.7628 20.1738 50.1774C21.7862 51.1287 23.3604 51.1627 24.9847 50.225C31.0076 46.7474 37.0384 43.2844 43.0639 39.8105C43.8106 39.3785 44.3624 38.8289 44.7259 38.1723C45.079 37.5335 45.2544 36.7924 45.2548 35.9558C45.2548 35.9558 45.2548 21.9873 45.2525 15.001Z" fill="#5C8DBC"/>
<path d="M22.6969 25.4104L0.529297 38.174C0.892813 38.8311 1.44455 39.3803 2.19123 39.8126C5.76902 41.8848 17.7766 48.7627 20.174 50.1773C21.7864 51.1287 23.3607 51.1627 24.9849 50.2249C31.0078 46.7473 37.0386 43.2843 43.0642 39.8104C43.8109 39.3784 44.3626 38.8288 44.7261 38.1722L22.6969 25.4104Z" fill="#1A4674"/>
<path d="M16.1309 29.1911C17.4208 31.443 19.8457 32.9619 22.6274 32.9619C25.4263 32.9619 27.865 31.4237 29.1484 29.1477L22.6966 25.4104L16.1309 29.1911Z" fill="#1A4674"/>
<path d="M45.2521 15.001C45.2518 14.1458 45.0689 13.39 44.699 12.7415L22.6963 25.4105L44.7256 38.1723C45.0786 37.5335 45.2541 36.7925 45.2544 35.9558C45.2544 35.9558 45.2544 21.9873 45.2521 15.001Z" fill="#1B598E"/>
<path d="M44.0412 26.3228H42.3198V28.0446H40.598V26.3228H38.8768V24.6016H40.598V22.8801H42.3198V24.6016H44.0412V26.3228ZM37.7598 26.3228H36.0386V28.0446H34.3171V26.3228H32.5957V24.6016H34.3171V22.8801H36.0386V24.6016H37.7598V26.3228Z" fill="white"/>
<path d="M29.1481 29.1478C27.8647 31.4238 25.426 32.962 22.6271 32.962C19.8454 32.962 17.4205 31.4431 16.1305 29.1912C15.4825 28.0612 15.1422 26.781 15.1436 25.4785C15.1436 21.3456 18.4942 17.9951 22.6271 17.9951C25.3909 17.9951 27.8031 19.4951 29.0994 21.724L35.6403 17.9574C33.0405 13.4695 28.1866 10.4502 22.6271 10.4502C14.3269 10.4502 7.59863 17.1787 7.59863 25.4785C7.59863 28.2014 8.32301 30.7548 9.58903 32.9574C12.1823 37.469 17.05 40.5069 22.6271 40.5069C28.2144 40.5069 33.0897 37.4568 35.6793 32.9319L29.1481 29.1478Z" fill="white"/>
</g>
<defs>
<clipPath id="clip0_656_1104">
<rect width="45.3288" height="51" fill="white"/>
</clipPath>
</defs>
</svg>
