<svg width="51" height="51" viewBox="0 0 51 51" fill="none" xmlns="http://www.w3.org/2000/svg">
<g clip-path="url(#clip0_655_616)">
<path d="M25.2821 0.0144043C12.3675 0.0144043 13.1739 5.61491 13.1739 5.61491L13.1883 11.4172H25.5124V13.1592H8.29331C8.29331 13.1592 0.0292969 12.222 0.0292969 25.2526C0.0292969 38.2837 7.24233 37.8216 7.24233 37.8216H11.547V31.7747C11.547 31.7747 11.315 24.5616 18.6449 24.5616H30.8682C30.8682 24.5616 37.7357 24.6726 37.7357 17.9245V6.76689C37.7357 6.76689 38.7787 0.0144043 25.2821 0.0144043ZM18.4866 3.91633C18.7778 3.91607 19.0662 3.97324 19.3353 4.08457C19.6044 4.19589 19.849 4.35919 20.0549 4.56512C20.2608 4.77105 20.4241 5.01557 20.5354 5.28467C20.6468 5.55378 20.7039 5.8422 20.7037 6.13343C20.7039 6.42466 20.6468 6.71308 20.5354 6.98219C20.4241 7.2513 20.2608 7.49581 20.0549 7.70174C19.849 7.90767 19.6044 8.07097 19.3353 8.18229C19.0662 8.29362 18.7778 8.35079 18.4866 8.35053C18.1953 8.35079 17.9069 8.29362 17.6378 8.18229C17.3687 8.07097 17.1242 7.90767 16.9183 7.70174C16.7123 7.49581 16.549 7.2513 16.4377 6.98219C16.3264 6.71308 16.2692 6.42466 16.2695 6.13343C16.2692 5.8422 16.3264 5.55378 16.4377 5.28467C16.549 5.01557 16.7123 4.77105 16.9183 4.56512C17.1242 4.35919 17.3687 4.19589 17.6378 4.08457C17.9069 3.97324 18.1953 3.91607 18.4866 3.91633Z" fill="url(#paint0_linear_655_616)"/>
<path d="M25.6482 50.6219C38.5628 50.6219 37.7564 45.0214 37.7564 45.0214L37.7421 39.2193H25.4178V37.4773H42.6368C42.6368 37.4773 50.9008 38.4146 50.9008 25.3835C50.9008 12.3526 43.6878 12.8148 43.6878 12.8148H39.3831V18.8615C39.3831 18.8615 39.6152 26.0745 32.2852 26.0745H20.0619C20.0619 26.0745 13.1945 25.9636 13.1945 32.7119V43.8697C13.1945 43.8697 12.1517 50.6219 25.648 50.6219H25.6482ZM32.4438 46.7204C32.1525 46.7207 31.8641 46.6635 31.595 46.5522C31.3259 46.4408 31.0814 46.2775 30.8755 46.0716C30.6695 45.8657 30.5062 45.6212 30.3949 45.3521C30.2836 45.083 30.2264 44.7945 30.2267 44.5033C30.2264 44.2121 30.2835 43.9236 30.3948 43.6545C30.5062 43.3854 30.6694 43.1408 30.8754 42.9349C31.0813 42.7289 31.3258 42.5656 31.595 42.4543C31.8641 42.3429 32.1525 42.2858 32.4438 42.286C32.735 42.2858 33.0234 42.3429 33.2925 42.4542C33.5616 42.5656 33.8061 42.7289 34.0121 42.9348C34.218 43.1407 34.3813 43.3852 34.4926 43.6544C34.6039 43.9235 34.6611 44.2119 34.6609 44.5031C34.6611 44.7943 34.6039 45.0828 34.4926 45.3519C34.3813 45.621 34.218 45.8655 34.0121 46.0714C33.8061 46.2773 33.5616 46.4406 33.2925 46.552C33.0234 46.6633 32.735 46.7205 32.4438 46.7202V46.7204Z" fill="url(#paint1_linear_655_616)"/>
</g>
<defs>
<linearGradient id="paint0_linear_655_616" x1="4.91809" y1="4.56625" x2="30.1288" y2="29.5254" gradientUnits="userSpaceOnUse">
<stop stop-color="#387EB8"/>
<stop offset="1" stop-color="#366994"/>
</linearGradient>
<linearGradient id="paint1_linear_655_616" x1="20.3918" y1="20.5935" x2="47.4652" y2="46.1868" gradientUnits="userSpaceOnUse">
<stop stop-color="#FFE052"/>
<stop offset="1" stop-color="#FFC331"/>
</linearGradient>
<clipPath id="clip0_655_616">
<rect width="51" height="50.796" fill="white"/>
</clipPath>
</defs>
</svg>
