<svg width="51" height="51" viewBox="0 0 51 51" fill="none" xmlns="http://www.w3.org/2000/svg">
<g clip-path="url(#clip0_661_1133)">
<path d="M3.62501 25.4994C3.62501 34.1587 8.65703 41.6411 15.9539 45.1876L5.51894 16.5967C4.26802 19.3979 3.62264 22.4316 3.62501 25.4994ZM40.2682 24.3956C40.2682 21.692 39.2971 19.8197 38.4642 18.3624C37.3553 16.5605 36.3163 15.0345 36.3163 13.2326C36.3163 11.2217 37.841 9.34984 39.9893 9.34984C40.0863 9.34984 40.1783 9.36191 40.2732 9.36732C36.3808 5.80173 31.1956 3.62476 25.5005 3.62476C17.8582 3.62476 11.1345 7.54582 7.22306 13.4848C7.73629 13.5002 8.22039 13.5107 8.63081 13.5107C10.9189 13.5107 14.4608 13.233 14.4608 13.233C15.64 13.1635 15.779 14.8955 14.6015 15.035C14.6015 15.035 13.416 15.1744 12.0973 15.2435L20.0635 38.9384L24.8512 24.5808L21.4425 15.2431C20.2645 15.174 19.1486 15.0345 19.1486 15.0345C17.9698 14.9654 18.108 13.1631 19.2868 13.2326C19.2868 13.2326 22.8994 13.5102 25.0489 13.5102C27.3366 13.5102 30.8789 13.2326 30.8789 13.2326C32.0589 13.1631 32.1975 14.8951 31.0191 15.0345C31.0191 15.0345 29.8316 15.174 28.5154 15.2431L36.4208 38.7586L38.6024 31.4672C39.5485 28.4415 40.2682 26.2683 40.2682 24.3956Z" fill="#00749A"/>
<path d="M25.8837 27.4129L19.3203 46.4846C21.3269 47.076 23.408 47.3762 25.4999 47.3762C28.0474 47.3762 30.4903 46.9354 32.7643 46.1362C32.7033 46.0407 32.6512 45.9398 32.6086 45.8348L25.8837 27.4129ZM44.6948 15.0042C44.7889 15.701 44.8422 16.4494 44.8422 17.2536C44.8422 19.4734 44.4276 21.9688 43.1788 25.089L36.4968 44.4083C43.0003 40.6159 47.3746 33.5701 47.3746 25.4994C47.3805 21.831 46.4586 18.2207 44.6948 15.0042Z" fill="#00749A"/>
<path d="M25.5002 0C11.4398 0 0 11.4389 0 25.4994C0 39.5615 11.4393 51.0004 25.5002 51.0004C39.5602 51.0004 51.0017 39.5619 51.0017 25.4994C51.0013 11.4389 39.5602 0 25.5002 0ZM25.5002 49.8312C12.0845 49.8312 1.16924 38.9159 1.16924 25.4994C1.16924 12.0841 12.0841 1.16966 25.5002 1.16966C38.9155 1.16966 49.8299 12.0841 49.8299 25.4994C49.8299 38.9159 38.9151 49.8312 25.5002 49.8312Z" fill="#00749A"/>
</g>
<defs>
<clipPath id="clip0_661_1133">
<rect width="51" height="51" fill="white"/>
</clipPath>
</defs>
</svg>
