<svg width="295" height="320" viewBox="0 0 295 320" fill="none" xmlns="http://www.w3.org/2000/svg">
<g clip-path="url(#clip0_803_1521)">
<path d="M27.7749 206.951C27.2194 205.586 26.6212 204.222 26.1511 202.814C25.5529 201.023 24.9974 199.19 24.5273 197.313C24.1855 196.034 24.3564 194.797 25.0401 193.603C25.5101 192.793 26.1939 192.367 27.134 192.409C28.0313 192.452 28.5868 193.092 28.7578 193.859C29.0996 195.138 29.356 196.46 29.4842 197.782C29.6979 199.829 29.7833 201.876 29.9543 203.923C29.9543 204.179 30.0825 204.435 30.2534 205.032C31.2362 203.411 31.8345 202.004 32.4754 200.639C33.4155 198.55 34.5693 196.588 36.364 195.138C37.3469 194.328 38.4152 193.603 39.7826 193.561C41.2355 193.561 41.8337 194.371 41.0645 195.565C40.2526 196.887 39.1843 198.038 38.1588 199.232C36.1931 201.492 34.3556 203.838 33.2446 206.652C33.0737 207.036 32.9882 207.42 32.7318 208.187C34.0138 207.505 34.783 206.738 35.5949 206.055C38.116 203.795 41.1927 202.772 44.4831 202.303C45.4232 202.175 46.3633 202.388 46.8761 203.326C47.3034 204.094 47.047 205.288 45.9787 205.885C44.3976 206.78 42.6884 207.505 40.9791 208.187C39.2698 208.827 37.4751 209.296 35.7231 209.893C34.8257 210.234 33.9283 210.703 33.0737 211.3C34.2274 211.727 35.3385 211.556 36.4922 211.428C37.9024 211.258 39.3125 211.045 40.7227 211.13C41.7483 211.215 42.8166 211.599 43.7139 212.111C45.2095 212.964 45.1668 214.115 43.7139 215.053C42.6884 215.735 41.4919 215.991 40.2526 215.735C39.0134 215.437 37.7742 215.181 36.4922 214.968C35.3812 214.797 34.2274 214.627 33.1164 214.627C31.108 214.627 30.7234 215.138 30.8089 217.057C30.9371 219.872 31.0653 222.729 31.1508 225.544C31.1935 226.61 31.1508 227.676 31.1508 229.126C33.5437 225.458 36.535 223.283 40.68 223.582C44.7395 223.88 47.6025 226.268 49.8246 229.936C49.8246 215.863 49.8246 202.089 49.8246 188.102C49.0127 188.102 48.329 188.102 47.6453 188.102C43.9276 188.102 40.2526 188.102 36.535 188.102C35.9795 188.102 35.3812 188.102 34.8257 188.017C34.142 187.889 33.7147 187.505 33.7147 186.695C33.7147 183.838 33.7147 181.023 33.7147 178.166C33.7147 177.228 34.142 176.887 35.0393 176.929C35.5521 176.929 36.0222 176.929 36.535 176.929C63.7552 176.929 90.9326 176.929 118.153 176.929C118.666 176.929 119.136 176.929 119.648 176.929C119.648 176.844 119.691 176.802 119.691 176.716C117.768 176.29 115.845 175.821 113.922 175.394C106.573 173.816 99.2226 172.153 91.8727 170.703C84.7793 169.296 81.2325 161.748 84.4374 155.607C88.8388 147.249 93.2402 138.891 97.5988 130.533C98.0689 129.595 98.5389 128.657 99.009 127.761C96.6587 125.458 96.6587 125.458 97.3852 122.388C98.9235 115.778 101.231 109.467 104.863 103.71C107.684 99.1896 110.76 94.8399 114.777 91.2578C117.298 88.9551 119.99 86.8655 122.982 85.1598C127.212 82.729 131.571 80.4263 136.271 78.9764C141.1 77.5265 145.886 75.9487 150.715 74.4988C151.868 74.1576 152.296 73.518 152.424 72.4519C152.851 69.3815 153.278 66.2685 153.706 63.1981C153.791 62.5585 153.663 62.132 153.065 61.7909C150.672 60.3836 148.877 58.422 147.339 56.1619C146.954 55.6075 146.356 55.1384 145.8 54.712C144.262 53.5606 143.151 52.2386 143.066 50.1491C143.066 49.5947 142.595 48.9977 142.211 48.5286C140.758 46.7376 139.476 44.9039 138.75 42.729C138.023 40.5116 138.237 38.422 139.391 36.3751C140.16 35.0105 141.314 34.1576 142.809 33.7312C142.895 33.7312 142.937 33.7312 143.023 33.6885C144.091 33.3047 145.459 33.2194 146.142 32.4945C146.698 31.8548 146.399 30.4902 146.441 29.4241C146.869 22.5585 152.766 19.147 159.09 21.7056C160.201 22.132 161.141 22.8996 162.167 23.5819C162.679 23.9231 163.107 24.4348 163.62 24.8186C164.474 25.4156 165.414 25.97 166.397 26.567C166.611 26.2258 166.867 25.97 166.995 25.6715C168.064 23.2834 170.115 22.6864 172.422 22.7717C173.277 22.7717 174.132 22.9849 174.943 23.2408C176.61 23.8378 177.593 25.0745 177.807 26.8655C178.02 28.9124 177.507 30.7887 176.61 32.8783C177.507 32.5371 178.277 32.2386 179.046 31.9828C181.866 31.0873 183.575 31.9828 184.387 34.8399C185.071 37.1853 184.601 39.4881 184.003 41.7482C183.362 44.0084 182.336 46.0979 180.883 48.0169C180.242 48.8698 179.687 49.6374 179.729 50.8314C179.772 52.2386 178.875 53.2194 177.892 54.0297C176.781 54.9252 175.884 55.9913 175.072 57.1853C173.448 59.616 171.226 61.3644 168.576 62.5585C167.679 62.9849 167.465 63.454 167.594 64.3495C167.935 66.9508 168.235 69.5521 168.534 72.1533C168.662 73.2194 169.175 73.8591 170.286 74.2003C176.354 76.0339 182.379 77.8676 188.404 79.7866C199.856 83.4114 209.044 89.9785 215.881 99.9572C219.128 104.691 221.863 109.595 223.658 115.053C224.641 118.081 225.282 121.194 226.179 124.264C226.521 125.416 226.264 126.141 225.239 126.738C224.854 126.951 224.555 127.249 224.085 127.633C224.641 128.742 225.153 129.893 225.752 131.002C229.982 139.062 234.213 147.079 238.443 155.096C239.298 156.759 239.768 158.465 239.896 160.384C240.11 164.648 236.862 169.552 231.862 170.618C222.974 172.537 214.086 174.371 205.24 176.247C204.984 176.29 204.77 176.46 204.557 176.802C221.649 176.802 238.742 176.802 256.049 176.802C254.596 175.096 254.638 173.177 254.638 171.258C254.681 166.993 254.638 162.729 254.638 158.465C254.638 156.077 255.408 155.266 257.843 155.266C262.629 155.266 267.373 155.266 272.159 155.266C274.722 155.266 275.406 155.863 275.748 158.422C276.432 158.337 277.073 158.166 277.756 158.166C280.448 158.166 281.987 160.256 281.004 162.772C280.491 164.008 279.679 165.074 278.91 166.226C278.654 166.652 278.312 167.036 277.927 167.335C275.962 168.784 275.363 170.661 275.534 173.049C275.62 174.243 274.979 175.437 274.637 176.759C275.022 176.802 275.577 176.844 276.09 176.844C279.808 176.844 283.482 176.844 287.2 176.844C288.824 176.844 288.867 176.929 288.867 178.55C288.909 181.109 288.909 183.667 288.867 186.226C288.867 187.718 288.653 187.932 287.115 187.974C284.252 188.017 281.431 187.974 278.355 187.974C278.184 189.893 278.269 191.684 278.269 193.518C278.269 195.309 278.269 197.057 278.269 198.848C278.269 200.682 278.269 202.558 278.269 204.392C278.269 206.183 278.269 207.932 278.269 209.723C278.269 211.556 278.269 213.433 278.269 215.266C278.269 217.057 278.269 218.806 278.269 220.597C278.269 222.431 278.269 224.264 278.269 226.311C277.543 226.354 276.944 226.396 276.346 226.396C266.603 226.396 256.818 226.396 247.075 226.396C246.519 226.396 245.921 226.396 245.366 226.482C245.152 226.524 244.896 226.823 244.853 227.036C244.853 227.207 245.109 227.59 245.323 227.59C245.964 227.676 246.605 227.676 247.246 227.676C256.775 227.676 266.347 227.676 275.876 227.676C276.56 227.676 277.286 227.676 277.842 227.676C278.013 227.846 278.098 227.889 278.141 227.932C278.184 227.974 278.226 228.06 278.226 228.102C278.269 228.23 278.269 228.401 278.269 228.529C278.269 228.614 278.269 228.657 278.269 228.742C278.269 229.04 278.269 229.296 278.269 229.595C278.269 258.721 278.269 287.889 278.269 317.015C278.269 317.143 278.269 317.313 278.269 317.441C278.269 317.526 278.269 317.569 278.312 317.654C278.312 317.74 278.397 317.782 278.526 317.996C278.953 318.038 279.508 318.081 280.064 318.081C284.038 318.081 288.055 318.081 292.029 318.124C292.627 318.124 293.268 318.294 293.866 318.507C294.037 318.55 294.208 318.976 294.165 319.232C294.123 319.445 293.824 319.787 293.61 319.787C292.926 319.872 292.2 319.872 291.473 319.872C258.655 319.872 225.794 319.872 192.976 319.872C130.887 319.872 68.7548 319.872 6.66539 319.872C6.02441 319.872 5.38343 319.872 4.74245 319.872C4.10147 319.872 3.50323 319.701 3.54596 318.976C3.58869 318.294 4.18694 318.124 4.82792 318.124C5.38343 318.124 5.98168 318.124 6.53719 318.124C10.0839 318.124 13.6307 318.124 17.6047 318.124C16.7074 317.612 16.1946 317.356 15.6391 317.015C11.7505 314.755 9.35749 311.471 8.88744 306.993C8.58832 304.179 8.50286 301.322 8.58832 298.507C8.63105 296.077 10.2549 294.627 12.7333 294.627C15.81 294.584 18.844 294.627 21.9207 294.627C22.6044 294.627 23.3308 294.627 24.1855 294.627C24.9119 282.388 23.459 270.49 21.707 258.635C20.6387 258.124 19.9123 258.635 19.1858 259.019C17.8184 259.787 16.4937 260.639 15.169 261.45C14.4426 261.876 13.7589 262.089 12.9897 261.492C12.2633 260.895 12.1351 260.213 12.776 259.488C13.8871 258.209 15.4254 257.612 17.0065 257.1C17.7757 256.844 18.5876 256.716 19.5704 256.46C17.4338 255.991 15.5963 256.546 13.7161 256.929C12.8188 257.1 11.8787 257.143 10.9813 257.185C10.1694 257.185 9.61389 256.674 9.44296 255.949C9.2293 255.096 9.82755 254.541 10.5113 254.328C11.4514 254.03 12.4342 253.774 13.417 253.731C15.2545 253.646 17.092 253.689 19.0149 253.689C17.7329 252.495 16.4937 251.386 15.4254 250.192C14.7844 249.467 14.2717 248.571 13.8443 247.676C13.6307 247.249 13.7589 246.524 13.9298 246.055C14.3144 245.202 15.1263 244.989 15.8527 245.629C16.4937 246.183 17.0065 246.865 17.4766 247.59C18.2885 248.827 18.9722 250.149 19.9123 251.727C20.2969 249.637 20.1259 247.932 19.955 246.226C19.7841 244.392 19.4849 242.558 19.1004 240.767C18.9722 240.128 18.4594 239.531 17.9893 239.019C15.4682 236.503 12.0496 236.503 9.40023 238.848C8.24647 239.872 7.52002 241.151 6.92178 242.516C6.49446 243.411 6.06714 244.307 5.51163 245.117C4.61426 246.396 3.3323 246.78 1.96488 246.354C0.725656 245.97 0.041946 244.947 -0.0435178 243.411C-0.385373 237.697 4.78518 231.428 10.4685 230.703C15.4254 230.064 20.4251 234.286 20.7242 239.275C20.8096 240.469 21.066 241.62 21.2797 242.772C21.5361 242.772 21.707 242.814 21.7925 242.772C22.3053 242.388 22.7753 241.834 23.5017 242.345C24.1427 242.772 24.0573 243.497 23.9291 244.094C23.7154 245.202 23.3735 246.268 23.1172 247.377C22.9462 248.06 22.7753 248.742 22.7326 249.467C22.6471 250.448 22.7326 251.428 22.989 252.537C23.4163 251.599 23.6727 250.448 24.3564 249.765C25.9802 248.102 26.0657 246.439 25.2965 244.392C24.6128 242.601 24.2709 240.725 23.7581 238.891C23.5872 238.251 23.2454 237.74 22.6044 237.484C21.9207 237.228 21.5788 236.503 21.8779 235.906C22.6898 234.2 21.7497 232.836 21.066 231.514C19.6131 228.742 17.3056 227.121 14.0153 227.207C12.5197 227.249 11.024 227.249 9.52842 227.249C8.07554 227.249 6.70812 226.865 5.46889 226.141C3.2041 224.819 2.77679 221.961 5.25523 220.213C5.81075 219.787 6.49446 219.445 7.17817 219.275C10.6395 218.507 14.058 218.251 17.3911 219.872C17.562 219.957 17.8184 219.957 17.9893 220C18.1603 220.128 18.2885 220.256 18.4594 220.384C18.5876 220.512 18.7585 220.682 18.8867 220.81C19.0149 220.938 19.1858 221.109 19.314 221.237C19.4422 221.364 19.6131 221.535 19.7413 221.663C19.8695 221.791 20.0405 221.961 20.1687 222.089C20.2969 222.217 20.4678 222.388 20.596 222.516C21.5788 224.861 22.5616 227.164 23.5872 229.552C24.0145 229.467 24.4846 229.211 24.3564 228.486C24.2282 227.42 24.1 226.396 23.9291 225.33C23.8863 225.074 23.6727 224.819 23.459 224.648C22.5189 223.923 21.5361 223.241 20.5532 222.558C20.425 222.431 20.2541 222.26 20.1259 222.132C19.9977 222.004 19.8268 221.834 19.6986 221.706C19.5704 221.578 19.3995 221.407 19.2713 221.279C19.1431 221.151 18.9722 220.981 18.844 220.853C18.7158 220.725 18.5448 220.554 18.4167 220.426C18.2885 220.256 18.1603 220.128 18.0321 219.957C17.8611 219.488 17.6475 219.062 17.4766 218.593C16.7501 216.844 17.5193 215.48 19.3995 215.266C20.6814 215.138 21.7925 215.437 22.7326 216.29C24.6982 218.038 25.5101 220.341 25.6811 222.9C25.852 224.947 25.9375 226.993 26.1511 229.04C26.1939 229.467 26.4502 229.979 26.7494 230.277C27.5185 231.087 28.4159 231.812 29.5269 232.793C29.5269 231.812 29.5269 231.087 29.5269 230.362C29.4842 227.079 29.4842 223.838 29.3987 220.554C29.356 219.019 29.1851 217.441 29.1423 215.906C29.1423 215.053 28.715 214.541 27.9886 214.328C26.9203 214.03 25.7665 213.603 24.6982 213.646C22.2198 213.731 19.7413 214.03 17.3056 214.286C16.0237 214.413 14.8699 214.371 14.1435 213.134C13.417 211.897 13.7589 210.703 15.0836 210.149C16.6646 209.509 18.3739 209.254 20.0832 209.467C22.3053 209.765 24.5273 210.277 26.5784 210.618C25.7238 209.595 24.0145 208.614 21.8352 208.017C20.1259 207.548 18.4167 207.207 16.7074 206.695C15.9809 206.482 15.2118 206.183 14.5708 205.799C14.058 205.458 13.5452 204.989 13.2461 204.477C12.4769 203.113 13.2461 201.663 14.7844 201.578C15.7673 201.535 16.7501 201.663 17.7329 201.876C20.6387 202.644 23.2454 204.051 25.8093 205.586C26.4502 206.226 27.134 206.567 27.7749 206.951C27.8177 206.951 27.8177 207.036 27.8604 207.079C27.8604 207.121 27.9459 207.121 27.9459 207.121C27.9031 207.079 27.8604 207.036 27.7749 206.951ZM190.626 301.578C190.626 301.62 190.626 301.706 190.669 301.748C190.669 301.791 190.754 301.791 190.754 301.791C190.712 301.748 190.669 301.706 190.626 301.578C190.626 300.981 190.626 300.341 190.669 299.701C190.669 299.104 190.669 298.507 190.669 297.91C190.412 299.147 189.9 300.426 190.626 301.578ZM16.7074 235.48C16.7074 235.522 16.7501 235.607 16.7501 235.65C16.7501 235.693 16.8356 235.693 16.8783 235.693C16.8356 235.65 16.7501 235.565 16.7074 235.48C14.9126 233.433 12.7333 232.75 10.0839 233.219C6.23807 233.902 2.77679 238.123 2.22127 242.047C2.13581 242.516 2.13581 243.028 2.22127 243.539C2.264 243.838 2.52039 244.307 2.73405 244.35C3.07591 244.392 3.58869 244.264 3.84508 244.008C4.31513 243.497 4.61426 242.857 4.95611 242.217C5.29797 241.578 5.46889 240.895 5.81075 240.298C7.2209 237.74 9.2293 236.077 12.1351 235.352C13.7161 234.925 15.169 235.352 16.7074 235.48ZM93.0692 318.124C93.0692 317.185 93.0692 316.418 93.0692 315.65C93.0692 290.405 93.0692 265.202 93.0692 239.957C93.0692 239.318 93.0692 238.678 93.0692 238.038C93.0692 237.654 93.2402 237.441 93.7529 237.484C93.9666 237.526 94.3512 237.185 94.4367 236.972C94.5649 236.588 94.4794 236.119 94.4794 235.693C94.4794 220.469 94.4794 205.288 94.4794 190.064C94.4794 189.552 94.4794 189.04 94.3939 188.571C94.3512 188.401 94.0093 188.145 93.7957 188.145C93.6247 188.145 93.2829 188.443 93.2829 188.657C93.1974 189.296 93.2402 189.936 93.2402 190.576C93.2402 204.989 93.2402 219.403 93.2402 233.859C93.2402 234.541 93.4538 235.266 92.8129 236.034C79.2241 222.047 65.6354 208.145 51.9184 194.03C51.9184 235.522 51.9184 276.759 51.9184 318.081C65.6354 318.124 79.1814 318.124 93.0692 318.124ZM192.891 194.328C192.805 194.627 192.72 194.84 192.72 195.053C192.72 235.821 192.763 276.631 192.763 317.399C192.763 317.441 192.805 317.526 192.848 317.569C192.891 317.612 192.934 317.654 193.147 317.868C195.241 317.868 197.506 317.868 199.813 317.868C202.078 317.868 204.386 317.868 206.651 317.868C208.873 317.868 211.052 317.868 213.274 317.868C215.539 317.868 217.846 317.868 220.111 317.868C222.376 317.868 224.683 317.996 226.948 317.825C229.17 317.697 231.392 318.422 233.572 318.124C233.657 317.825 233.7 317.74 233.7 317.697C233.7 317.569 233.743 317.399 233.743 317.271C233.743 291.343 233.743 265.416 233.743 239.488C233.743 239.062 233.743 238.635 233.743 238.209C233.743 238.081 233.743 237.91 233.785 237.782C233.785 237.697 233.828 237.654 233.871 237.612C233.913 237.569 233.956 237.526 234.042 237.441C234.768 237.74 235.281 237.654 235.366 236.759C235.409 236.332 235.366 235.906 235.366 235.48C235.366 220.341 235.366 205.202 235.366 190.064C235.366 189.637 235.452 189.168 235.324 188.784C235.238 188.529 234.896 188.23 234.64 188.23C234.384 188.23 233.999 188.529 233.956 188.784C233.828 189.339 233.913 189.893 233.913 190.49C233.913 204.904 233.913 219.318 233.913 233.774C233.913 234.499 234.127 235.266 233.572 236.119C219.897 222.089 206.437 208.23 192.891 194.328ZM166.995 210.32C166.995 206.482 166.995 202.857 166.995 199.232C166.995 198.678 166.953 198.081 167.038 197.526C167.081 197.271 167.465 196.844 167.636 196.844C167.978 196.887 168.534 197.1 168.619 197.356C168.79 197.868 168.747 198.465 168.747 199.019C168.747 206.396 168.747 213.816 168.747 221.194C168.747 244.733 168.747 268.23 168.747 291.77C168.747 293.859 168.235 293.816 170.799 294.499C176.439 296.034 182.165 296.972 188.062 296.119C190.583 295.735 190.626 295.821 190.626 293.305C190.626 262.047 190.626 230.746 190.626 199.488C190.626 198.806 190.626 198.081 190.626 197.356C189.558 197.143 188.66 196.929 187.763 196.802C184.387 196.247 181.054 195.735 177.678 195.224C174.815 194.797 171.91 194.328 169.004 194.158C165.158 193.902 161.355 194.541 157.552 194.968C153.108 195.437 149.133 197.057 145.715 199.872C143.365 201.791 141.143 203.923 138.75 205.842C137.852 206.567 137.596 207.292 137.596 208.358C137.639 213.816 137.639 219.318 137.596 224.776C137.596 225.373 137.51 225.97 137.468 226.567C126.913 226.567 116.572 226.567 106.231 226.567C105.675 226.567 105.077 226.567 104.521 226.652C104.308 226.695 104.009 226.993 103.966 227.207C103.966 227.377 104.265 227.718 104.479 227.761C105.12 227.846 105.761 227.846 106.402 227.846C116.016 227.846 125.631 227.846 135.246 227.846C135.929 227.846 136.656 227.846 137.553 227.846C137.553 250.746 137.553 273.518 137.553 296.375C138.109 296.418 138.45 296.46 138.792 296.46C143.236 296.503 147.552 295.778 151.826 294.627C154.133 294.03 154.133 293.987 154.133 291.428C154.133 260.853 154.133 230.32 154.133 199.744C154.133 199.104 154.133 198.465 154.133 197.825C154.133 197.271 154.389 196.844 154.988 196.844C155.586 196.844 155.885 197.228 155.885 197.825C155.885 198.337 155.885 198.806 155.885 199.318C155.885 202.431 155.885 205.586 155.885 208.699C155.885 209.254 155.971 209.765 156.013 210.32C159.816 210.32 163.278 210.32 166.995 210.32ZM162.765 169.808C175.072 169.808 187.421 169.808 199.728 169.808C202.548 169.808 202.548 169.808 202.548 166.993C202.548 152.196 202.548 137.441 202.548 122.644C202.548 122.303 202.548 121.919 202.548 121.578C202.42 119.531 200.967 118.038 198.873 117.868C198.361 117.825 197.891 117.868 197.378 117.868C174.303 117.868 151.227 117.868 128.152 117.868C127.597 117.868 126.998 117.825 126.443 117.91C124.605 118.166 123.238 119.659 123.067 121.492C123.024 121.834 123.067 122.217 123.067 122.558C123.067 137.484 123.067 152.409 123.067 167.335C123.067 169.808 123.11 169.851 125.545 169.851C125.845 169.851 126.101 169.851 126.4 169.851C138.579 169.808 150.672 169.808 162.765 169.808ZM146.313 77.7823C145.929 77.8676 145.501 77.9529 145.117 78.1235C141.954 79.2749 138.579 79.8719 135.587 81.535C134.135 82.3452 132.383 82.6438 130.801 83.2408C123.067 86.2685 116.614 91.0873 111.444 97.4838C105.291 105.117 101.103 113.731 99.0944 123.369C98.6671 125.416 98.7953 125.202 100.163 126.141C106.444 130.49 113.452 132.708 121.23 132.921C121.272 132.153 121.315 131.471 121.315 130.789C121.315 127.932 121.315 125.117 121.315 122.26C121.315 121.492 121.358 120.682 121.614 119.957C122.383 117.612 124.392 116.205 126.956 116.119C128.793 116.077 130.673 116.119 132.511 116.119C154.304 116.119 176.097 116.162 197.891 116.077C201.822 116.077 204.642 118.721 204.428 122.516C204.258 125.33 204.386 128.187 204.386 131.045C204.386 131.599 204.471 132.153 204.514 132.878C205.839 132.708 207.035 132.58 208.189 132.367C213.787 131.343 218.915 129.211 223.572 125.927C224.256 125.458 224.47 124.904 224.299 124.136C224.042 123.113 223.829 122.047 223.572 121.023C221.735 113.944 218.744 107.463 214.599 101.407C208.488 92.3666 200.326 86.0553 190.071 82.4732C184.985 80.6821 179.815 79.1896 174.644 77.5691C174.26 77.4412 173.832 77.4412 173.149 77.3559C173.149 78.6352 173.149 79.8293 173.149 81.0233C173.191 83.2834 172.551 85.373 171.568 87.3772C170.029 90.405 167.636 92.3239 164.346 93.1768C162.38 93.6885 160.415 93.7738 158.406 93.6032C153.236 93.0915 149.604 90.4902 147.937 85.5435C147.168 83.0702 146.911 80.5116 146.313 77.7823ZM235.58 237.697C235.537 238.209 235.495 238.55 235.495 238.891C235.495 265.16 235.537 291.471 235.537 317.74C235.537 317.782 235.58 317.868 235.623 317.91C235.666 317.953 235.708 317.996 235.794 318.038C241.99 318.422 274.851 318.251 276.56 317.782C276.56 308.23 276.56 298.678 276.56 288.87C275.748 288.87 274.979 288.87 274.21 288.87C265.151 288.87 256.134 288.87 247.075 288.87C246.519 288.87 245.921 288.912 245.366 288.827C245.067 288.784 244.596 288.401 244.639 288.273C244.725 287.932 244.981 287.42 245.28 287.335C245.964 287.164 246.69 287.121 247.374 287.121C256.22 287.121 265.022 287.121 273.868 287.121C274.381 287.121 274.851 287.121 275.363 287.121C276.133 287.164 276.603 286.908 276.56 286.055C276.56 285.757 276.56 285.501 276.56 285.202C276.56 277.399 276.517 269.595 276.603 261.748C276.603 260.512 276.218 259.872 275.15 259.275C264.039 253.219 252.972 247.121 241.862 241.066C239.81 240 237.759 238.891 235.58 237.697ZM135.844 288.912C134.989 288.912 134.22 288.912 133.451 288.912C124.392 288.912 115.375 288.912 106.316 288.912C105.761 288.912 105.162 288.955 104.607 288.87C104.308 288.827 103.88 288.443 103.88 288.273C103.966 287.932 104.222 287.42 104.521 287.335C105.12 287.164 105.761 287.164 106.402 287.164C115.461 287.164 124.477 287.164 133.536 287.164C134.305 287.164 135.032 287.121 135.758 287.079C135.844 286.652 135.887 286.439 135.887 286.226C135.887 277.996 135.887 269.765 135.929 261.492C135.929 260.384 135.417 259.829 134.519 259.36C129.349 256.546 124.178 253.731 119.007 250.917C112.598 247.42 106.188 243.88 99.7781 240.341C98.1971 239.488 96.616 238.635 94.9494 237.782C94.9494 264.563 94.9494 291.087 94.9494 317.697C108.624 317.697 122.17 317.697 135.801 317.697C135.844 308.102 135.844 298.635 135.844 288.912ZM35.5949 186.311C36.1076 186.354 36.4495 186.396 36.7914 186.396C120.119 186.396 203.403 186.354 286.73 186.354C286.773 186.354 286.858 186.268 286.901 186.226C286.944 186.183 286.986 186.141 287.029 186.098C287.029 183.667 287.029 181.279 287.029 178.763C284.123 178.763 281.389 178.763 278.611 178.763C275.833 178.763 273.056 178.763 270.278 178.763C267.415 178.763 264.595 178.763 261.732 178.763C258.954 178.763 256.177 178.763 253.399 178.763C250.622 178.763 247.844 178.763 245.066 178.763C242.289 178.763 239.511 178.763 236.734 178.763C233.871 178.763 231.05 178.763 228.187 178.763C225.41 178.763 222.632 178.763 219.855 178.763C217.077 178.763 214.3 178.763 211.522 178.763C208.744 178.763 205.967 178.763 203.189 178.763C200.326 178.806 197.506 178.891 194.643 178.934C191.865 178.976 189.088 178.934 186.31 178.934C183.533 178.934 180.755 178.934 177.977 178.934C175.2 178.934 172.422 178.934 169.645 178.934C166.867 178.934 164.09 178.934 161.312 178.934C158.449 178.934 155.629 178.934 152.766 178.934C149.988 178.934 147.211 178.934 144.433 178.934C141.655 178.934 138.878 178.934 136.1 178.934C133.323 178.934 130.545 178.976 127.768 178.934C124.904 178.891 122.084 178.806 119.221 178.763C116.444 178.721 113.666 178.763 110.888 178.763C108.111 178.763 105.333 178.763 102.556 178.763C99.7781 178.763 97.0006 178.763 94.223 178.763C91.36 178.763 88.5397 178.763 85.6766 178.763C82.8991 178.763 80.1215 178.763 77.3439 178.763C74.5663 178.763 71.7888 178.763 69.0112 178.763C66.2336 178.763 63.456 178.763 60.6785 178.763C57.8154 178.763 54.9951 178.763 52.1321 178.763C49.3545 178.763 46.577 178.763 43.7994 178.763C41.0645 178.806 38.3297 178.635 35.5521 178.848C35.5949 181.407 35.5949 183.753 35.5949 186.311ZM150.629 317.654C153.449 318.038 168.961 317.91 170.499 317.526C170.499 310.746 170.499 303.923 170.499 297.143C170.499 296.418 170.115 296.247 169.517 296.034C166.995 295.096 166.995 295.096 166.995 292.324C166.995 270.106 166.995 247.846 166.995 225.629C166.995 224.861 166.953 224.136 166.953 223.369C163.192 223.369 159.688 223.369 156.013 223.369C156.013 224.264 156.013 225.032 156.013 225.799C156.013 247.59 156.013 269.424 156.013 291.215C156.013 292.495 155.928 293.731 155.842 295.01C154.603 295.48 153.364 296.034 152.125 296.46C150.629 296.972 150.544 296.93 150.544 298.379C150.501 304.563 150.501 310.746 150.501 316.929C150.544 317.143 150.586 317.399 150.629 317.654ZM42.7311 232.068C39.7826 233.689 36.8768 234.925 34.5693 237.697C35.5521 237.399 36.2358 237.185 36.8768 236.972C38.5006 236.46 40.1672 236.077 41.9192 236.546C42.902 236.802 44.184 236.716 44.4404 238.081C44.6113 238.934 43.3293 239.744 41.6201 239.787C40.1244 239.787 38.6288 239.659 37.1759 239.531C36.1931 239.445 35.253 239.275 34.1847 240.085C35.2103 240.298 36.0222 240.469 36.8768 240.639C38.2442 240.895 39.4835 241.45 40.2954 242.601C40.5518 242.942 40.7654 243.582 40.5945 243.923C40.4236 244.264 39.8253 244.477 39.398 244.563C38.116 244.776 37.0905 244.008 36.0222 243.411C35.0393 242.857 34.0993 242.217 33.031 241.791C32.0909 241.407 31.749 241.663 31.6635 242.729C31.4926 245.416 31.3644 248.102 31.2362 250.789C31.2362 251.215 31.2789 251.599 31.3644 252.111C31.749 251.94 32.0054 251.855 32.2618 251.727C34.5266 250.874 35.894 251.087 37.3896 252.964C38.4152 254.286 39.1416 255.863 39.8681 257.399C40.5518 258.891 40.3381 260.298 39.1843 261.535C37.9878 262.814 36.6204 263.241 34.9112 262.473C34.5693 263.923 33.6719 264.947 32.4327 265.544C30.9798 266.268 30.8516 267.335 30.8516 268.699C30.9798 274.925 31.0653 281.194 31.2362 287.42C31.2789 289.808 31.5353 292.196 31.7063 294.755C32.5609 294.755 33.2873 294.755 33.9711 294.755C37.4751 294.755 40.9363 294.755 44.4404 294.755C47.3034 294.797 48.7563 296.247 48.799 299.104C48.8417 301.364 48.8845 303.667 48.7563 305.927C48.5426 309.296 47.4316 312.324 44.9531 314.712C43.5857 315.991 42.0046 317.057 40.4663 318.294C42.0046 318.294 43.5857 318.294 45.1241 318.294C46.7479 318.294 48.329 318.251 49.9955 318.251C50.0382 317.697 50.081 317.356 50.081 316.972C50.081 291.258 50.0382 265.544 50.0382 239.829C50.0382 239.787 49.9955 239.701 49.9528 239.659C49.91 239.616 49.8673 239.573 49.8246 239.488C47.0043 239.36 46.3633 238.934 45.0813 236.332C44.7395 235.65 44.4404 234.883 44.0985 234.2C43.6712 233.518 43.2011 232.878 42.7311 232.068ZM116.444 134.925C115.461 134.925 114.82 134.883 114.179 134.925C109.307 135.181 104.521 134.755 99.9491 132.964C98.7098 132.494 98.6671 132.537 98.0261 133.816C94.0948 141.279 90.2062 148.784 86.1894 156.205C83.4118 161.364 86.1894 167.718 92.1291 168.955C99.4363 170.49 106.701 172.068 113.965 173.603C116.358 174.115 118.751 174.627 121.144 175.181C121.358 173.902 121.23 172.622 121.785 171.77C122.597 170.405 121.101 169.552 121.358 168.401C121.443 168.017 121.358 167.548 121.358 167.121C121.358 165.117 121.358 163.155 121.358 161.151C121.358 159.701 121.358 159.659 119.948 159.275C114.948 157.953 109.906 156.674 104.906 155.352C103.667 155.01 102.428 154.755 101.188 154.413C100.59 154.286 100.035 153.987 100.12 153.305C100.205 152.537 100.889 152.58 101.445 152.665C102.299 152.793 103.111 153.006 103.923 153.219C105.761 153.689 105.761 153.689 106.743 152.025C108.025 149.808 109.265 147.59 110.504 145.373C112.384 142.047 114.307 138.635 116.444 134.925ZM206.864 134.925C207.377 135.906 207.762 136.716 208.232 137.526C210.924 142.26 213.659 146.993 216.351 151.77C217.718 154.2 217.291 153.774 219.769 153.219C220.667 153.006 221.564 152.878 222.461 152.793C222.632 152.793 222.974 153.092 223.06 153.305C223.145 153.518 223.06 153.902 222.889 154.072C222.632 154.286 222.29 154.456 221.949 154.541C220.239 155.01 218.53 155.437 216.778 155.863C213.018 156.844 209.257 157.868 205.454 158.806C204.599 159.019 204.3 159.403 204.3 160.256C204.343 162.729 204.3 165.245 204.3 167.718C204.3 168.657 204.343 169.552 203.702 170.362C203.574 170.533 203.488 170.917 203.574 171.13C203.873 172.281 204.258 173.39 204.642 174.627C205.198 174.541 205.839 174.456 206.437 174.328C210.881 173.39 215.325 172.452 219.769 171.514C223.658 170.661 227.546 169.808 231.392 168.998C235.409 168.145 238.272 164.008 238.058 160.469C237.973 158.934 237.588 157.569 236.905 156.205C233.059 148.87 229.213 141.492 225.367 134.158C224.555 132.58 224.512 132.58 222.718 133.262C219.812 134.328 216.863 134.925 213.787 135.01C211.565 134.968 209.3 134.925 206.864 134.925ZM28.9287 296.503C23.6727 296.503 18.4167 296.503 13.1179 296.503C11.1522 296.503 10.4258 297.271 10.3831 299.232C10.3403 301.151 10.3403 303.07 10.4258 304.989C10.4685 306.183 10.6822 307.377 11.024 308.529C12.3915 313.39 15.8955 315.991 20.5532 317.356C23.9291 318.337 27.4331 318.251 30.8944 318.251C34.0138 318.251 36.9623 317.612 39.7826 316.29C43.3293 314.669 45.6796 311.94 46.6197 308.102C47.3889 304.861 46.9615 301.62 46.9615 298.337C46.9615 297.313 46.1924 296.716 45.1668 296.546C44.6113 296.46 44.013 296.503 43.4575 296.503C38.5861 296.503 33.7574 296.503 28.9287 296.503ZM146.441 48.4433C144.604 50.1917 144.561 51.2578 146.356 52.8357C146.612 53.0489 146.911 53.39 147.211 53.4327C148.065 53.5606 148.407 54.1576 148.792 54.8399C154.133 64.4774 167.636 65.0745 173.79 55.9487C174.602 54.7973 175.371 53.6885 176.567 52.8357C178.448 51.5137 178.405 50.1917 176.653 48.4433C175.542 49.1256 175.285 50.3623 174.773 51.4284C174.473 52.0254 174.174 52.4945 173.32 52.3239C172.551 52.1533 171.739 52.196 171.696 51.0873C171.653 50.3197 171.397 49.5521 171.397 48.7845C171.311 46.567 171.354 44.3922 171.311 42.1747C171.311 41.7056 171.226 41.2365 171.183 40.7674C164.688 40.7674 158.321 40.7674 151.74 40.7674C151.74 42.0467 151.783 43.2408 151.74 44.4348C151.655 46.4817 151.569 48.5286 151.356 50.5755C151.227 52.0681 151.014 52.0681 149.732 52.3239C148.621 52.4945 148.45 51.8122 148.108 51.0873C147.723 50.1064 147.381 49.0403 146.441 48.4433ZM162.808 177.143C174.986 177.143 187.122 177.143 199.301 177.143C199.942 177.143 200.583 177.185 201.224 177.1C201.608 177.057 202.249 176.759 202.292 176.588C202.377 175.224 202.42 173.816 202.292 172.409C202.249 172.111 201.523 171.855 201.095 171.684C200.796 171.556 200.412 171.642 200.027 171.642C175.285 171.642 150.501 171.642 125.759 171.642C123.409 171.642 123.152 171.94 123.152 174.2C123.11 177.1 123.152 177.143 126.144 177.143C138.322 177.143 150.586 177.143 162.808 177.143ZM265.279 157.143C262.843 157.143 260.45 157.143 258.014 157.143C256.519 157.143 256.476 157.228 256.476 158.721C256.476 163.454 256.433 168.23 256.476 172.964C256.476 175.352 257.758 176.631 260.151 176.674C263.484 176.716 266.817 176.716 270.15 176.674C272.543 176.631 273.825 175.352 273.868 172.964C273.911 168.23 273.911 163.454 273.868 158.721C273.868 157.271 273.74 157.143 272.287 157.143C269.979 157.1 267.629 157.143 265.279 157.143ZM155.714 63.1981C155.543 63.7099 155.372 64.051 155.33 64.3495C154.86 67.5904 154.389 70.7887 154.005 74.0297C153.791 75.6502 153.535 77.2706 153.535 78.8911C153.492 82.6438 155.971 85.4156 159.816 86.0126C162.167 86.3538 165.799 85.0318 167.166 81.1086C167.722 79.5734 167.551 78.0382 167.337 76.503C167.124 74.8399 166.867 73.1342 166.696 71.4711C166.483 69.3389 166.525 69.3388 164.346 69.2962C164.132 69.2962 163.919 69.2962 163.705 69.2962C161.526 69.2536 159.688 68.486 158.321 66.7376C157.466 65.6715 156.697 64.5627 155.714 63.1981ZM121.23 135.01C118.837 134.371 118.837 134.371 117.768 136.247C114.521 141.919 111.316 147.59 108.068 153.262C107.897 153.561 107.854 153.902 107.726 154.328C112.299 155.522 116.7 156.674 121.272 157.868C121.23 150.149 121.23 142.644 121.23 135.01ZM188.404 301.578C182.806 302.217 177.721 300.426 172.38 299.062C172.38 302.516 172.38 305.757 172.38 308.998C172.38 310.362 172.508 310.533 173.875 310.874C177.294 311.727 180.712 312.111 184.174 311.3C186.396 310.789 188.49 310.021 190.156 308.23C188.789 306.268 188.874 304.008 188.404 301.578ZM169.303 76.1192C169.303 76.8868 169.26 77.6544 169.303 78.422C169.388 79.9572 169.047 81.3644 168.406 82.729C166.739 86.4817 162.038 88.5286 158.534 87.5905C154.774 86.6096 151.868 83.2408 151.697 79.3175C151.655 78.2514 151.697 77.1427 151.697 76.034C151.056 76.2045 150.458 76.4177 149.817 76.5457C148.877 76.7589 148.45 77.3986 148.535 78.2088C148.706 80.0851 148.792 82.0467 149.304 83.8804C150.202 87.2493 152.167 89.8932 155.629 91.0873C157.765 91.8122 159.987 91.9401 162.167 91.6416C166.782 91.002 169.73 88.8698 170.884 83.9231C171.354 81.9615 171.311 79.8719 171.397 77.825C171.439 76.3751 171.354 76.3751 169.303 76.1192ZM215.667 154.243C212.035 147.548 208.274 141.151 204.471 134.499C204.471 142.175 204.471 149.552 204.471 157.185C208.232 156.205 211.821 155.266 215.667 154.243ZM137.81 311.215C140.587 311.94 145.8 311.556 148.108 310.618C148.877 310.32 148.749 309.765 148.749 309.254C148.792 306.226 148.792 303.155 148.792 300.128C148.792 299.829 148.663 299.531 148.578 299.275C144.903 300.17 141.314 301.023 137.81 301.834C137.81 305.032 137.81 308.102 137.81 311.215ZM156.099 221.364C159.816 221.364 163.32 221.364 166.995 221.364C166.995 218.507 166.995 215.778 166.995 213.049C166.995 212.239 166.397 212.196 165.799 212.196C163.021 212.196 160.286 212.196 157.509 212.196C157.039 212.196 156.569 212.281 156.056 212.367C156.099 215.352 156.099 218.251 156.099 221.364ZM26.3648 256.332C25.6811 256.674 25.0828 256.887 24.5273 257.185C23.8009 257.612 23.5017 258.294 23.5872 259.19C24.0145 262.558 24.5273 265.927 24.8692 269.296C25.2965 273.177 25.7665 277.057 25.9802 280.938C26.1939 284.904 26.493 288.87 26.1084 292.836C26.0657 293.262 26.0229 293.689 26.1084 294.115C26.1511 294.328 26.4075 294.712 26.5357 294.712C26.8348 294.669 27.3049 294.541 27.3476 294.328C27.5185 293.646 27.6467 292.964 27.6467 292.239C27.9031 284.264 27.6895 276.332 27.2621 268.401C27.0912 265.416 26.963 262.431 26.7494 259.488C26.7921 258.422 26.5784 257.484 26.3648 256.332ZM21.066 228.358C20.3396 226.482 19.7413 224.947 18.673 223.625C17.1774 221.748 15.2118 220.682 12.8188 220.725C11.195 220.725 9.57115 220.938 7.99008 221.109C7.52002 221.151 6.96451 221.364 6.62265 221.663C6.10987 222.089 5.51163 222.686 5.42616 223.283C5.29797 224.094 5.93894 224.733 6.75085 224.989C7.69095 225.288 8.63105 225.629 9.61389 225.671C11.1095 225.757 12.6051 225.671 14.058 225.629C16.1091 225.586 17.9893 226.098 19.6131 227.335C19.955 227.59 20.3396 227.846 21.066 228.358ZM35.253 227.974C41.15 227.505 44.0985 229.254 46.4915 234.413C46.7479 235.01 47.047 235.565 47.3461 236.119C47.6453 236.674 48.0298 237.356 48.7563 237.143C49.6109 236.887 49.4827 236.034 49.4827 235.352C49.4827 235.266 49.4827 235.224 49.4827 235.138C48.799 231.556 47.0897 228.614 43.8848 226.78C41.4919 225.416 39.0134 225.373 36.5777 226.738C36.1504 226.951 35.8513 227.42 35.253 227.974ZM32.5182 253.816C33.8429 255.138 34.6548 256.759 34.8257 258.635C34.8684 259.19 35.1248 259.701 35.4239 260.213C35.9795 261.237 36.7914 261.322 37.6887 260.554C38.3297 260 38.5861 259.275 38.3724 258.465C37.9451 256.802 37.2187 255.266 36.0649 254.03C34.9539 252.793 34.2702 252.793 32.5182 253.816ZM29.8688 246.055C29.8688 244.435 29.8261 243.028 29.8688 241.62C29.9115 240.554 29.5269 239.872 28.5441 239.488C28.1168 239.318 27.6895 239.147 27.0485 238.934C27.2621 241.407 27.4331 243.71 27.604 246.013C28.3304 246.055 28.9714 246.055 29.8688 246.055ZM33.7147 234.669C33.8429 234.755 33.9283 234.84 34.0565 234.925C34.9112 234.115 35.7231 233.219 36.6632 232.452C37.6033 231.684 38.6288 231.002 39.8681 230.064C38.5434 230.064 37.5605 229.979 36.6204 230.106C35.894 230.192 35.0393 230.448 34.783 231.3C34.3556 232.409 34.0565 233.518 33.7147 234.669ZM181.054 36.0766C181.909 37.5691 181.909 39.1043 181.439 40.6395C180.798 42.6438 180.029 44.6054 179.302 46.567C179.131 47.0361 178.96 47.5478 178.789 48.0169C180.841 45.1171 182.208 41.9615 182.379 38.3794C182.379 37.5265 182.208 36.4604 181.054 36.0766ZM31.2789 260.426C32.0054 260.554 32.7746 260.725 33.8429 260.895C32.7746 259.147 33.2446 256.929 31.2789 255.437C31.2789 257.271 31.2789 258.806 31.2789 260.426ZM142.895 36.0766C141.613 36.8442 141.741 38.0809 141.826 39.2322C141.954 41.8335 142.98 44.1789 144.048 46.5244C144.177 46.8229 144.476 47.0787 144.647 47.3346C144.134 45.245 143.407 43.3687 142.766 41.4071C142.168 39.616 141.954 37.825 142.895 36.0766ZM149.561 28.7845C149.219 33.1342 151.612 36.4177 154.86 36.2045C150.843 34.2855 150.928 33.8591 149.561 28.7845ZM28.8432 262.473C29.5269 260.213 29.5269 257.953 29.356 255.608C28.3732 256.247 28.3304 256.247 28.3732 257.057C28.5014 258.848 28.6723 260.682 28.8432 262.473ZM173.362 27.164C175.371 29.8079 174.773 32.5798 173.875 35.3943C175.969 32.5371 175.755 28.9977 173.362 27.164ZM29.4415 249.424C27.8177 250.703 27.8177 250.703 28.5441 252.494C30.2534 251.897 29.2278 250.49 29.4415 249.424ZM166.91 27.2493C167.465 27.9742 168.021 28.6992 168.534 29.4241C169.004 30.0638 169.132 31.002 169.901 31.471C169.431 29.68 168.833 27.9742 166.91 27.2493ZM276.047 161.322C277.543 160.767 278.697 160.384 279.337 162.047C279.722 161.151 279.508 160.512 278.739 160.213C277.714 159.829 276.816 160 276.047 161.322ZM27.0058 234.627C26.8776 234.755 26.7494 234.883 26.6212 235.01C27.0485 236.46 28.5868 236.631 29.7406 237.228C28.886 236.375 27.9459 235.522 27.0058 234.627ZM23.9718 254.627C24.1 254.755 24.1855 254.84 24.3137 254.968C25.2965 254.371 26.6212 254.03 26.3648 252.111C25.4247 253.049 24.6982 253.816 23.9718 254.627ZM24.2282 234.925C24.4418 234.883 24.6128 234.84 24.8264 234.797C24.741 234.03 25.0828 233.092 23.7154 232.537C23.9291 233.475 24.1 234.2 24.2282 234.925ZM29.5697 292.153C29.5269 292.964 29.4415 293.816 29.3987 294.627C29.997 293.859 29.8688 293.006 29.5697 292.153ZM275.62 164.264C275.748 164.392 275.833 164.477 275.962 164.605C276.261 164.222 276.603 163.795 276.902 163.411C276.816 163.326 276.731 163.283 276.645 163.198C276.304 163.539 275.962 163.88 275.62 164.264ZM190.84 304.008C190.797 304.008 190.754 304.008 190.754 304.008C190.754 304.264 190.754 304.52 190.754 304.776C190.797 304.776 190.84 304.776 190.84 304.776C190.84 304.477 190.84 304.264 190.84 304.008Z" fill="#0E3572"/>
<path d="M254.254 27.8037C262.501 27.8037 270.791 27.9743 279.039 27.761C284.722 27.5905 290.704 32.2813 290.662 39.3175C290.576 50.1064 290.662 60.8954 290.619 71.7269C290.576 76.7589 288.311 80.4689 283.611 82.3879C282.201 82.9849 280.577 83.2408 279.039 83.2408C262.373 83.2834 245.708 83.2834 229.085 83.2834C221.992 83.2834 217.547 77.6971 217.59 71.8548C217.59 60.9806 217.59 50.1064 217.59 39.2322C217.59 33.8591 220.923 29.5094 226.137 28.1448C227.162 27.889 228.23 27.8463 229.299 27.8463C237.631 27.761 245.964 27.8037 254.254 27.8037ZM288.781 43.2834C287.927 43.2834 287.286 43.2834 286.645 43.2834C265.022 43.2834 243.357 43.2834 221.735 43.2834C221.393 43.2834 221.009 43.2834 220.667 43.2834C219.428 43.3261 219.342 43.3687 219.342 44.648C219.342 53.8165 219.257 62.9849 219.385 72.1534C219.428 75.906 221.265 78.7632 224.726 80.4689C226.35 81.2792 228.102 81.4497 229.897 81.4497C245.28 81.4497 260.664 81.4497 276.005 81.4497C277.073 81.4497 278.141 81.4924 279.209 81.4497C281.688 81.3218 283.953 80.6395 285.79 78.8911C287.841 76.9295 288.824 74.4988 288.824 71.6416C288.824 62.6011 288.824 53.6033 288.824 44.5627C288.867 44.2216 288.824 43.8804 288.781 43.2834ZM255.322 39.4028C262.459 39.4028 269.552 39.4028 276.688 39.4028C277.244 39.4028 277.842 39.4028 278.398 39.3602C279.039 39.3175 279.466 38.9337 279.509 38.2941C279.551 37.8676 279.551 37.4412 279.551 37.0148C279.594 33.9444 279.551 33.9018 276.475 33.9018C262.373 33.9018 248.272 33.9018 234.213 33.9018C233.7 33.9018 233.23 33.8591 232.717 33.9018C231.521 34.0297 231.222 34.3282 231.179 35.4796C231.136 36.2472 231.136 37.0574 231.179 37.825C231.264 39.0617 231.478 39.2749 232.717 39.3602C233.23 39.4028 233.7 39.3602 234.213 39.3602C241.264 39.4028 248.314 39.4028 255.322 39.4028Z" fill="#0E3572"/>
<rect x="42.9854" width="73.5522" height="55.403" rx="12" fill="white"/>
<g clip-path="url(#clip1_803_1521)">
<path d="M73.8399 34.9613C73.8399 30.6628 70.4011 27.224 66.1025 27.224C61.804 27.224 58.3652 30.6628 58.3652 34.9613C58.3652 39.2598 61.804 42.6986 66.1025 42.6986C70.3055 42.6986 73.8399 39.2598 73.8399 34.9613Z" fill="#3EAFD1"/>
<path d="M98.7827 16.6393L66.0186 16.6027L65.9974 35.5161L98.7616 35.5527L98.7827 16.6393Z" stroke="#A0A0A0" stroke-width="0.7707" stroke-miterlimit="10" stroke-dasharray="5.23 5.23"/>
</g>
<path d="M79.824 0.0425071C88.2422 0.0425071 96.6177 0.213083 105.036 -0.000136856C110.762 -0.128069 116.274 4.81862 116.274 11.002C116.317 22.0894 116.317 33.1768 116.274 44.2216C116.232 49.2536 112.728 54.4562 106.617 55.2237C105.634 55.3517 104.651 55.4796 103.668 55.4796C87.644 55.4796 71.6623 55.4796 55.6378 55.4796C52.8175 55.4796 50.1254 54.9252 47.8179 53.2195C44.8266 50.9593 43.331 47.9743 43.2028 44.3069C43.1174 41.2365 43.1601 38.2088 43.1601 35.1385C43.1601 27.3346 43.1601 19.5308 43.1601 11.6843C43.1601 8.35807 44.1857 5.41564 46.6641 3.07023C48.758 1.06596 51.2364 0.0425071 54.1422 0.0425071C62.774 0.085151 71.3204 0.0425071 79.824 0.0425071ZM79.7386 1.83355C71.4059 1.83355 63.0732 1.83355 54.7404 1.83355C53.8431 1.83355 52.903 1.91884 52.0056 2.13206C47.476 3.28345 44.9548 7.33462 44.9976 11.4284C45.0403 20.0851 44.9976 28.7845 44.9976 37.4412C44.9976 39.7866 44.9548 42.1321 44.9976 44.4775C45.083 48.6139 47.9033 52.2813 51.8347 53.2621C53.3303 53.6459 54.9114 53.7738 56.4924 53.7738C72.0041 53.8165 87.5585 53.8165 103.07 53.7738C104.181 53.7738 105.335 53.6033 106.446 53.4753C110.976 52.9636 114.437 49.2109 114.48 44.4348C114.565 33.2621 114.522 22.1321 114.522 10.9594C114.522 9.29624 114.052 7.71841 113.155 6.31116C111.275 3.41138 108.668 1.79091 105.164 1.79091C96.7031 1.83355 88.1995 1.83355 79.7386 1.83355Z" fill="#0E3572"/>
<path d="M162.764 169.808C150.67 169.808 138.535 169.808 126.441 169.808C126.142 169.808 125.886 169.808 125.587 169.808C123.151 169.808 123.108 169.765 123.108 167.292C123.108 152.367 123.108 137.441 123.108 122.516C123.108 122.175 123.108 121.791 123.108 121.45C123.237 119.616 124.647 118.124 126.484 117.868C127.04 117.782 127.638 117.825 128.193 117.825C151.269 117.825 174.344 117.825 197.419 117.825C197.932 117.825 198.402 117.825 198.915 117.825C201.009 117.996 202.461 119.488 202.59 121.535C202.59 121.876 202.59 122.26 202.59 122.601C202.59 137.399 202.59 152.153 202.59 166.951C202.59 169.765 202.59 169.765 199.769 169.765C187.42 169.808 175.07 169.808 162.764 169.808ZM162.764 154.584C168.276 154.755 172.293 150.021 172.293 145.202C172.293 140.085 168.148 135.778 163.02 135.693C157.764 135.608 153.533 139.787 153.363 144.989C153.192 149.552 157.208 154.712 162.764 154.584Z" fill="white"/>
<path d="M146.313 77.7822C146.868 80.5114 147.167 83.0701 147.937 85.4581C149.56 90.4048 153.235 93.0061 158.406 93.5178C160.372 93.7311 162.38 93.6031 164.346 93.0914C167.636 92.2385 170.072 90.2769 171.567 87.2918C172.55 85.2876 173.191 83.198 173.148 80.9379C173.148 79.7439 173.148 78.5498 173.148 77.2705C173.832 77.3558 174.26 77.3984 174.644 77.4837C179.772 79.1042 184.985 80.5967 190.07 82.3878C200.326 85.9699 208.488 92.2812 214.598 101.322C218.701 107.377 221.735 113.902 223.572 120.938C223.828 121.961 224.085 122.985 224.299 124.051C224.469 124.818 224.256 125.373 223.572 125.842C218.914 129.126 213.786 131.258 208.189 132.281C207.035 132.494 205.838 132.622 204.514 132.793C204.471 132.068 204.385 131.514 204.385 130.959C204.385 128.102 204.257 125.288 204.428 122.43C204.642 118.635 201.822 115.991 197.89 115.991C176.097 116.076 154.304 116.034 132.51 116.034C130.673 116.034 128.793 115.991 126.955 116.034C124.391 116.119 122.383 117.526 121.614 119.872C121.357 120.597 121.315 121.407 121.315 122.175C121.272 125.032 121.315 127.846 121.315 130.703C121.315 131.386 121.272 132.068 121.229 132.836C113.409 132.622 106.444 130.405 100.162 126.055C98.795 125.117 98.6668 125.33 99.0941 123.283C101.103 113.646 105.29 105.032 111.444 97.3984C116.614 91.0019 123.109 86.1831 130.801 83.1554C132.382 82.5157 134.134 82.2598 135.587 81.4496C138.578 79.7865 141.954 79.1895 145.116 78.0381C145.501 77.9528 145.928 77.8675 146.313 77.7822Z" fill="white"/>
<path d="M42.7323 232.068C43.2023 232.878 43.6724 233.518 44.0142 234.158C44.3988 234.84 44.6552 235.565 44.997 236.29C46.279 238.848 46.92 239.275 49.7403 239.446C49.783 239.488 49.8257 239.531 49.8685 239.616C49.9112 239.659 49.9539 239.744 49.9539 239.787C49.9967 265.501 49.9967 291.215 49.9967 316.93C49.9967 317.271 49.9539 317.612 49.9112 318.209C48.2447 318.209 46.6209 318.251 45.0398 318.251C43.5014 318.251 41.9204 318.251 40.382 318.251C41.9204 317.057 43.5014 315.991 44.8689 314.669C47.3473 312.324 48.4583 309.254 48.672 305.885C48.8002 303.625 48.7575 301.322 48.7147 299.062C48.672 296.205 47.2191 294.712 44.3561 294.712C40.8521 294.669 37.3908 294.712 33.8868 294.712C33.2031 294.712 32.4766 294.712 31.622 294.712C31.451 292.153 31.2374 289.765 31.1519 287.377C30.981 281.151 30.8955 274.883 30.7673 268.657C30.7246 267.292 30.8955 266.226 32.3484 265.501C33.5449 264.904 34.485 263.88 34.8269 262.431C36.5361 263.198 37.9463 262.772 39.1 261.492C40.2538 260.256 40.4675 258.848 39.7838 257.356C39.0573 255.821 38.3309 254.243 37.3053 252.921C35.8097 251.045 34.4423 250.831 32.1775 251.684C31.9211 251.77 31.6647 251.898 31.2801 252.068C31.2374 251.556 31.1519 251.173 31.1519 250.746C31.2801 248.06 31.4083 245.373 31.5792 242.686C31.622 241.663 32.0066 241.364 32.9467 241.748C33.9722 242.175 34.9551 242.814 35.9379 243.369C37.0062 243.966 37.989 244.733 39.3137 244.52C39.741 244.435 40.382 244.222 40.5102 243.88C40.6811 243.539 40.4675 242.9 40.2111 242.559C39.3564 241.407 38.1599 240.853 36.7925 240.597C35.9806 240.426 35.126 240.256 34.1004 240.043C35.126 239.232 36.1088 239.403 37.0917 239.488C38.5873 239.573 40.0829 239.744 41.5358 239.744C43.2023 239.701 44.527 238.891 44.3561 238.038C44.0997 236.674 42.8177 236.802 41.8349 236.503C40.1256 236.034 38.4591 236.418 36.7925 236.93C36.1515 237.143 35.5106 237.313 34.485 237.654C36.878 234.925 39.741 233.689 42.7323 232.068Z" fill="white"/>
<path d="M116.445 134.925C114.351 138.635 112.428 142.047 110.505 145.416C109.266 147.633 107.984 149.851 106.745 152.068C105.805 153.731 105.762 153.688 103.924 153.262C103.113 153.049 102.258 152.878 101.446 152.708C100.891 152.622 100.207 152.58 100.121 153.347C100.036 154.03 100.591 154.286 101.19 154.456C102.429 154.755 103.668 155.053 104.907 155.394C109.907 156.716 114.949 157.996 119.949 159.317C121.359 159.701 121.359 159.701 121.359 161.194C121.359 163.198 121.359 165.16 121.359 167.164C121.359 167.59 121.445 168.017 121.359 168.443C121.103 169.595 122.641 170.405 121.786 171.812C121.231 172.708 121.359 173.987 121.145 175.224C118.752 174.712 116.359 174.158 113.966 173.646C106.702 172.068 99.3949 170.49 92.1305 168.998C86.1908 167.761 83.4132 161.407 86.1908 156.247C90.1648 148.784 94.0962 141.322 98.0275 133.859C98.7112 132.58 98.7539 132.537 99.9504 133.006C104.565 134.797 109.309 135.224 114.18 134.968C114.821 134.883 115.462 134.925 116.445 134.925ZM90.464 162.558C90.1648 161.706 89.9512 160.81 89.5239 160C89.2247 159.403 88.3701 159.36 88.1137 159.872C87.7291 160.725 87.3445 161.62 87.1309 162.558C87.0454 163.028 87.2591 163.667 87.5582 164.094C87.9428 164.605 88.5838 164.776 89.2675 164.52C90.2503 164.179 90.3785 163.454 90.464 162.558Z" fill="white"/>
<path d="M206.864 134.925C209.3 134.925 211.565 134.968 213.83 134.925C216.906 134.84 219.897 134.243 222.76 133.177C224.555 132.537 224.555 132.494 225.41 134.072C229.256 141.407 233.102 148.784 236.947 156.119C237.674 157.484 238.016 158.848 238.101 160.384C238.315 163.923 235.495 168.059 231.435 168.912C227.546 169.723 223.658 170.618 219.812 171.428C215.368 172.367 210.924 173.305 206.48 174.243C205.881 174.371 205.24 174.456 204.685 174.541C204.3 173.305 203.916 172.153 203.617 171.045C203.574 170.831 203.617 170.448 203.745 170.277C204.343 169.467 204.343 168.571 204.343 167.633C204.343 165.16 204.386 162.644 204.343 160.17C204.343 159.317 204.642 158.934 205.497 158.72C209.3 157.782 213.06 156.759 216.821 155.778C218.53 155.352 220.239 154.925 221.991 154.456C222.333 154.371 222.675 154.2 222.931 153.987C223.102 153.816 223.188 153.433 223.102 153.219C223.017 153.006 222.718 152.708 222.504 152.708C221.607 152.793 220.667 152.964 219.812 153.134C217.334 153.688 217.761 154.115 216.393 151.684C213.701 146.951 210.966 142.217 208.274 137.441C207.804 136.716 207.377 135.906 206.864 134.925ZM234.426 159.403C234.084 159.659 233.7 159.829 233.614 160.128C233.315 161.066 233.016 162.004 232.888 162.985C232.802 163.752 233.273 164.435 233.999 164.563C234.554 164.648 235.281 164.435 235.708 164.094C236.306 163.625 236.349 162.857 235.922 162.175C235.537 161.535 234.982 160.981 235.153 160.128C235.238 159.957 234.725 159.701 234.426 159.403Z" fill="white"/>
<path d="M28.9282 296.503C33.7569 296.503 38.5856 296.503 43.457 296.503C44.0125 296.503 44.6108 296.46 45.1663 296.546C46.1919 296.674 47.0038 297.313 46.961 298.337C46.961 301.578 47.3884 304.861 46.6192 308.102C45.6791 311.94 43.3716 314.669 39.7821 316.29C36.9618 317.569 34.0133 318.209 30.8939 318.251C27.4326 318.251 23.9286 318.379 20.5527 317.356C15.895 315.991 12.391 313.39 11.0235 308.529C10.6817 307.377 10.5108 306.183 10.4253 304.989C10.3398 303.07 10.3398 301.151 10.3826 299.232C10.4253 297.271 11.1517 296.546 13.1174 296.503C18.3734 296.46 23.6294 296.503 28.9282 296.503Z" fill="white"/>
<path d="M146.442 48.4433C147.425 49.0404 147.724 50.1065 148.151 51.0446C148.45 51.8122 148.664 52.4945 149.775 52.2813C151.057 52.0681 151.271 52.0254 151.399 50.5329C151.612 48.486 151.698 46.4391 151.783 44.3922C151.826 43.1981 151.783 42.0041 151.783 40.7248C158.321 40.7248 164.688 40.7248 171.226 40.7248C171.269 41.1939 171.312 41.663 171.355 42.132C171.397 44.3495 171.397 46.5244 171.44 48.7418C171.483 49.5094 171.696 50.277 171.739 51.0446C171.782 52.1534 172.594 52.1107 173.363 52.2813C174.218 52.4945 174.517 51.9828 174.816 51.3858C175.371 50.3197 175.585 49.083 176.696 48.4007C178.448 50.1491 178.491 51.4711 176.611 52.793C175.371 53.6459 174.602 54.7546 173.833 55.906C167.637 64.9892 154.176 64.3922 148.835 54.7973C148.45 54.115 148.108 53.518 147.254 53.39C146.955 53.3474 146.656 53.0489 146.399 52.793C144.562 51.2578 144.562 50.1917 146.442 48.4433Z" fill="white"/>
<path d="M162.806 177.143C150.585 177.143 138.321 177.143 126.099 177.143C123.108 177.143 123.065 177.1 123.108 174.2C123.151 171.94 123.407 171.642 125.715 171.642C150.456 171.642 175.241 171.642 199.983 171.642C200.325 171.642 200.709 171.556 201.051 171.684C201.478 171.855 202.205 172.111 202.247 172.409C202.376 173.774 202.376 175.181 202.247 176.588C202.247 176.802 201.564 177.057 201.179 177.1C200.538 177.185 199.897 177.143 199.256 177.143C187.12 177.143 174.984 177.143 162.806 177.143Z" fill="white"/>
<path d="M265.279 157.143C267.629 157.143 269.98 157.1 272.33 157.143C273.783 157.143 273.911 157.271 273.911 158.721C273.911 163.454 273.954 168.23 273.911 172.964C273.868 175.352 272.586 176.631 270.193 176.674C266.86 176.716 263.527 176.716 260.194 176.674C257.801 176.631 256.519 175.352 256.519 172.964C256.476 168.23 256.519 163.454 256.519 158.721C256.519 157.228 256.604 157.143 258.057 157.143C260.45 157.1 262.886 157.143 265.279 157.143Z" fill="white"/>
<path d="M155.714 63.198C156.697 64.52 157.466 65.6287 158.321 66.6948C159.688 68.4432 161.526 69.1681 163.705 69.2534C163.919 69.2534 164.132 69.2534 164.346 69.2534C166.525 69.2961 166.483 69.2961 166.696 71.4283C166.867 73.134 167.123 74.7972 167.337 76.4603C167.551 77.9954 167.679 79.5306 167.166 81.0658C165.799 84.9891 162.124 86.3537 159.816 85.9699C155.97 85.3728 153.492 82.601 153.535 78.8483C153.535 77.2279 153.791 75.6074 154.005 73.9869C154.432 70.746 154.902 67.5477 155.329 64.3067C155.372 64.0509 155.543 63.7097 155.714 63.198Z" fill="white"/>
<path d="M121.229 135.01C121.229 142.644 121.229 150.149 121.229 157.825C116.656 156.631 112.255 155.48 107.683 154.285C107.811 153.816 107.896 153.475 108.024 153.219C111.229 147.548 114.477 141.876 117.725 136.204C118.836 134.371 118.836 134.371 121.229 135.01Z" fill="white"/>
<path d="M169.301 76.1193C171.352 76.3752 171.438 76.3752 171.395 77.8251C171.309 79.872 171.352 81.9616 170.882 83.9232C169.685 88.8699 166.78 91.0021 162.165 91.6417C159.985 91.9402 157.763 91.855 155.627 91.0874C152.165 89.8933 150.2 87.2494 149.302 83.8805C148.79 82.0468 148.747 80.1279 148.533 78.2089C148.448 77.356 148.875 76.7164 149.815 76.5458C150.413 76.4179 151.054 76.2046 151.695 76.0341C151.695 77.1854 151.653 78.2515 151.695 79.3176C151.824 83.2409 154.729 86.5671 158.532 87.5906C162.036 88.5287 166.737 86.4818 168.404 82.7292C169.002 81.3645 169.386 79.9147 169.301 78.4221C169.258 77.6545 169.301 76.8869 169.301 76.1193Z" fill="white"/>
<path d="M215.666 154.243C211.821 155.266 208.231 156.205 204.471 157.185C204.471 149.552 204.471 142.175 204.471 134.499C208.274 141.151 212.034 147.548 215.666 154.243Z" fill="white"/>
<path d="M21.0673 228.358C20.3409 227.889 19.9563 227.633 19.5717 227.335C17.9051 226.098 16.0677 225.586 14.0165 225.629C12.5209 225.672 11.0253 225.757 9.57242 225.672C8.58959 225.586 7.64949 225.288 6.70939 224.989C5.94021 224.733 5.2565 224.094 5.3847 223.284C5.47016 222.686 6.11114 222.132 6.58119 221.663C6.92305 221.365 7.47856 221.194 7.94861 221.109C9.57242 220.938 11.1962 220.725 12.7773 220.725C15.1703 220.682 17.136 221.748 18.6316 223.625C19.7426 224.904 20.3409 226.439 21.0673 228.358Z" fill="#ED1C24"/>
<path d="M16.709 235.48C15.1707 235.309 13.7178 234.925 12.094 235.309C9.18823 236.034 7.17983 237.74 5.76968 240.256C5.42782 240.853 5.21416 241.578 4.91504 242.175C4.57319 242.814 4.27406 243.454 3.80401 243.966C3.59035 244.222 3.07757 244.35 2.69298 244.307C2.47933 244.264 2.26567 243.795 2.1802 243.497C2.09474 243.028 2.13747 242.516 2.1802 242.004C2.73572 238.038 6.15427 233.817 10.0429 233.177C12.735 232.751 14.957 233.433 16.709 235.48Z" fill="#3EAFD1"/>
<path d="M35.2539 227.974C35.8094 227.42 36.1513 226.951 36.5786 226.737C39.0143 225.373 41.4928 225.416 43.8857 226.78C47.1334 228.614 48.8426 231.556 49.4836 235.138C49.4836 235.224 49.4836 235.266 49.4836 235.352C49.4836 236.034 49.6118 236.887 48.7572 237.143C47.988 237.356 47.6462 236.674 47.347 236.119C47.0479 235.565 46.7488 235.01 46.4924 234.413C44.0994 229.211 41.1509 227.462 35.2539 227.974Z" fill="#3EAFD1"/>
<path d="M32.5186 253.817C34.2706 252.793 34.9543 252.793 36.0653 254.03C37.2191 255.309 37.9455 256.844 38.3728 258.465C38.5865 259.275 38.3301 260 37.6891 260.554C36.7917 261.322 35.9798 261.194 35.4243 260.213C35.1679 259.744 34.9115 259.19 34.8261 258.635C34.6124 256.802 33.8432 255.181 32.5186 253.817Z" fill="#ED1C24"/>
<path d="M181.054 36.0765C182.207 36.4603 182.378 37.4837 182.336 38.4219C182.165 41.9613 180.797 45.117 178.746 48.0594C178.917 47.5903 179.088 47.0786 179.259 46.6095C179.985 44.6479 180.754 42.6863 181.395 40.682C181.908 39.1042 181.908 37.569 181.054 36.0765Z" fill="white"/>
<path d="M142.895 36.0765C141.912 37.8675 142.168 39.6586 142.766 41.407C143.407 43.3259 144.134 45.2449 144.647 47.3345C144.433 47.0786 144.177 46.8227 144.048 46.5242C142.98 44.2215 141.955 41.8334 141.826 39.2321C141.741 38.0381 141.613 36.8441 142.895 36.0765Z" fill="white"/>
<path d="M149.563 28.7845C150.887 33.8592 150.845 34.2856 154.862 36.2046C151.614 36.4178 149.221 33.1342 149.563 28.7845Z" fill="white"/>
<path d="M173.362 27.1639C175.755 28.9976 175.969 32.5797 173.875 35.3942C174.772 32.5797 175.371 29.8079 173.362 27.1639Z" fill="white"/>
<path d="M166.91 27.2493C168.833 27.9743 169.431 29.68 169.944 31.4711C169.132 31.002 169.047 30.1065 168.577 29.4242C168.021 28.6992 167.466 27.9743 166.91 27.2493Z" fill="white"/>
<path d="M276.049 161.322C276.818 160 277.715 159.829 278.741 160.213C279.51 160.512 279.724 161.151 279.339 162.047C278.698 160.426 277.544 160.768 276.049 161.322Z" fill="white"/>
<path d="M190.627 301.578C189.901 300.384 190.414 299.147 190.67 297.91C190.67 298.507 190.67 299.104 190.67 299.701C190.67 300.341 190.627 300.981 190.627 301.578Z" fill="white"/>
<path d="M29.5703 292.153C29.8695 292.964 29.9977 293.817 29.3994 294.627C29.4421 293.817 29.5276 293.006 29.5703 292.153Z" fill="white"/>
<path d="M275.619 164.264C275.961 163.923 276.303 163.539 276.645 163.198C276.73 163.283 276.816 163.326 276.901 163.411C276.602 163.795 276.26 164.221 275.961 164.605C275.833 164.477 275.747 164.349 275.619 164.264Z" fill="white"/>
<path d="M190.839 304.008C190.839 304.264 190.839 304.52 190.839 304.776C190.797 304.776 190.754 304.776 190.754 304.776C190.754 304.52 190.754 304.264 190.754 304.008C190.797 304.008 190.839 304.008 190.839 304.008Z" fill="white"/>
<path d="M18.4183 220.554C18.2474 220.426 18.1192 220.298 17.9482 220.17L17.991 220.128C18.1192 220.298 18.2474 220.469 18.4183 220.554C18.3756 220.597 18.4183 220.554 18.4183 220.554Z" fill="white"/>
<path d="M27.7764 206.951C27.8191 206.993 27.9046 207.079 27.9473 207.121C27.9046 207.121 27.8618 207.079 27.8618 207.079C27.8618 207.036 27.8618 206.993 27.7764 206.951Z" fill="white"/>
<path d="M16.6641 235.522C16.7495 235.565 16.7923 235.65 16.8777 235.693C16.835 235.693 16.7923 235.693 16.7495 235.65C16.7495 235.607 16.7495 235.565 16.6641 235.522Z" fill="white"/>
<path d="M20.5521 222.686C20.4239 222.558 20.253 222.388 20.1248 222.26L20.082 222.303C20.253 222.473 20.3812 222.601 20.5521 222.686Z" fill="white"/>
<path d="M19.6982 221.876C19.8264 222.004 19.9974 222.175 20.1256 222.303L20.1683 222.26C19.9974 222.132 19.8692 222.004 19.6982 221.876Z" fill="white"/>
<path d="M19.2725 221.45C19.4007 221.578 19.5716 221.748 19.6998 221.876L19.7425 221.833C19.5716 221.705 19.4434 221.578 19.2725 221.45Z" fill="white"/>
<path d="M19.3138 221.407C19.1856 221.279 19.0147 221.109 18.8865 220.981L18.8438 221.023C18.9719 221.194 19.1001 221.322 19.3138 221.407Z" fill="white"/>
<path d="M18.373 220.597C18.5012 220.725 18.6722 220.895 18.8004 221.023L18.8431 220.981C18.7149 220.853 18.5867 220.725 18.373 220.597Z" fill="white"/>
<path d="M190.582 301.62C190.625 301.706 190.71 301.748 190.753 301.834C190.71 301.834 190.668 301.791 190.668 301.791C190.668 301.706 190.668 301.663 190.582 301.62C190.625 301.578 190.582 301.62 190.582 301.62Z" fill="white"/>
<path d="M288.783 43.2836C288.826 43.8806 288.868 44.2217 288.868 44.5629C288.868 53.6034 288.868 62.6013 288.868 71.6418C288.868 74.4563 287.886 76.887 285.834 78.8912C283.997 80.6396 281.732 81.3219 279.254 81.4499C278.185 81.4925 277.117 81.4499 276.049 81.4499C260.665 81.4499 245.282 81.4499 229.941 81.4499C228.146 81.4499 226.394 81.2367 224.771 80.4691C221.309 78.7633 219.472 75.9062 219.429 72.1535C219.301 62.9851 219.386 53.8166 219.386 44.6482C219.386 43.3689 219.472 43.3689 220.711 43.2836C221.053 43.2836 221.437 43.2836 221.779 43.2836C243.402 43.2836 265.067 43.2836 286.689 43.2836C287.287 43.2836 287.928 43.2836 288.783 43.2836Z" fill="white"/>
<path d="M249.448 72.5963C248.599 72.6212 248.175 71.999 248.434 71.327C248.764 70.4062 249.141 69.4854 249.519 68.5645C251.665 63.2884 253.81 57.9874 255.956 52.7113C256.05 52.4873 256.145 52.2633 256.286 52.0393C256.593 51.5914 257.017 51.4669 257.418 51.6909C257.866 51.9149 258.031 52.3878 257.819 52.9353C257.394 54.0552 256.946 55.1503 256.498 56.2453C254.423 61.3721 252.325 66.4989 250.25 71.6506C250.014 72.1483 249.802 72.5714 249.448 72.5963Z" fill="#ED1C24"/>
<path d="M265.339 61.2247C264.683 60.7238 264.094 60.2468 263.505 59.7698C262.871 59.269 262.215 58.792 261.581 58.315C261.377 58.148 261.15 57.981 260.992 57.7664C260.72 57.4325 260.697 57.027 260.969 56.6693C261.218 56.3354 261.558 56.3115 261.898 56.4069C262.147 56.5023 262.35 56.6693 262.577 56.8362C263.981 57.8856 265.407 58.9589 266.788 60.0322C267.626 60.6761 267.671 61.1532 266.992 61.9879C265.905 63.2997 264.796 64.5876 263.686 65.8994C263.505 66.114 263.347 66.3287 263.143 66.4957C262.667 66.9488 262.35 66.9727 261.943 66.6388C261.603 66.3526 261.558 65.8517 261.852 65.3508C262.056 65.0169 262.328 64.7307 262.577 64.4445C263.483 63.4189 264.388 62.3695 265.339 61.2247Z" fill="#ED1C24"/>
<path d="M240.315 62.0184C241.689 62.9495 243.011 63.8328 244.333 64.7162C244.619 64.9072 244.904 65.0743 245.137 65.2892C245.578 65.6951 245.604 66.1725 245.241 66.5545C244.878 66.9127 244.515 66.9843 243.971 66.65C242.83 65.9338 241.715 65.1937 240.6 64.4536C239.874 63.9761 239.123 63.4986 238.423 62.9733C237.697 62.4242 237.671 62.0422 238.293 61.3737C239.745 59.8458 241.223 58.3417 242.674 56.8376C242.804 56.6943 242.985 56.5511 243.167 56.4556C243.556 56.2646 244.074 56.3601 244.333 56.6943C244.619 57.0524 244.619 57.4583 244.308 57.7925C243.763 58.4133 243.193 58.9863 242.622 59.5831C241.897 60.3949 241.119 61.1827 240.315 62.0184Z" fill="#ED1C24"/>
<path d="M255.323 39.4027C248.272 39.4027 241.221 39.4027 234.17 39.4027C233.658 39.4027 233.188 39.4454 232.675 39.4027C231.436 39.3174 231.222 39.1042 231.137 37.8675C231.094 37.1 231.094 36.2897 231.137 35.5221C231.179 34.3707 231.521 34.0722 232.675 33.9443C233.188 33.9017 233.658 33.9443 234.17 33.9443C248.272 33.9443 262.374 33.9443 276.432 33.9443C279.466 33.9443 279.552 33.987 279.509 37.0573C279.509 37.4838 279.509 37.9102 279.466 38.3366C279.424 39.0189 278.996 39.3601 278.355 39.4027C277.8 39.4454 277.202 39.4454 276.646 39.4454C269.595 39.4027 262.459 39.4027 255.323 39.4027Z" fill="white"/>
<path d="M162.767 154.584C157.212 154.712 153.238 149.595 153.409 145.032C153.58 139.829 157.81 135.65 163.066 135.735C168.151 135.821 172.339 140.085 172.339 145.245C172.296 150.021 168.279 154.755 162.767 154.584Z" fill="#3EAFD1"/>
<path d="M90.4641 162.559C90.3359 163.454 90.2504 164.179 89.353 164.52C88.6693 164.776 88.0284 164.648 87.6438 164.094C87.3447 163.667 87.0883 163.028 87.2165 162.559C87.3874 161.62 87.8147 160.725 88.1993 159.872C88.4129 159.36 89.3103 159.403 89.6094 160C89.9513 160.853 90.1649 161.706 90.4641 162.559Z" fill="#0E3572"/>
<path d="M234.427 159.403C234.726 159.659 235.239 159.914 235.196 160.085C235.025 160.938 235.538 161.492 235.965 162.132C236.392 162.814 236.35 163.582 235.751 164.051C235.281 164.392 234.598 164.605 234.042 164.52C233.273 164.392 232.803 163.71 232.931 162.942C233.059 161.961 233.316 161.023 233.658 160.085C233.7 159.872 234.085 159.701 234.427 159.403Z" fill="#0E3572"/>
<g clip-path="url(#clip2_803_1521)">
<path d="M269.048 126.395L260.744 112.151C260.676 112.082 260.573 112.117 260.573 112.22V124.355C260.573 124.39 260.607 124.424 260.641 124.424C260.95 124.597 261.122 125.046 260.813 125.461C260.813 125.461 260.813 125.496 260.779 125.496C260.264 125.876 259.681 125.53 259.681 125.012C259.681 124.77 259.818 124.562 260.024 124.459C260.058 124.424 260.092 124.424 260.092 124.355V112.186C260.092 112.082 259.955 112.048 259.921 112.117L251.548 126.084C251.514 126.118 251.514 126.153 251.548 126.187L255.666 134.968H264.965L269.048 126.498C269.083 126.464 269.083 126.429 269.048 126.395Z" fill="#0E3572"/>
<path d="M264.519 139.463H256.112C255.804 139.463 255.563 139.221 255.563 138.909V135.452C255.563 135.383 255.598 135.349 255.666 135.349H264.931C265 135.349 265.034 135.383 265.034 135.452V138.909C265.034 139.221 264.794 139.463 264.519 139.463Z" fill="#0E3572"/>
<path d="M247.534 96.2829C247.534 103.405 253.265 109.178 260.333 109.178" stroke="#3EAFD1" stroke-miterlimit="10"/>
<path d="M273.165 122.281C273.165 115.159 267.435 109.385 260.366 109.385" stroke="#3EAFD1" stroke-miterlimit="10"/>
<path d="M248.496 95.5224H246.608V97.4238H248.496V95.5224Z" fill="#ED1C24"/>
<path d="M273.921 121.002H272.034V122.903H273.921V121.002Z" fill="#ED1C24"/>
<path d="M243.623 109.282H277.422" stroke="#3EAFD1" stroke-miterlimit="10"/>
<path d="M261.19 108.521H259.303V110.423H261.19V108.521Z" fill="#ED1C24"/>
<path d="M244.514 108.521H242.627V110.423H244.514V108.521Z" fill="#ED1C24"/>
<path d="M277.969 108.521H276.082V110.423H277.969V108.521Z" fill="#ED1C24"/>
</g>
</g>
<g clip-path="url(#clip3_803_1521)">
<path d="M69.2354 97.7779C73.302 97.7779 76.5987 94.5133 76.5987 90.4862C76.5987 86.4592 73.302 83.1946 69.2354 83.1946C65.1687 83.1946 61.8721 86.4592 61.8721 90.4862C61.8721 94.5133 65.1687 97.7779 69.2354 97.7779Z" fill="#0E3572"/>
<path d="M65.6149 93.4141C67.0838 89.6588 65.2004 85.4354 61.4082 83.9809C57.6161 82.5263 53.3512 84.3913 51.8823 88.1466C50.4134 91.9018 52.2968 96.1252 56.089 97.5798C59.8811 99.0344 64.146 97.1693 65.6149 93.4141Z" fill="#3EAFD1"/>
<path d="M65.3727 106.896C69.3861 106.247 72.1079 102.498 71.4519 98.524C70.796 94.5496 67.0107 91.8544 62.9973 92.504C58.984 93.1535 56.2622 96.9019 56.9182 100.876C57.5741 104.851 61.3594 107.546 65.3727 106.896Z" fill="#ED1C24"/>
<path d="M86.6085 109.312V110.174H85.7383" stroke="#A0A0A0" stroke-width="0.7707" stroke-miterlimit="10"/>
<path d="M83.9956 110.174H42.7275" stroke="#A0A0A0" stroke-width="0.7707" stroke-miterlimit="10" stroke-dasharray="5.24 5.24"/>
<path d="M41.8585 110.174H40.9883V109.312" stroke="#A0A0A0" stroke-width="0.7707" stroke-miterlimit="10"/>
<path d="M40.9883 107.655V81.9684" stroke="#A0A0A0" stroke-width="0.7707" stroke-miterlimit="10" stroke-dasharray="5 5"/>
<path d="M40.9883 81.1398V80.2781H41.8585" stroke="#A0A0A0" stroke-width="0.7707" stroke-miterlimit="10"/>
<path d="M43.6006 80.2781H84.8687" stroke="#A0A0A0" stroke-width="0.7707" stroke-miterlimit="10" stroke-dasharray="5.24 5.24"/>
<path d="M85.7383 80.2781H86.6085V81.1398" stroke="#A0A0A0" stroke-width="0.7707" stroke-miterlimit="10"/>
<path d="M86.6074 82.7969V108.483" stroke="#A0A0A0" stroke-width="0.7707" stroke-miterlimit="10" stroke-dasharray="5 5"/>
<path d="M42.563 79.582H40.4209V81.7032H42.563V79.582Z" fill="white" stroke="#222221" stroke-width="0.5" stroke-miterlimit="10"/>
<path d="M87.5776 79.582H85.4355V81.7032H87.5776V79.582Z" fill="white" stroke="#222221" stroke-width="0.5" stroke-miterlimit="10"/>
<path d="M42.563 108.483H40.4209V110.605H42.563V108.483Z" fill="white" stroke="#222221" stroke-width="0.5" stroke-miterlimit="10"/>
<path d="M87.5776 108.483H85.4355V110.605H87.5776V108.483Z" fill="white" stroke="#222221" stroke-width="0.5" stroke-miterlimit="10"/>
<path d="M75.0977 112.162L73.6585 116.239C73.5246 116.637 72.9556 116.637 72.8217 116.239L70.0103 107.224C69.9099 106.893 70.2446 106.561 70.5793 106.694L79.683 109.743C80.0847 109.876 80.0847 110.439 79.683 110.572L75.3654 111.93C75.2316 111.93 75.1312 112.03 75.0977 112.162Z" fill="#122832"/>
</g>
<defs>
<clipPath id="clip0_803_1521">
<rect width="294.209" height="320" fill="white"/>
</clipPath>
<clipPath id="clip1_803_1521">
<rect width="40.8836" height="26.4597" fill="white" transform="translate(58.2686 16.2388)"/>
</clipPath>
<clipPath id="clip2_803_1521">
<rect width="35.3433" height="43.9403" fill="white" transform="translate(242.627 95.5224)"/>
</clipPath>
<clipPath id="clip3_803_1521">
<rect width="47.7612" height="37.2537" fill="white" transform="translate(40.1191 79.2837)"/>
</clipPath>
</defs>
</svg>
