<svg width="34" height="51" viewBox="0 0 34 51" fill="none" xmlns="http://www.w3.org/2000/svg">
<path d="M24.9554 33.9995C29.5497 33.9995 33.2741 30.1941 33.2741 25.4998C33.2741 20.8055 29.5497 17 24.9554 17C20.3611 17 16.6367 20.8055 16.6367 25.4998C16.6367 30.1941 20.3611 33.9995 24.9554 33.9995Z" fill="#19BCFE"/>
<path fill-rule="evenodd" clip-rule="evenodd" d="M8.31871 51C12.913 51 16.6374 47.1944 16.6374 42.5C16.6374 41.2185 16.6374 38.3852 16.6374 34C12.9003 34 10.1274 34 8.31871 34C3.72441 34 0 37.8056 0 42.5C0 47.1944 3.72441 51 8.31871 51Z" fill="#09CF83"/>
<path fill-rule="evenodd" clip-rule="evenodd" d="M8.31871 33.9995C9.85015 33.9995 12.623 33.9995 16.6374 33.9995V17C12.623 17 9.85015 17 8.31871 17C3.72441 17 0 20.8055 0 25.4998C0 30.1941 3.72441 33.9995 8.31871 33.9995Z" fill="#A259FF"/>
<path fill-rule="evenodd" clip-rule="evenodd" d="M8.31871 17C9.85015 17 12.623 17 16.6374 17V0C12.623 0 9.85015 0 8.31871 0C3.72441 0 0 3.80558 0 8.5C0 13.1944 3.72441 17 8.31871 17Z" fill="#F24E1E"/>
<path fill-rule="evenodd" clip-rule="evenodd" d="M24.9554 17H16.6367V0H24.9554C29.5497 0 33.2741 3.80558 33.2741 8.5C33.2741 13.1944 29.5497 17 24.9554 17Z" fill="#FF7262"/>
</svg>
