<svg width="51" height="51" viewBox="0 0 51 51" fill="none" xmlns="http://www.w3.org/2000/svg">
<path d="M46.3767 0H4.62327C2.06988 0 0 2.06988 0 4.62327V46.3767C0 48.9301 2.06988 51 4.62327 51H46.3767C48.9301 51 51 48.9301 51 46.3767V4.62327C51 2.06988 48.9301 0 46.3767 0Z" fill="#DC395F"/>
<path d="M17.0434 16.0461C18.7388 16.0461 20.159 14.7173 20.159 12.9757C20.159 11.2353 18.7388 9.90674 17.0434 9.90674C15.3481 9.90674 13.9282 11.2353 13.9282 12.9757C13.9282 14.7171 15.3481 16.0461 17.0434 16.0461ZM10.5836 32.4856C10.4005 33.2646 10.3086 34.1057 10.3086 34.7918C10.3086 37.4954 11.7747 39.2901 14.8903 39.2901C17.4741 39.2901 19.5689 37.7557 21.0772 35.2781L20.1562 38.9742H25.2871L28.2196 27.2125C28.9527 24.2346 30.3729 22.6888 32.5265 22.6888C34.2217 22.6888 35.2753 23.7431 35.2753 25.4835C35.2753 25.9877 35.2295 26.5369 35.0462 27.1328L33.5341 32.539C33.305 33.3179 33.2138 34.0973 33.2138 34.8298C33.2138 37.3964 34.7253 39.2736 37.8867 39.2736C40.5899 39.2736 42.743 37.5334 43.9344 33.364L41.9187 32.5858C40.9106 35.3791 40.04 35.8841 39.3527 35.8841C38.6654 35.8841 38.2989 35.4263 38.2989 34.5105C38.2989 34.0981 38.3909 33.6405 38.528 33.0894L39.9944 27.8225C40.3608 26.5857 40.4984 25.489 40.4984 24.4814C40.4984 20.5412 38.1158 18.4849 35.2295 18.4849C32.5265 18.4849 29.7773 20.9231 28.4031 23.4893L29.4107 18.8833H21.5766L20.477 22.9402H24.1424L21.8852 31.9768C20.1128 35.917 16.8569 35.9809 16.4484 35.8895C15.7774 35.7381 15.3483 35.4833 15.3483 34.6115C15.3483 34.1084 15.4399 33.3859 15.669 32.5147L19.1055 18.8833H10.4005L9.30078 22.9402H12.92L10.5838 32.4856" fill="white"/>
</svg>
