<svg width="52" height="51" viewBox="0 0 52 51" fill="none" xmlns="http://www.w3.org/2000/svg">
<g clip-path="url(#clip0_2_718)">
<path d="M9.20833 0.00518799H42.7917C47.8833 0.00518799 52 4.12663 52 9.22421V41.545C52 46.6426 47.8833 50.764 42.7917 50.764H9.20833C4.11667 50.764 0 46.6426 0 41.545V9.22421C0 4.12663 4.11667 0.00518799 9.20833 0.00518799Z" fill="#001E36"/>
<path d="M11.6992 35.6015V13.2806C11.6992 13.1288 11.7642 13.042 11.9159 13.042C12.2842 13.042 12.6309 13.042 13.1292 13.0203C13.6492 12.9986 14.1909 12.9986 14.7759 12.9769C15.3609 12.9552 15.9892 12.9552 16.6609 12.9336C17.3326 12.9119 17.9826 12.9119 18.6326 12.9119C20.4092 12.9119 21.8826 13.1288 23.0959 13.5843C24.1792 13.9531 25.1759 14.5604 25.9992 15.363C26.6926 16.0572 27.2342 16.9032 27.5809 17.8359C27.9059 18.747 28.0792 19.6797 28.0792 20.6558C28.0792 22.5213 27.6459 24.0614 26.7792 25.2762C25.9126 26.4909 24.6992 27.402 23.2909 27.9226C21.8176 28.4649 20.1926 28.6601 18.4159 28.6601C17.8959 28.6601 17.5492 28.6601 17.3326 28.6384C17.1159 28.6167 16.8126 28.6167 16.4009 28.6167V35.5798C16.4226 35.7316 16.3142 35.8618 16.1626 35.8835H11.9592C11.7859 35.8835 11.6992 35.7967 11.6992 35.6015ZM16.4226 17.2285V24.517C16.7259 24.5387 17.0076 24.5604 17.2676 24.5604H18.4159C19.2609 24.5604 20.1059 24.4302 20.9076 24.1699C21.6009 23.9747 22.2076 23.5625 22.6842 23.0202C23.1392 22.4779 23.3559 21.7404 23.3559 20.786C23.3776 20.1135 23.2042 19.4411 22.8576 18.8554C22.4892 18.2914 21.9692 17.8576 21.3409 17.619C20.5392 17.2936 19.6726 17.1635 18.7842 17.1851C18.2209 17.1851 17.7226 17.1851 17.3109 17.2068C16.8776 17.1851 16.5742 17.2068 16.4226 17.2285ZM41.5992 23.1938C40.9492 22.8467 40.2559 22.6081 39.5192 22.4563C38.7176 22.2827 37.9159 22.1743 37.0926 22.1743C36.6592 22.1526 36.2042 22.2176 35.7926 22.3261C35.5109 22.3912 35.2726 22.543 35.1209 22.7599C35.0126 22.9335 34.9476 23.1504 34.9476 23.3456C34.9476 23.5408 35.0342 23.7361 35.1642 23.9096C35.3592 24.1482 35.6192 24.3434 35.9009 24.4953C36.3992 24.7556 36.9192 24.9942 37.4392 25.2111C38.6092 25.6016 39.7359 26.1439 40.7759 26.7946C41.4909 27.2501 42.0759 27.8575 42.4876 28.595C42.8342 29.2892 43.0076 30.0484 42.9859 30.8293C43.0076 31.8488 42.7042 32.8683 42.1409 33.7143C41.5342 34.582 40.6892 35.2544 39.7142 35.6449C38.6526 36.1004 37.3526 36.339 35.7926 36.339C34.7959 36.339 33.8209 36.2522 32.8459 36.057C32.0876 35.9269 31.3292 35.6882 30.6359 35.3629C30.4842 35.2761 30.3759 35.1243 30.3976 34.9507V31.1764C30.3976 31.1113 30.4192 31.0245 30.4842 30.9811C30.5492 30.9377 30.6142 30.9594 30.6792 31.0028C31.5242 31.5017 32.4126 31.8488 33.3659 32.0657C34.1892 32.2826 35.0559 32.3911 35.9226 32.3911C36.7459 32.3911 37.3309 32.2826 37.7209 32.0874C38.0676 31.9356 38.3059 31.5668 38.3059 31.1764C38.3059 30.8727 38.1326 30.5907 37.7859 30.3087C37.4392 30.0267 36.7242 29.7013 35.6626 29.2892C34.5576 28.8987 33.5392 28.3781 32.5859 27.7274C31.9142 27.2501 31.3509 26.6211 30.9392 25.8836C30.5926 25.1894 30.4192 24.4302 30.4409 23.671C30.4409 22.7382 30.7009 21.8489 31.1776 21.0463C31.7192 20.1786 32.5209 19.4845 33.4526 19.0506C34.4709 18.53 35.7492 18.2914 37.2876 18.2914C38.1759 18.2914 39.0859 18.3565 39.9742 18.4867C40.6242 18.5734 41.2526 18.747 41.8376 18.9856C41.9242 19.0073 42.0109 19.094 42.0542 19.1808C42.0759 19.2676 42.0976 19.3543 42.0976 19.4411V22.9769C42.0976 23.0636 42.0542 23.1504 41.9892 23.1938C41.7942 23.2372 41.6859 23.2372 41.5992 23.1938Z" fill="#31A8FF"/>
</g>
<defs>
<clipPath id="clip0_2_718">
<rect width="52" height="50.7692" fill="white"/>
</clipPath>
</defs>
</svg>
