<svg width="52" height="51" viewBox="0 0 52 51" fill="none" xmlns="http://www.w3.org/2000/svg">
<path d="M42.7918 51H9.20816C4.11632 51 0 46.8593 0 41.7374V9.26265C0 4.14068 4.11632 0 9.20816 0H42.7918C47.8837 0 52 4.14068 52 9.26265V41.7374C52 46.8593 47.8837 51 42.7918 51Z" fill="#FF26BE"/>
<path d="M41.9688 48.8198H10.0324C5.69981 48.8198 2.16797 45.2671 2.16797 40.9088V10.0912C2.16797 5.73291 5.69981 2.18018 10.0324 2.18018H41.948C46.3035 2.18018 49.8124 5.73291 49.8124 10.0912V40.8879C49.8332 45.2671 46.3014 48.8198 41.9688 48.8198Z" fill="#2E001F"/>
<path d="M20.5607 23.865L26.628 35.5903C26.7362 35.7639 26.6717 35.9397 26.497 35.9397H22.726C22.4868 35.9397 22.3786 35.8748 22.2704 35.6572C20.8831 32.7803 19.4749 29.9034 18.0231 26.8089H17.9794C16.6794 29.7297 15.2484 32.8033 13.8631 35.6802C13.7549 35.8539 13.6468 35.9209 13.472 35.9209H9.90069C9.68437 35.9209 9.66149 35.7472 9.77173 35.6154L15.708 24.2374L9.96725 12.7297C9.83621 12.5561 9.96725 12.4242 10.0962 12.4242H13.8236C14.0399 12.4242 14.1272 12.4682 14.2125 12.6649C15.577 15.5418 16.9644 18.5066 18.2644 21.4044H18.308C19.5644 18.5275 20.9517 15.5418 22.2954 12.6858C22.4036 12.5121 22.468 12.4033 22.6864 12.4033H26.1746C26.3472 12.4033 26.4138 12.5351 26.3056 12.7088L20.5607 23.865ZM27.6909 27.4177C27.6909 22.3397 31.0501 18.3727 36.3791 18.3727C36.8346 18.3727 37.0717 18.3727 37.5064 18.4166V12.6418C37.5064 12.51 37.6146 12.4242 37.7228 12.4242H41.1464C41.3191 12.4242 41.3628 12.4891 41.3628 12.5979V32.6066C41.3628 33.1946 41.3628 33.9353 41.4709 34.7429C41.4709 34.8747 41.4272 34.9165 41.2983 34.9835C39.4783 35.856 37.5709 36.2473 35.7509 36.2473C31.048 36.2661 27.6888 33.3473 27.6909 27.4177ZM37.5044 21.8396C37.2007 21.7078 36.768 21.622 36.248 21.622C33.517 21.622 31.6117 23.7353 31.6117 27.2461C31.6117 31.2571 33.5628 32.8703 36.0109 32.8703C36.5309 32.8703 37.0946 32.8054 37.5064 32.6297V21.8396H37.5044Z" fill="#FFD9F2"/>
</svg>
