<svg width="47" height="51" viewBox="0 0 47 51" fill="none" xmlns="http://www.w3.org/2000/svg">
<g clip-path="url(#clip0_677_472)">
<path d="M46.0697 44.6174C46.0741 45.4497 45.9145 46.2748 45.6 47.0455C45.2856 47.8161 44.8224 48.5173 44.2369 49.109C43.6515 49.7006 42.9552 50.1712 42.1879 50.4937C41.4206 50.8163 40.5972 50.9846 39.7649 50.989C39.5041 50.991 39.2435 50.9763 38.9846 50.9448C37.4154 50.7128 35.9852 49.9149 34.9634 48.7014C33.9417 47.488 33.399 45.9428 33.4375 44.357V6.63122C33.3998 5.04398 33.9442 3.49781 34.9679 2.28427C35.9917 1.07073 37.424 0.273673 38.9949 0.0433893C39.8862 -0.0620906 40.7896 0.0231294 41.6454 0.293397C42.5012 0.563664 43.2897 1.0128 43.9587 1.61102C44.6277 2.20923 45.1618 2.94285 45.5257 3.76321C45.8896 4.58358 46.0748 5.47193 46.0692 6.36935L46.0697 44.6174Z" fill="#F9AB00"/>
<path d="M6.31713 38.3658C7.56655 38.3658 8.7879 38.7363 9.82675 39.4305C10.8656 40.1246 11.6753 41.1112 12.1534 42.2655C12.6315 43.4198 12.7566 44.69 12.5129 45.9154C12.2691 47.1408 11.6675 48.2664 10.784 49.1498C9.90056 50.0333 8.77495 50.635 7.54955 50.8787C6.32414 51.1225 5.05398 50.9974 3.89967 50.5192C2.74537 50.0411 1.75876 49.2314 1.06463 48.1926C0.370493 47.1537 0 45.9324 0 44.683C0 43.0076 0.665553 41.4008 1.85025 40.2161C3.03494 39.0314 4.64173 38.3658 6.31713 38.3658ZM22.9377 19.2192C21.2516 19.3116 19.6676 20.0566 18.5211 21.2963C17.3745 22.536 16.7553 24.1733 16.7947 25.8615V42.8288C16.7947 47.434 18.8215 50.2287 21.7902 50.8221C22.6047 50.9873 23.4437 50.9905 24.2593 50.8314C25.075 50.6723 25.8513 50.354 26.5439 49.8948C27.2365 49.4356 27.8319 48.8444 28.2959 48.155C28.76 47.4656 29.0837 46.6916 29.2485 45.877C29.3345 45.4576 29.3768 45.0303 29.3745 44.6021V25.5702C29.3762 24.7378 29.2139 23.9132 28.8969 23.1435C28.5798 22.3738 28.1143 21.6741 27.5268 21.0843C26.9393 20.4946 26.2414 20.0263 25.4729 19.7063C24.7045 19.3863 23.8805 19.2208 23.0481 19.2192C23.0108 19.2192 22.973 19.2192 22.9377 19.2192Z" fill="#E37400"/>
</g>
<defs>
<clipPath id="clip0_677_472">
<rect width="46.0702" height="51" fill="white"/>
</clipPath>
</defs>
</svg>
