<svg width="51" height="51" viewBox="0 0 51 51" fill="none" xmlns="http://www.w3.org/2000/svg">
<g clip-path="url(#clip0_677_550)">
<path fill-rule="evenodd" clip-rule="evenodd" d="M0 45.9531V5.03359C0 2.25781 2.29766 0 5.12656 0H45.8602C48.6891 0 51 2.25781 51 5.03359V51H5.12656C2.29766 51 0 48.7289 0 45.9531Z" fill="#F0542A"/>
<path fill-rule="evenodd" clip-rule="evenodd" d="M6.98613 45.0766L4.09082 43.7352L13.0291 26.3234C13.4807 25.3805 14.251 24.7031 15.1275 24.3844V24.3578C17.0799 23.6539 19.2182 24.7297 19.8822 26.7484L21.3963 31.2906C21.5158 31.5828 21.808 31.7555 22.1002 31.6891V31.6625C22.2463 31.6227 22.3658 31.5031 22.4455 31.357L22.4986 31.2375L27.4924 20.6391C27.9307 19.7094 28.701 19.0188 29.5908 18.7L29.5775 18.6734C30.9986 18.1688 32.5127 18.5938 33.4822 19.6297L34.2127 20.3734L38.6221 24.7695C38.808 24.9688 39.1666 24.8359 39.14 24.557V12.0594C39.14 11.0633 38.4361 10.2398 37.5064 10.0672C37.3604 10.0406 37.2275 10.0273 37.0947 10.0273H24.5838C24.3182 10.0141 24.1721 10.3727 24.3713 10.532L28.7674 14.9414L26.5096 17.1992L21.5822 12.2586C21.3963 12.0859 21.29 11.9266 21.1572 11.7008C20.9182 11.3289 20.7588 10.9039 20.7057 10.4523C20.6791 10.3062 20.6791 10.1734 20.6791 10.0141C20.6791 9.92109 20.6791 9.80156 20.6924 9.68203C20.7322 9.20391 20.8916 8.76562 21.1307 8.36719C21.6885 7.45078 22.6979 6.83984 23.8666 6.83984H37.0947C39.9768 6.83984 42.3275 9.17734 42.3275 12.0727V25.3008C42.3275 26.443 41.7033 27.4656 40.7869 28.0234C40.4018 28.2625 39.9502 28.4219 39.4854 28.4617C39.3658 28.475 39.2596 28.4883 39.14 28.4883C38.9939 28.4883 38.8611 28.475 38.715 28.4617C38.2502 28.3953 37.8252 28.2359 37.4533 28.0102C37.2275 27.8641 37.0814 27.7711 36.8955 27.5852L32.9244 23.6141L31.2111 21.9008H31.1979C31.0518 21.7547 30.8393 21.6883 30.64 21.7281C30.4807 21.7813 30.3744 21.9141 30.2814 22.0867L25.2346 32.7781C24.7963 33.7344 24.026 34.3984 23.1361 34.7305L23.1494 34.7438C21.1971 35.4477 19.0588 34.3719 18.3814 32.3531L18.315 32.1141H18.3018L16.8674 27.8109C16.7611 27.5187 16.4557 27.3461 16.1635 27.4125L16.1768 27.4391C16.0307 27.4789 15.8979 27.5984 15.8182 27.7578L6.98613 45.0766Z" fill="white"/>
</g>
<defs>
<clipPath id="clip0_677_550">
<rect width="51" height="51" fill="white"/>
</clipPath>
</defs>
</svg>
