<svg width="64" height="46" viewBox="0 0 64 46" fill="none" xmlns="http://www.w3.org/2000/svg">
<g clip-path="url(#clip0_677_526)">
<path d="M33.6875 24.5723L41.6057 16.6542L49.4805 8.7793L55.7367 15.0283C55.6822 15.0786 50.7698 19.9684 44.9059 25.8208C42.8849 27.8379 41.2302 29.4844 39.8727 30.8253L33.6875 24.5723Z" fill="#FABB05"/>
<path d="M5.10326 44.7168C4.07586 44.0704 0.814561 40.6765 0.560161 39.989C0.440561 39.6657 0.425861 39.1895 0.527761 38.9308C0.629461 38.6721 5.83146 33.3548 12.0878 27.1143C21.746 17.4804 23.5635 15.7681 24.13 15.7681C24.6794 15.7681 25.5924 16.5475 29.2948 20.1772C31.7684 22.6022 35.1674 25.9924 36.8482 27.7108L39.9041 30.8353L37.0642 33.6485C34.7897 35.9018 34.0929 36.4617 33.5635 36.4617C33.0211 36.4617 32.117 35.6829 28.5197 32.1172L24.1367 27.7727L15.7958 36.1303C8.33066 43.6102 6.64416 45.1646 5.99676 45.1616C5.89336 45.1611 5.49136 44.961 5.10336 44.7168H5.10326Z" fill="#4285F4"/>
<path d="M56.8885 16.1398C54.5325 13.8869 50.7264 10.0866 48.4307 7.6946C44.8629 3.9771 44.2568 3.2402 44.2568 2.6198C44.2568 1.7233 44.9185 1.0259 45.9485 0.836499C46.3761 0.757899 50.2537 0.725598 54.5654 0.764598L62.4049 0.835598C62.4049 0.835598 63.0988 0.872298 63.2956 1.0796C63.5391 1.336 63.5395 2.1552 63.5395 2.1552L63.5319 10.5488C63.5263 16.7761 63.4505 19.0388 63.238 19.3156C62.8809 19.7808 62.0453 20.2359 61.5482 20.2359C61.3414 20.2359 59.2446 18.3926 56.8885 16.1398Z" fill="#34A853"/>
<path d="M18.0068 21.2472C19.576 19.6475 23.4537 15.7681 24.1297 15.7681C24.6791 15.7681 25.5921 16.5475 29.2945 20.1772C31.7681 22.6023 35.1671 25.9923 36.8479 27.7108L39.9038 30.8353L37.0639 33.6485C34.7893 35.9018 34.0926 36.4617 33.5632 36.4617C33.0208 36.4617 32.1167 35.6829 28.5194 32.1172C27.0583 30.669 25.5973 29.2208 24.1363 27.7727C22.0932 25.5975 20.05 23.4224 18.0068 21.2472Z" fill="#EA4335"/>
</g>
<defs>
<clipPath id="clip0_677_526">
<rect width="64" height="46" fill="white"/>
</clipPath>
</defs>
</svg>
