<svg width="51" height="51" viewBox="0 0 51 51" fill="none" xmlns="http://www.w3.org/2000/svg">
<path d="M22.7708 47.3345C20.4599 47.3444 18.139 47.4241 15.8679 46.8065C10.997 45.4917 7.38118 42.5134 4.73157 38.2999C3.04817 35.6104 2.29114 32.6421 2.26126 29.4944C2.22142 25.8985 2.21146 22.3026 2.26126 18.7067C2.32103 13.6565 4.3929 9.48291 7.9888 6.0165C10.5687 3.52627 13.5669 1.82295 17.123 1.20537C18.139 1.02607 19.1849 0.926465 20.2208 0.916504C23.747 0.87666 27.2831 0.896582 30.8093 0.896582C34.3156 0.896582 37.5827 1.75322 40.5013 3.72549C45.1331 6.86318 48.0218 11.1364 48.6593 16.7843C48.729 17.4417 48.7589 18.1091 48.7589 18.7665C48.7689 23.0995 48.7689 27.4425 48.7589 31.7755C48.7589 34.8136 46.5775 36.995 43.5394 37.005C40.073 37.0149 36.6066 37.0149 33.1302 37.005C32.6322 37.005 32.1242 36.9452 31.6261 36.9153C31.0085 36.5169 30.3909 36.1185 29.7833 35.7101C29.6439 35.6204 29.5243 35.5009 29.4048 35.3913C28.9665 34.3255 28.5283 33.2597 28.1497 32.3433C27.9804 32.8015 27.7413 33.4489 27.5122 34.0864C26.5261 33.2796 25.54 32.4827 24.5638 31.6759C24.6933 31.6261 24.8128 31.5663 24.9423 31.5165C26.8349 30.7495 27.9007 29.3251 28.1398 27.3329C28.2493 26.4065 28.1597 25.4503 28.1497 24.514C28.8769 23.0198 29.5841 21.5157 30.3212 20.0315C30.4607 19.7427 30.6798 19.4737 30.9089 19.2446C31.5265 18.6171 32.3433 18.6769 32.8314 19.414C33.0406 19.7228 33.1701 20.0813 33.3394 20.42C33.3095 20.5396 33.2497 20.6491 33.2497 20.7687C33.2497 23.5876 33.2298 26.4165 33.2497 29.2354C33.2697 31.0782 34.0865 31.8751 35.9292 31.8851C37.6027 31.895 39.2661 31.895 40.9396 31.8851C42.6827 31.8751 43.5493 31.0085 43.5693 29.2653C43.5792 27.6716 43.5693 26.0778 43.5693 24.4841C44.5355 24.1753 45.5017 23.8765 46.4679 23.5577C46.6372 23.4979 46.8564 23.3884 46.9161 23.2489C47.0855 22.8405 47.0656 22.4222 46.8265 22.0237C46.4978 21.4858 46.0296 21.446 45.4818 21.7349C44.8841 22.0536 44.2167 22.2628 43.5792 22.5118C43.5693 21.5954 43.5593 20.689 43.5494 19.7726C43.7087 19.6431 43.8482 19.5036 44.0175 19.3841C44.4658 19.0554 44.5853 18.5673 44.2267 18.129C44.0374 17.8999 43.7286 17.7903 43.4697 17.621C43.37 15.9675 42.862 14.4435 42.0951 12.9892C41.3978 11.6444 40.4216 10.5188 39.3757 9.43311C39.814 7.86924 39.296 7.0624 37.6724 6.79346C37.4533 6.75361 37.2341 6.71377 37.0249 6.70381C35.7699 6.61416 34.6542 6.24561 33.8574 5.19971C33.7777 5.1001 33.6781 5.02041 33.5884 4.93076C33.1402 4.5124 32.6322 4.38291 32.0245 4.47256C31.0484 4.61201 30.4906 5.24951 30.0523 6.04639C27.1536 6.03643 24.2451 6.03643 21.3464 6.02646C21.3464 5.61807 21.3663 5.21963 21.3365 4.81123C21.3165 4.33311 21.0077 4.15381 20.4499 4.25342C19.932 4.34307 19.7327 4.62197 19.8622 5.1001C19.9419 5.39893 20.0415 5.69775 20.1312 5.99658C19.922 6.0165 19.7128 6.03643 19.5136 6.04639C18.9558 4.86104 18.398 3.67568 18.398 2.33096C18.398 1.97236 18.4279 1.63369 18.0294 1.44443C17.5911 1.24521 17.1728 1.28506 16.7843 1.56396C16.3659 1.86279 16.3261 2.18154 16.6249 2.5999C17.4118 3.69561 17.8103 4.94072 18.0992 6.22568C17.7406 6.45478 17.4417 6.35518 17.2226 6.09619C16.874 5.68779 16.5652 5.24951 16.2464 4.82119C15.8779 4.33311 15.5292 3.8251 15.1408 3.35693C14.8818 3.04814 14.5132 3.02822 14.1447 3.19756C13.7761 3.36689 13.6167 3.67568 13.6068 4.06416C13.6068 4.62197 13.9554 5.06025 14.5132 5.24951C14.6427 5.28936 14.8021 5.3292 14.8718 5.42881C15.2005 5.88701 15.4993 6.35518 15.8081 6.82334C15.6587 6.91299 15.5193 7.00264 15.3699 7.08232C12.3716 8.52666 9.96106 10.5687 8.56653 13.6765C7.83939 15.3101 7.55052 17.0433 7.51067 18.8263C6.87317 18.3681 6.23567 17.9099 5.60814 17.4517C5.26946 17.2026 4.93079 17.1927 4.61204 17.4417C4.25345 17.7106 4.1638 18.0792 4.27337 18.4876C4.38294 18.896 4.58216 19.2147 5.08021 19.1849C6.16595 19.1351 6.8931 19.7726 7.54056 20.5296C7.5306 20.938 7.52064 21.3464 7.51067 21.7548C6.96282 21.5854 6.40501 21.4161 5.85716 21.2468C4.38294 20.7786 3.9347 21.1771 4.24349 22.6812C4.25345 22.711 4.27337 22.731 4.29329 22.7608C5.37903 22.9302 6.45481 23.0995 7.54056 23.2688C7.54056 25.3806 7.5306 27.4923 7.54056 29.604C7.55052 31.0384 7.82942 32.4229 8.32747 33.7577C9.02474 35.6304 10.2001 37.1644 11.5947 38.5589C13.6167 40.581 16.0074 41.8858 18.8761 42.0751C21.3265 42.2245 23.7868 42.1548 26.2472 42.1847C26.4863 42.1847 26.7154 42.2046 26.9544 42.2146C26.7652 42.4038 26.5859 42.5931 26.3966 42.7724C24.9523 44.127 23.498 45.4419 22.7708 47.3345Z" fill="#72B52C"/>
<path d="M22.771 47.3345C23.5081 45.4419 24.9525 44.1271 26.3968 42.8022C26.586 42.6229 26.7653 42.4337 26.9546 42.2444C27.5224 41.7364 28.1101 41.2384 28.6579 40.7005C29.0464 40.322 29.3851 39.9036 29.7735 39.4853C27.6817 38.5888 25.6597 37.7321 23.6476 36.8755C22.5618 36.2479 21.496 35.5806 20.3804 34.9929C19.6333 34.5944 18.8564 34.2458 18.0595 33.9669C17.2825 33.6979 16.4657 33.6382 15.6489 33.8972C15.38 33.9569 15.111 34.0267 14.9716 34.0665C14.5732 33.1601 14.2345 32.2735 13.7962 31.4269C13.1487 30.1718 12.4415 28.9466 11.7443 27.7114C10.9872 26.3667 10.1306 25.0817 9.03488 23.9761C8.60656 23.5478 8.13839 23.3087 7.54074 23.2987C6.45499 23.1294 5.37921 22.9601 4.29347 22.7907C4.27355 22.7608 4.25363 22.7409 4.24367 22.711C3.93488 21.2069 4.38312 20.8185 5.85734 21.2767C6.40519 21.446 6.963 21.6153 7.51085 21.7847C7.86945 21.8345 8.21808 21.8843 8.57667 21.9241C8.5966 21.8743 8.61652 21.8146 8.63644 21.7647C8.26788 21.3663 7.90929 20.9579 7.54074 20.5595C6.89328 19.8024 6.16613 19.1649 5.08039 19.2147C4.58234 19.2347 4.38312 18.9159 4.27355 18.5175C4.15402 18.0991 4.25363 17.7306 4.61222 17.4716C4.94093 17.2226 5.2796 17.2325 5.60831 17.4815C6.24581 17.9397 6.88332 18.3979 7.51085 18.8562C8.49699 19.5933 9.49308 20.3304 10.4792 21.0675C10.5191 21.0276 10.5689 20.9978 10.6087 20.9579C10.5091 20.7388 10.4294 20.5097 10.3099 20.3104C10.1505 20.0614 9.93136 19.8423 9.78195 19.5933C9.54288 19.1749 9.83175 18.9259 10.1206 18.6968C10.3995 18.4677 10.6485 18.6071 10.798 18.8462C11.0868 19.3044 11.3657 19.7825 11.5849 20.2806C11.9435 21.0974 12.2423 21.9341 12.571 22.7708C12.7403 22.9899 12.9097 23.1991 13.089 23.4183C13.2384 22.9003 13.2284 22.4321 13.328 22.0038C13.4575 21.436 13.587 20.8384 13.8659 20.3304C14.1847 19.7626 14.8421 19.5534 15.4497 19.5634C15.7386 19.5733 16.0374 20.0017 16.2964 20.2806C16.4857 20.4798 16.6351 20.7288 16.7745 20.9778C17.1132 21.5556 17.4319 22.1532 17.7607 22.7409C18.1491 23.6972 18.6372 24.5937 19.3245 25.53C19.7329 22.5417 20.6095 19.8124 21.5359 17.103C21.3466 17.0233 21.1872 16.9437 21.0278 16.8839C20.988 16.864 20.9382 16.864 20.8884 16.844C19.9521 16.1966 19.4441 15.2603 19.0954 14.2144C18.8763 13.5769 18.697 12.9294 18.4978 12.2919C18.1193 11.0866 17.8503 9.83154 17.3323 8.696C17.0235 8.00869 16.3362 7.49072 15.8183 6.89307C15.5095 6.4249 15.2107 5.94678 14.8819 5.49854C14.8122 5.39893 14.6528 5.35908 14.5234 5.31924C13.9556 5.12998 13.6069 4.68174 13.6169 4.13389C13.6169 3.74541 13.7763 3.43662 14.1548 3.26729C14.5234 3.09795 14.8919 3.11787 15.1509 3.42666C15.5493 3.89482 15.888 4.40283 16.2566 4.89092C16.5753 5.31924 16.8841 5.75752 17.2327 6.16592C17.4519 6.4249 17.7407 6.51455 18.1093 6.29541C17.8204 5.01045 17.4319 3.76533 16.6351 2.66963C16.3362 2.25127 16.3761 1.93252 16.7944 1.63369C17.1829 1.35479 17.6013 1.31494 18.0396 1.51416C18.438 1.69346 18.4081 2.04209 18.4081 2.40068C18.4081 3.74541 18.9659 4.93076 19.5237 6.11611C19.6632 6.48467 19.8126 6.85322 19.972 7.26162C20.3007 6.86318 20.3405 6.47471 20.1413 6.06631C20.0517 5.76748 19.962 5.46865 19.8724 5.16982C19.7429 4.6917 19.9321 4.41279 20.4601 4.32314C21.0179 4.22354 21.3267 4.41279 21.3466 4.88096C21.3665 5.27939 21.3566 5.68779 21.3566 6.09619C21.2569 6.98271 21.1075 7.86924 21.0677 8.76572C21.0378 9.68213 21.4562 10.3495 22.3526 10.7081C22.6714 10.8376 22.9304 11.1165 23.2093 11.3356C23.1993 11.5647 23.2691 11.8636 23.1495 12.013C23.0499 12.1325 22.7312 12.1026 22.512 12.0927C22.3925 12.0927 22.2929 11.9731 22.1734 11.9433C22.014 11.9034 21.8347 11.9034 21.6255 11.8735C21.7849 12.8298 22.3626 13.3776 23.04 13.8757C23.528 13.0091 24.0062 12.1624 24.4843 11.3257C24.7532 11.0169 24.9823 10.6483 25.3011 10.4192C26.1876 9.77178 27.0841 9.14424 28.0204 8.55654C28.9767 7.95889 29.6939 7.19189 30.0624 6.11611C30.5007 5.31924 31.0585 4.68174 32.0347 4.54229C32.6423 4.45264 33.1503 4.58213 33.5985 5.00049C33.6882 5.09014 33.7878 5.16982 33.8675 5.26943C34.6644 6.32529 35.78 6.69385 37.0351 6.77354C37.2542 6.79346 37.4734 6.8333 37.6825 6.86318C39.3062 7.13213 39.8241 7.93897 39.3858 9.50283C39.1767 9.81162 38.9775 10.1403 38.7483 10.4292C37.3837 12.2122 35.8597 13.8358 34.0468 15.1806C33.9073 15.2901 33.748 15.4894 33.748 15.6487C33.738 17.1628 34.0169 18.6271 34.7839 19.9519C35.5409 21.2567 36.6167 22.0935 38.2005 22.1134C38.5691 22.1134 38.7882 22.0237 38.7683 21.6353C38.7484 20.928 38.7185 20.2208 38.6687 19.5235C38.6487 19.2446 38.5989 18.9558 38.9575 18.886C39.2663 18.8263 39.615 18.7565 39.9138 18.8263C40.2923 18.9159 40.5314 19.1849 40.372 19.6431C40.2624 19.9519 40.1827 20.2706 40.113 20.5993C40.0233 21.0376 40.0134 21.4659 40.3421 21.8544C40.4317 21.7946 40.5114 21.7448 40.5812 21.695C41.6868 20.8683 42.2247 19.7028 42.5435 18.3979C42.7228 17.6808 42.7228 17.6808 43.4798 17.7007C43.7388 17.87 44.0476 17.9796 44.2368 18.2087C44.5954 18.647 44.4859 19.1251 44.0276 19.4638C43.8683 19.5833 43.7189 19.7228 43.5595 19.8522C43.4001 20.0813 43.2009 20.2905 43.1013 20.5396C42.8323 21.2567 42.6032 21.9839 42.3343 22.8007C42.8025 22.721 43.1909 22.6612 43.5894 22.5915C44.2269 22.3325 44.8843 22.1333 45.4919 21.8146C46.0398 21.5257 46.5079 21.5655 46.8366 22.1034C47.0757 22.4919 47.1056 22.9202 46.9263 23.3286C46.8665 23.4681 46.6474 23.5776 46.478 23.6374C45.5118 23.9562 44.5456 24.255 43.5794 24.5638C43.2208 24.7132 42.8523 24.8526 42.4937 25.012C41.4278 25.4802 40.362 25.8886 39.1966 26.0679C37.4534 26.3468 34.5747 24.8427 34.1066 23.0099C33.8874 22.1632 33.5985 21.3364 33.3495 20.4897C33.1802 20.1511 33.0507 19.7925 32.8415 19.4837C32.3435 18.7466 31.5366 18.6868 30.9191 19.3144C30.69 19.5435 30.4708 19.8124 30.3314 20.1013C29.5942 21.5854 28.8771 23.0896 28.1599 24.5837C27.5423 25.789 26.8948 26.9644 25.9485 27.9405C25.58 28.319 25.2314 28.7274 24.8927 29.1458C24.4046 29.7435 24.0062 30.3909 23.8169 31.1579C24.0759 31.3571 24.3249 31.5563 24.5739 31.7456C25.5601 32.5524 26.5462 33.3493 27.5224 34.1562C28.1499 34.5845 28.7874 35.0228 29.415 35.4511C29.5444 35.5606 29.664 35.6802 29.7935 35.7698C30.411 36.1782 31.0286 36.5767 31.6362 36.9751C31.955 37.2739 32.2937 37.5528 32.5825 37.8815C33.479 38.8776 33.5388 40.1228 32.722 41.1985C32.4431 41.5571 32.1144 41.8759 31.8056 42.2046C31.5566 42.4437 31.3075 42.6827 31.0685 42.9317C30.5007 43.5194 29.913 44.0872 29.3751 44.7048C29.2456 44.8542 29.1859 45.2028 29.2655 45.3722C29.4747 45.7905 29.7636 46.169 30.0724 46.5276C30.1919 46.6671 30.4409 46.697 30.68 46.7966C30.7198 46.1591 30.3214 45.9499 30.0425 45.6411C29.8931 45.4817 29.7237 45.1132 29.7935 45.0235C29.9827 44.7845 30.2716 44.5853 30.5605 44.4956C30.68 44.4657 30.9589 44.7446 31.0485 44.9339C31.2478 45.3224 31.3573 45.7507 31.5366 46.1591C31.706 46.5376 31.9948 46.6372 32.3933 46.4978C32.8814 46.3284 33.0706 45.9698 33.0706 45.4817C33.0607 44.9937 33.0407 44.5056 33.0607 44.0175C33.0806 43.5692 33.4989 43.1509 33.8376 43.2206C34.2958 43.3202 34.3357 43.6888 34.3257 44.0673C34.3157 44.3362 34.2859 44.6052 34.2859 44.8741C34.2958 45.3423 34.505 45.5017 34.9532 45.3921C35.4114 45.2825 35.7003 44.9737 35.8198 44.5454C36.039 43.8083 36.2083 43.0612 36.4075 42.3142C36.6466 42.0651 36.8458 41.7265 37.1347 41.577C37.7024 41.2981 38.1208 41.5571 38.4595 42.2843C38.3499 42.6528 38.3001 43.0612 38.1208 43.3899C37.8519 43.878 37.4734 44.3063 37.1546 44.7845C36.786 45.3423 36.3976 45.9001 36.0987 46.4978C35.9692 46.7468 36.039 47.1054 36.0191 47.4042C36.1386 47.464 36.2482 47.5536 36.3776 47.5835C37.0849 47.7628 37.7722 47.6333 38.4495 47.4042C38.4794 47.4042 38.5192 47.3942 38.5491 47.3942C38.9077 47.3444 39.2663 47.2946 39.615 47.2349C39.9536 47.1751 40.1628 47.2847 40.2624 47.6134C40.3222 47.8226 40.4019 48.0317 40.4218 48.2509C40.4816 48.8485 40.3122 49.1175 39.7146 49.1772C38.9077 49.2569 38.081 49.3167 37.2741 49.2868C35.9194 49.2171 34.6146 49.3765 33.3296 49.8247C31.945 50.3028 30.5405 50.263 29.0962 50.004C27.5423 49.7251 25.9485 49.5956 24.3847 49.3964C24.1357 49.3665 23.8866 49.3267 23.6476 49.2569C22.7312 49.0079 22.512 48.6294 22.7212 47.6931C22.761 47.5237 22.761 47.4341 22.771 47.3345ZM29.1062 47.0356C28.8571 46.4579 28.5384 46.2188 28.0304 46.2687C27.612 46.3085 27.3032 46.5077 27.1937 46.936C27.9109 47.4142 28.5185 47.454 29.1062 47.0356Z" fill="#010201"/>
<path d="M36.4275 42.2443C36.2382 42.9914 36.0589 43.7385 35.8398 44.4756C35.7103 44.9039 35.4314 45.2227 34.9732 45.3223C34.525 45.4219 34.3158 45.2725 34.3058 44.8043C34.2959 44.5354 34.3357 44.2664 34.3457 43.9975C34.3556 43.6189 34.3158 43.2404 33.8576 43.1508C33.5189 43.0811 33.1006 43.4994 33.0806 43.9477C33.0607 44.4357 33.0906 44.9238 33.0906 45.4119C33.1006 45.9 32.9013 46.2586 32.4132 46.4279C32.0148 46.5674 31.7259 46.4678 31.5566 46.0893C31.3773 45.6908 31.2677 45.2525 31.0685 44.8641C30.9689 44.6748 30.69 44.3959 30.5804 44.4258C30.2916 44.5154 29.9927 44.7146 29.8134 44.9537C29.7437 45.0434 29.913 45.4119 30.0625 45.5713C30.3414 45.8801 30.7498 46.0893 30.7 46.7268C30.4609 46.6271 30.2119 46.5973 30.0923 46.4578C29.7836 46.0992 29.4947 45.7207 29.2855 45.3023C29.1959 45.133 29.2656 44.7844 29.3951 44.635C29.933 44.0174 30.5207 43.4496 31.0884 42.8619C31.3275 42.6129 31.5765 42.3838 31.8255 42.1348C32.0048 42.1547 32.1941 42.2045 32.3734 42.2045C33.7181 42.2244 35.0728 42.2344 36.4275 42.2443Z" fill="#70B22B"/>
<path d="M36.0384 47.3343C36.0584 47.0255 35.9886 46.6769 36.1181 46.4278C36.417 45.8302 36.8054 45.2724 37.174 44.7146C37.4828 44.2464 37.8613 43.8181 38.1402 43.32C38.3195 42.9913 38.3693 42.5829 38.4789 42.2144C38.5088 42.3638 38.5685 42.5032 38.5685 42.6526C38.5785 44.2065 38.5685 45.7704 38.5685 47.3243C38.5386 47.3243 38.4988 47.3343 38.4689 47.3343C37.6521 47.3343 36.8453 47.3343 36.0384 47.3343Z" fill="#71B32B"/>
<path d="M7.54062 20.5693C7.90918 20.9678 8.26777 21.3762 8.63633 21.7746C8.61641 21.8244 8.59648 21.8842 8.57656 21.934C8.21797 21.8842 7.86934 21.8344 7.51074 21.7945C7.5207 21.3861 7.53066 20.9777 7.54062 20.5693Z" fill="#F1F2F1"/>
<path d="M12.5713 22.7608C12.6012 22.4222 12.651 22.0835 12.651 21.7548C12.651 19.8622 13.0096 18.0593 13.9957 16.4257C15.0914 14.6128 16.5357 13.1585 18.498 12.272C18.6973 12.9194 18.8766 13.5569 19.0957 14.1944C19.4443 15.2403 19.9523 16.1767 20.8887 16.8241C19.3846 17.6409 18.3885 18.8661 18 20.5296C17.8307 21.2368 17.8307 21.9938 17.7609 22.721C17.4322 22.1333 17.1135 21.5456 16.7748 20.9579C16.6354 20.7188 16.4859 20.4698 16.2967 20.2606C16.0377 19.9817 15.7389 19.5534 15.45 19.5435C14.8523 19.5235 14.185 19.7327 13.8662 20.3104C13.5873 20.8185 13.4578 21.4062 13.3283 21.9839C13.2287 22.4222 13.2387 22.8804 13.0893 23.3983C12.91 23.1892 12.7406 22.97 12.5713 22.7608Z" fill="#72B52D"/>
<path d="M23.6371 36.8757C20.3898 37.4335 17.8199 36.1884 15.6484 33.8973C16.4553 33.6384 17.282 33.6882 18.059 33.9671C18.8559 34.246 19.6328 34.5946 20.3799 34.9931C21.4855 35.5807 22.5514 36.2481 23.6371 36.8757Z" fill="#72B42D"/>
<path d="M23.2195 11.2858C23.6479 11.2858 24.0662 11.2858 24.4945 11.2759C24.0164 12.1126 23.5383 12.9593 23.0502 13.8259C22.3729 13.3278 21.7951 12.78 21.6357 11.8237C21.8449 11.8437 22.0242 11.8536 22.1836 11.8935C22.3031 11.9233 22.4127 12.0329 22.5223 12.0429C22.7414 12.0528 23.0602 12.0827 23.1598 11.9632C23.2793 11.8138 23.2096 11.5149 23.2195 11.2858Z" fill="#70AF2B"/>
<path d="M29.1059 47.0355C28.5182 47.4439 27.9006 47.4141 27.1934 46.9359C27.3029 46.5076 27.6117 46.3084 28.0301 46.2686C28.5381 46.2287 28.8568 46.4578 29.1059 47.0355Z" fill="#6FAF2B"/>
<path d="M36.0391 47.3345C36.8459 47.3345 37.6527 47.3345 38.4596 47.3345C37.7822 47.5636 37.1049 47.6931 36.3877 47.5138C36.2682 47.4839 36.1586 47.4042 36.0391 47.3345Z" fill="#D6E0CF"/>
</svg>
