<svg width="51" height="46" viewBox="0 0 51 46" fill="none" xmlns="http://www.w3.org/2000/svg">
<g clip-path="url(#clip0_677_488)">
<path fill-rule="evenodd" clip-rule="evenodd" d="M14.3008 3.79347L18.0913 0.00292969V7.23942H14.3008V3.79347ZM36.6994 3.79347L32.9089 0.00292969V7.23942H36.6994V3.79347Z" fill="#7B7B7B"/>
<path d="M18.0908 0.00292969H32.9084V3.62117H18.0908V0.00292969Z" fill="#5A5A5A"/>
<path fill-rule="evenodd" clip-rule="evenodd" d="M46.8649 45.4893H4.13514C3.03843 45.4893 1.98664 45.0536 1.21115 44.2781C0.435665 43.5026 0 42.4508 0 41.3541L0 14.3445L7.1052 7.23926H43.8948L51 14.3445V41.3541C51 42.4508 50.5643 43.5026 49.7888 44.2781C49.0134 45.0536 47.9616 45.4893 46.8649 45.4893Z" fill="#E6E7E8"/>
<path fill-rule="evenodd" clip-rule="evenodd" d="M0 21.8845V14.3445L7.1052 7.23926H43.8948L51 14.3445V21.8845H0Z" fill="#D0D1D2"/>
<path fill-rule="evenodd" clip-rule="evenodd" d="M5.8584 45.4891V16.1986C5.8584 15.7416 6.03993 15.3034 6.36305 14.9802C6.68617 14.6571 7.12441 14.4756 7.58137 14.4756H43.4192C43.8762 14.4756 44.3144 14.6571 44.6375 14.9802C44.9607 15.3034 45.1422 15.7416 45.1422 16.1986V45.4891H5.8584Z" fill="#458CF5"/>
<path d="M5.8584 21.8843H45.1422V45.489H5.8584V21.8843Z" fill="white"/>
<path fill-rule="evenodd" clip-rule="evenodd" d="M33.426 45.4892V38.425L29.9801 34.979L27.7402 28.7763L29.2909 24.8135L38.0781 33.6006L39.6287 27.0533L45.1423 32.5669V45.4892H33.426Z" fill="#D2D3D4"/>
<path d="M8.44238 24.6411H21.537V39.2864H8.44238V24.6411ZM8.44238 42.56H25.3275V45.4891H8.44238V42.56Z" fill="#D2D3D4"/>
<path fill-rule="evenodd" clip-rule="evenodd" d="M36.6989 39.9929V45.4892H29.4624V40.071C27.987 39.3996 26.7336 38.3216 25.8488 36.9635C24.964 35.6054 24.4844 34.0233 24.4664 32.4024C24.4483 30.7816 24.8924 29.1892 25.7467 27.8117C26.601 26.4341 27.8301 25.3286 29.2901 24.6244V32.7392L32.9083 34.9791L36.6989 32.7392V24.624C38.1445 25.3214 39.3641 26.4124 40.2176 27.7717C41.071 29.131 41.5238 30.7035 41.5238 32.3085C41.5238 33.9135 41.071 35.486 40.2176 36.8453C39.3641 38.2046 38.1445 39.2956 36.6989 39.9929Z" fill="#505050"/>
<path fill-rule="evenodd" clip-rule="evenodd" d="M9.90691 16.3711C10.1966 16.3711 10.4797 16.457 10.7206 16.6179C10.9614 16.7788 11.1491 17.0076 11.26 17.2752C11.3708 17.5428 11.3998 17.8372 11.3433 18.1213C11.2868 18.4054 11.1473 18.6664 10.9425 18.8712C10.7377 19.076 10.4767 19.2155 10.1926 19.272C9.90853 19.3285 9.61407 19.2995 9.34646 19.1887C9.07885 19.0778 8.85012 18.8901 8.6892 18.6493C8.52828 18.4084 8.44238 18.1253 8.44238 17.8356C8.44238 17.4472 8.59668 17.0747 8.87133 16.8C9.14599 16.5254 9.51849 16.3711 9.90691 16.3711ZM14.2143 16.3711C14.504 16.3711 14.7871 16.457 15.028 16.6179C15.2688 16.7788 15.4565 17.0076 15.5674 17.2752C15.6782 17.5428 15.7072 17.8372 15.6507 18.1213C15.5942 18.4054 15.4547 18.6664 15.2499 18.8712C15.0451 19.076 14.7841 19.2155 14.5001 19.272C14.216 19.3285 13.9215 19.2995 13.6539 19.1887C13.3863 19.0778 13.1576 18.8901 12.9966 18.6493C12.8357 18.4084 12.7498 18.1253 12.7498 17.8356C12.7498 17.4472 12.9041 17.0747 13.1788 16.8C13.4534 16.5254 13.8259 16.3711 14.2143 16.3711Z" fill="#E6E7E8"/>
</g>
<defs>
<clipPath id="clip0_677_488">
<rect width="51" height="45.492" fill="white"/>
</clipPath>
</defs>
</svg>
