<svg width="51" height="51" viewBox="0 0 51 51" fill="none" xmlns="http://www.w3.org/2000/svg">
<path d="M44.6248 18.1688H34.4248C33.5536 18.1688 32.8311 17.4462 32.8311 16.575V6.375C32.8311 5.50375 33.5536 4.78125 34.4248 4.78125C35.2961 4.78125 36.0186 5.50375 36.0186 6.375V14.9813H44.6248C45.4961 14.9813 46.2186 15.7038 46.2186 16.575C46.2186 17.4462 45.4961 18.1688 44.6248 18.1688Z" fill="#3EAFD1"/>
<path d="M25.0537 30.1963L18.105 37.145C17.34 36.465 16.5962 35.7638 15.8737 35.0413C13.685 32.8312 11.7087 30.515 9.945 28.0925C8.2025 25.67 6.8 23.2475 5.78 20.8463C4.76 18.4238 4.25 16.1075 4.25 13.8975C4.25 12.4525 4.505 11.0713 5.015 9.79625C5.525 8.5 6.3325 7.31 7.45875 6.2475C8.81875 4.90875 10.3063 4.25 11.8788 4.25C12.4738 4.25 13.0688 4.3775 13.6 4.6325C14.1525 4.8875 14.6413 5.27 15.0238 5.8225L19.9538 12.7713C20.3363 13.3025 20.6125 13.7913 20.8037 14.2587C20.995 14.705 21.1012 15.1513 21.1012 15.555C21.1012 16.065 20.9525 16.575 20.655 17.0637C20.3787 17.5525 19.975 18.0625 19.465 18.5725L17.85 20.2512C17.6162 20.485 17.51 20.7613 17.51 21.1012C17.51 21.2712 17.5313 21.42 17.5738 21.59C17.6375 21.76 17.7013 21.8875 17.7438 22.015C18.1263 22.7162 18.785 23.63 19.72 24.735C20.6762 25.84 21.6962 26.9663 22.8012 28.0925C23.5662 28.8363 24.31 29.5588 25.0537 30.1963Z" fill="#ED1C24"/>
<path d="M46.6866 38.9512C46.6866 39.5462 46.5804 40.1625 46.3679 40.7575C46.3041 40.9275 46.2404 41.0975 46.1554 41.2675C45.7941 42.0325 45.3266 42.755 44.7104 43.435C43.6691 44.5825 42.5216 45.4112 41.2254 45.9425C41.2041 45.9425 41.1829 45.9637 41.1616 45.9637C39.9079 46.4737 38.5479 46.75 37.0816 46.75C34.9141 46.75 32.5979 46.24 30.1541 45.1987C27.7104 44.1575 25.2666 42.755 22.8441 40.9912C22.0154 40.375 21.1866 39.7587 20.4004 39.1L27.3491 32.1512C27.9441 32.5975 28.4754 32.9375 28.9216 33.1712C29.0279 33.2137 29.1554 33.2775 29.3041 33.3412C29.4741 33.405 29.6441 33.4262 29.8354 33.4262C30.1966 33.4262 30.4729 33.2987 30.7066 33.065L32.3216 31.4712C32.8529 30.94 33.3629 30.5362 33.8516 30.2812C34.3404 29.9837 34.8291 29.835 35.3604 29.835C35.7641 29.835 36.1891 29.92 36.6566 30.1112C37.1241 30.3025 37.6129 30.5787 38.1441 30.94L45.1779 35.9337C45.7304 36.3162 46.1129 36.7625 46.3466 37.2937C46.5591 37.825 46.6866 38.3562 46.6866 38.9512Z" fill="#0E3572"/>
<line x1="37" y1="13.8787" x2="45.8787" y2="5" stroke="#3EAFD1" stroke-width="3" stroke-linecap="round"/>
</svg>
