<svg width="51" height="51" viewBox="0 0 51 51" fill="none" xmlns="http://www.w3.org/2000/svg">
<path d="M4.37113 13.9024C4.05615 13.5874 3.51758 13.8105 3.51758 14.2559V36.7649C3.51758 37.2103 4.05615 37.4334 4.37113 37.1184L15.6256 25.864C15.8209 25.6687 15.8209 25.3521 15.6256 25.1569L4.37113 13.9024Z" fill="#3EAFD1"/>
<path fill-rule="evenodd" clip-rule="evenodd" d="M21.7707 26.3283L6.84769 11.4053C6.53271 11.0903 6.7558 10.5518 7.20125 10.5518H43.8003C44.2457 10.5518 44.4688 11.0903 44.1538 11.4053L29.2308 26.3283C27.2383 28.3209 23.7632 28.3209 21.7707 26.3283Z" fill="#0E3572"/>
<path d="M35.375 25.1569C35.1798 25.3521 35.1798 25.6687 35.375 25.864L46.6295 37.1184C46.9445 37.4334 47.4831 37.2103 47.4831 36.7649V14.2559C47.4831 13.8105 46.9445 13.5874 46.6295 13.9024L35.375 25.1569Z" fill="#3EAFD1"/>
<path d="M31.7169 28.8148C30.0585 30.475 27.8497 31.3912 25.5002 31.3912C23.1506 31.3912 20.9418 30.475 19.2834 28.8148L18.8192 28.3506C18.624 28.1554 18.3074 28.1554 18.1121 28.3506L6.8682 39.5946C6.55322 39.9095 6.7763 40.4481 7.22176 40.4481H43.7786C44.224 40.4481 44.4471 39.9095 44.1321 39.5946L32.8882 28.3506C32.6929 28.1554 32.3764 28.1554 32.1811 28.3506L31.7169 28.8148Z" fill="#ED1C24"/>
</svg>
