<svg width="52" height="52" viewBox="0 0 52 52" fill="none" xmlns="http://www.w3.org/2000/svg">
<path d="M42.5 25.925V29.5376C42.5 36.2313 38.675 39.1001 32.9375 39.1001H13.8125C8.075 39.1001 4.25 36.2313 4.25 29.5376V18.0625C4.25 11.3687 8.075 8.5 13.8125 8.5H19.55C19.2737 9.3075 19.125 10.2 19.125 11.1562V19.4438C19.125 21.5051 19.805 23.2475 21.0163 24.4588C22.2275 25.67 23.97 26.3501 26.0312 26.3501V29.3037C26.0312 30.3875 27.2638 31.0463 28.1775 30.4513L34.3187 26.3501H39.8438C40.8 26.3501 41.6925 26.2013 42.5 25.925Z" fill="#0E3572"/>
<path d="M46.75 11.1562V19.4438C46.75 22.6101 45.135 24.99 42.5 25.925C41.6925 26.2013 40.8 26.3501 39.8438 26.3501H34.3187L28.1775 30.4513C27.2638 31.0463 26.0312 30.3875 26.0312 29.3037V26.3501C23.97 26.3501 22.2275 25.67 21.0163 24.4588C19.805 23.2475 19.125 21.5051 19.125 19.4438V11.1562C19.125 10.2 19.2737 9.3075 19.55 8.5C20.485 5.865 22.865 4.25 26.0312 4.25H39.8438C43.9875 4.25 46.75 7.0125 46.75 11.1562Z" fill="#3EAFD1"/>
<path d="M31.0246 45.1563H24.9684V39.1001C24.9684 38.2288 24.2459 37.5063 23.3746 37.5063C22.5034 37.5063 21.7809 38.2288 21.7809 39.1001V45.1563H15.7246C14.8534 45.1563 14.1309 45.8788 14.1309 46.75C14.1309 47.6213 14.8534 48.3438 15.7246 48.3438H31.0246C31.8959 48.3438 32.6184 47.6213 32.6184 46.75C32.6184 45.8788 31.8959 45.1563 31.0246 45.1563Z" fill="#3EAFD1"/>
<path d="M32.8096 17C31.9171 17 31.2158 16.2775 31.2158 15.4062C31.2158 14.535 31.9383 13.8125 32.8096 13.8125C33.6808 13.8125 34.4033 14.535 34.4033 15.4062C34.4033 16.2775 33.6808 17 32.8096 17Z" fill="#ED1C24"/>
<path d="M38.7812 17C37.8888 17 37.1875 16.2775 37.1875 15.4062C37.1875 14.535 37.91 13.8125 38.7812 13.8125C39.6525 13.8125 40.375 14.535 40.375 15.4062C40.375 16.2775 39.6525 17 38.7812 17Z" fill="#ED1C24"/>
<path d="M26.8174 17C25.9249 17 25.2236 16.2775 25.2236 15.4062C25.2236 14.535 25.9461 13.8125 26.8174 13.8125C27.6886 13.8125 28.4111 14.535 28.4111 15.4062C28.4111 16.2775 27.7099 17 26.8174 17Z" fill="#ED1C24"/>
</svg>
