<svg width="49" height="52" viewBox="0 0 49 52" fill="none" xmlns="http://www.w3.org/2000/svg">
<g clip-path="url(#clip0_959_261)">
<path d="M1.82064 52C0.868779 51.2032 0.413543 50.1548 0.786009 48.9387C1.3654 46.9677 1.94479 44.9129 3.02081 43.1097C5.33837 39.2935 8.69057 37.029 13.0774 36.2322C13.36 36.1651 13.6552 36.1764 13.9319 36.265C14.2087 36.3535 14.4568 36.5161 14.65 36.7355C16.5124 38.4968 18.7058 39.5032 21.313 39.3355C23.4806 39.1609 25.511 38.1918 27.0242 36.6097C27.1685 36.4368 27.3561 36.3066 27.5674 36.2328C27.7786 36.159 28.0056 36.1443 28.2244 36.1903C33.8941 37.1968 37.7429 40.3838 39.7294 45.8355C40.0605 46.758 40.3502 47.7226 40.6813 48.6871C40.8889 49.2327 40.9207 49.8309 40.7719 50.396C40.6232 50.961 40.3018 51.4638 39.8536 51.8322L39.7294 52H1.82064Z" fill="#0E3572"/>
<path d="M15.8502 0C16.0041 0.16038 16.124 0.351056 16.2023 0.560235C16.2806 0.769415 16.3157 0.992648 16.3054 1.21613C16.264 1.71935 16.3054 2.26452 16.264 2.76774C16.2227 3.27097 16.3468 3.22903 16.6365 3.27097L17.1331 3.48065C18.1264 3.85806 18.1264 3.85806 18.9127 3.10323C19.1399 2.83108 19.3891 2.5786 19.6576 2.34839C19.7549 2.2429 19.872 2.15805 20.0019 2.09876C20.1319 2.03948 20.2721 2.00694 20.4146 2.00304C20.5571 1.99914 20.6989 2.02395 20.8318 2.07604C20.9647 2.12812 21.0861 2.20644 21.1889 2.30645C22.1407 3.22903 23.0926 4.15161 23.9617 5.11613C24.8308 6.08065 24.4169 6.20645 23.8789 6.79355C23.3409 7.38065 23.0512 7.63226 22.6374 8.05161C22.5466 8.21755 22.5172 8.41086 22.5546 8.59677C22.6787 9.01613 22.8857 9.39355 23.0926 9.89677L21.7683 9.77097C21.0653 9.72904 20.3606 9.72904 19.6576 9.77097C19.5202 9.8046 19.3755 9.78967 19.2476 9.72867C19.1197 9.66766 19.0161 9.56423 18.9541 9.43548C18.4114 8.58483 17.691 7.86527 16.8438 7.32764C15.9966 6.79001 15.0433 6.44741 14.0511 6.32404C13.0589 6.20067 12.0521 6.29953 11.1018 6.61366C10.1514 6.92778 9.28073 7.44949 8.55118 8.14196C7.82163 8.83442 7.25101 9.68075 6.87963 10.6212C6.50824 11.5616 6.34515 12.5732 6.40186 13.5844C6.45857 14.5957 6.73371 15.5821 7.20784 16.4738C7.68197 17.3655 8.34354 18.1409 9.14581 18.7452C9.27736 18.8238 9.37807 18.946 9.43086 19.0912C9.48366 19.2364 9.4853 19.3956 9.4355 19.5419C9.26996 20.5903 9.18719 21.6387 9.06304 22.729H8.98027C8.52503 22.4355 8.19395 22.6032 7.86287 23.0226C7.57731 23.3747 7.25851 23.6977 6.91101 23.9871C6.80939 24.121 6.67948 24.2302 6.53081 24.3066C6.38214 24.3831 6.21847 24.4248 6.05181 24.4288C5.88514 24.4329 5.7197 24.399 5.56761 24.3299C5.41552 24.2607 5.28063 24.1579 5.17283 24.029L2.60695 21.3871C2.02756 20.8 2.02756 20.2129 2.60695 19.5839C3.18635 18.9548 3.3105 18.829 3.72435 18.4516C3.78585 18.4141 3.8386 18.3635 3.87895 18.3034C3.91931 18.2432 3.94632 18.1749 3.95812 18.1032C3.96992 18.0314 3.96623 17.958 3.94731 17.8878C3.92839 17.8176 3.89468 17.7525 3.84851 17.6968C3.71791 17.4898 3.62016 17.2634 3.55881 17.0258C3.43466 16.3968 3.10358 16.229 2.4828 16.271C2.07135 16.3267 1.65544 16.3407 1.24125 16.3129C0.413543 16.2849 -0.000308565 15.8656 -0.000308565 15.0548V11.4065C-0.0201248 11.2309 -0.000570583 11.053 0.0568965 10.8862C0.114364 10.7193 0.208261 10.5677 0.331588 10.4428C0.454914 10.3178 0.604489 10.2226 0.76916 10.1644C0.933831 10.1062 1.10935 10.0864 1.28263 10.1065H2.97942C3.08307 10.119 3.18757 10.0914 3.272 10.0292C3.35642 9.967 3.41452 9.87476 3.43466 9.77097C3.61349 9.25635 3.82074 8.75233 4.05543 8.26129L2.64834 6.87742C2.02756 6.20645 1.98618 5.61935 2.64834 4.99032L5.13145 2.47419C5.75223 1.84516 6.33162 1.84516 6.95239 2.47419C7.35906 2.84435 7.74588 3.23631 8.11118 3.64839C8.27672 3.85806 8.44226 3.94194 8.69057 3.77419C8.87046 3.65154 9.06519 3.55288 9.26996 3.48065C10.1804 3.10323 10.1804 3.10323 10.1804 2.05484C10.1804 1.00645 10.0149 0.587097 10.5943 0H15.8502Z" fill="#3EAFD1"/>
<path d="M29.7977 23.2741C29.738 27.1504 28.381 30.8912 25.9489 33.8838C24.9142 35.1418 23.6727 36.1483 22.0587 36.5257C20.4446 36.9031 18.5409 36.4838 17.0097 35.3096C15.4784 34.1354 14.1127 32.0386 13.2436 29.9838C12.253 27.7712 11.7448 25.3682 11.7538 22.9386C11.7124 20.087 12.3745 17.4031 14.3196 15.1805C18.1271 10.8193 25.2867 11.5322 28.225 16.5644C29.3424 18.4934 29.7977 20.5902 29.7977 23.2741Z" fill="#0E3572"/>
<path d="M44.6134 27.3C44.9031 27.929 45.11 28.5161 45.3583 29.0613C45.4005 29.1354 45.4606 29.1974 45.533 29.2414C45.6055 29.2855 45.6878 29.31 45.7722 29.3129H47.6345C48.545 29.3129 49.0002 29.7742 49.0002 30.6548V34.5967C49.0002 35.4774 48.545 35.9387 47.6759 35.9806H45.8963C45.7485 35.9558 45.597 35.99 45.4735 36.076C45.35 36.1621 45.2642 36.2932 45.2342 36.4419C45.1367 36.8395 44.9834 37.2208 44.7789 37.5742C44.7107 37.6698 44.6812 37.7884 44.6966 37.9054C44.712 38.0224 44.7711 38.129 44.8617 38.2032L46.186 39.5032C46.3332 39.6251 46.4518 39.7787 46.5332 39.9527C46.6147 40.1268 46.6569 40.317 46.6569 40.5096C46.6569 40.7023 46.6147 40.8925 46.5332 41.0666C46.4518 41.2406 46.3332 41.3942 46.186 41.5161L43.4546 44.2419C43.2714 44.4147 43.0617 44.5564 42.8338 44.6613C42.3372 44.829 42.0889 44.7451 41.9233 44.2C41.1734 42.2891 40.0944 40.5284 38.7367 39C42.0061 36.2322 43.0821 32.9613 41.0543 28.9774C40.2479 27.4311 38.8842 26.2595 37.2468 25.7064C35.6356 25.0762 33.8505 25.0762 32.2392 25.7064C32.2806 24.9935 32.322 24.3645 32.3634 23.7774C32.4746 22.1578 32.3349 20.5306 31.9495 18.9548C31.8254 18.4516 31.9495 18.2419 32.4875 18.2419C33.9774 18.2 35.5086 18.2 36.9985 18.2419C37.6193 18.2419 37.9918 18.7871 37.9918 19.5C38.0331 20.1283 38.0331 20.7587 37.9918 21.3871C37.9918 21.7225 38.0745 21.8903 38.3642 21.9742L38.985 22.1838C39.9782 22.6032 39.9782 22.6032 40.7646 21.8484C41.0194 21.5482 41.2961 21.2679 41.5923 21.0096C42.1717 20.4645 42.7924 20.4225 43.3304 20.9677C43.8684 21.5129 45.3583 22.9387 46.3102 23.9871C46.4276 24.0993 46.5197 24.236 46.5801 24.3877C46.6404 24.5395 46.6676 24.7027 46.6597 24.8661C46.6518 25.0295 46.6091 25.1892 46.5345 25.3343C46.4599 25.4793 46.3551 25.6063 46.2274 25.7064C45.9864 25.9926 45.7235 26.259 45.4411 26.5032C45.1857 26.7898 44.909 27.0562 44.6134 27.3Z" fill="#3EAFD1"/>
<path d="M29.4658 33.6741C30.0452 32.3741 30.6246 31.116 31.1626 29.816C31.3383 29.3672 31.4767 28.9043 31.5765 28.4321C31.6107 28.2309 31.6981 28.0428 31.8292 27.8878C31.9603 27.7328 32.1304 27.6166 32.3214 27.5515C33.6027 26.9319 35.0687 26.8298 36.4216 27.266C37.7745 27.7022 38.9128 28.6439 39.6052 29.8999C40.31 31.1571 40.5054 32.6425 40.1502 34.0429C39.7951 35.4433 38.9171 36.6492 37.7015 37.4063C37.5773 37.4902 37.2876 37.5321 37.2048 37.4483C35.0025 35.5726 32.3694 34.289 29.5486 33.716L29.4658 33.6741Z" fill="#ED1C24"/>
<path d="M17.4233 10.1905C13.7814 11.3227 11.4225 13.755 10.0568 17.2776C8.48413 15.8937 7.82197 14.2163 8.23582 12.2453C8.64967 10.2743 10.0154 8.59692 12.2088 8.13563C14.4022 7.67434 16.0162 8.42917 17.4233 10.1905Z" fill="#ED1C24"/>
</g>
<defs>
<clipPath id="clip0_959_261">
<rect width="49" height="52" fill="white"/>
</clipPath>
</defs>
</svg>
