<svg width="51" height="51" viewBox="0 0 51 51" fill="none" xmlns="http://www.w3.org/2000/svg">
<g clip-path="url(#clip0_655_484)">
<path d="M50.9851 0H0.0149414C0.0066895 0 0 0.0066895 0 0.0149414V50.9851C0 50.9933 0.0066895 51 0.0149414 51H50.9851C50.9933 51 51 50.9933 51 50.9851V0.0149414C51 0.0066895 50.9933 0 50.9851 0Z" fill="#F7DF1E"/>
<path d="M32.2734 36.8555C33.2695 38.5488 34.6641 39.7441 36.9551 39.7441C38.9473 39.7441 40.2422 38.748 40.2422 37.3535C40.2422 35.7598 38.9473 35.1621 36.7559 34.166L35.5605 33.668C32.0742 32.1738 29.7832 30.3809 29.7832 26.4961C29.7832 22.9102 32.4727 20.1211 36.7559 20.1211C39.8438 20.1211 42.0352 21.2168 43.5293 24.0059L39.8438 26.3965C39.0469 24.9023 38.1504 24.3047 36.7559 24.3047C35.3613 24.3047 34.4648 25.2012 34.4648 26.3965C34.4648 27.791 35.3613 28.3887 37.4531 29.2852L38.6484 29.7832C42.7324 31.5762 45.0234 33.2695 45.0234 37.3535C45.0234 41.6367 41.6367 44.0273 37.0547 44.0273C32.5723 44.0273 29.6836 41.9355 28.2891 39.1465L32.2734 36.8555ZM15.3398 37.2539C16.1367 38.5488 16.7344 39.7441 18.4277 39.7441C20.0215 39.7441 21.0176 39.1465 21.0176 36.7559V20.2207H25.7988V36.5566C25.7988 41.5371 22.9102 43.7285 18.627 43.7285C14.7422 43.7285 12.5508 41.7363 11.4551 39.3457L15.3398 37.2539Z" fill="black"/>
</g>
<defs>
<clipPath id="clip0_655_484">
<rect width="51" height="51" fill="white"/>
</clipPath>
</defs>
</svg>
