<svg width="51" height="51" viewBox="0 0 51 51" fill="none" xmlns="http://www.w3.org/2000/svg">
<path d="M25.5002 30.0421C28.0088 30.0421 30.0424 28.0085 30.0424 25.5C30.0424 22.9914 28.0088 20.9578 25.5002 20.9578C22.9916 20.9578 20.958 22.9914 20.958 25.5C20.958 28.0085 22.9916 30.0421 25.5002 30.0421Z" fill="#61DAFB"/>
<path d="M42.7521 18.0093C41.8756 17.6906 40.9592 17.3718 40.0029 17.0929C40.242 16.1367 40.4412 15.1804 40.6006 14.264C41.4373 9.00464 40.5209 5.29917 37.9709 3.86479C37.2139 3.42651 36.3771 3.22729 35.4209 3.22729C32.6318 3.22729 29.0857 5.29917 25.4998 8.76558C21.9139 5.29917 18.3678 3.22729 15.5787 3.22729C14.6225 3.22729 13.7857 3.42651 13.0287 3.86479C10.4787 5.33901 9.56231 9.04448 10.399 14.264C10.5584 15.1804 10.7576 16.1367 10.9967 17.0929C10.0404 17.3718 9.12402 17.6507 8.24746 18.0093C3.26699 19.9218 0.557617 22.5515 0.557617 25.5C0.557617 28.4484 3.30684 31.0781 8.24746 32.9906C9.12402 33.3093 10.0404 33.6281 10.9967 33.907C10.7576 34.8632 10.5584 35.8195 10.399 36.7359C9.56231 41.9953 10.4787 45.7007 13.0287 47.1351C13.7857 47.5734 14.6225 47.7726 15.5787 47.7726C18.4076 47.7726 21.9537 45.7007 25.4998 42.2343C29.0857 45.7007 32.6318 47.7726 35.4209 47.7726C36.3771 47.7726 37.2139 47.5734 37.9709 47.1351C40.5209 45.6609 41.4373 41.9554 40.6006 36.7359C40.4412 35.8195 40.242 34.8632 40.0029 33.907C40.9592 33.6281 41.8756 33.3492 42.7521 32.9906C47.7326 31.0781 50.442 28.4484 50.442 25.5C50.442 22.5515 47.7326 19.9218 42.7521 18.0093ZM36.8553 5.85698C38.4889 6.81323 39.0467 9.76167 38.3693 13.9453C38.2498 14.782 38.0506 15.6585 37.8115 16.575C35.7396 16.0968 33.5482 15.7781 31.2373 15.5789C29.8826 13.6664 28.4881 11.9531 27.0936 10.3992C30.042 7.49058 33.0303 5.49839 35.4607 5.49839C35.9787 5.49839 36.4568 5.61792 36.8553 5.85698ZM32.3928 29.4843C31.6756 30.7593 30.8389 32.0343 29.9623 33.3093C28.4881 33.4289 27.0139 33.4687 25.4998 33.4687C23.9459 33.4687 22.4717 33.4289 21.0373 33.3093C20.1607 32.0343 19.3639 30.7593 18.6467 29.4843C17.8896 28.1695 17.1725 26.8148 16.535 25.5C17.1725 24.1851 17.8896 22.8304 18.6467 21.5156C19.3639 20.2406 20.2006 18.9656 21.0771 17.6906C22.5514 17.571 24.0256 17.5312 25.5396 17.5312C27.0936 17.5312 28.5678 17.571 30.0021 17.6906C30.8787 18.9656 31.6756 20.2406 32.3928 21.5156C33.1498 22.8304 33.867 24.1851 34.5045 25.5C33.8271 26.8148 33.1498 28.1296 32.3928 29.4843ZM35.6998 28.1695C36.2975 29.564 36.7756 30.9187 37.2139 32.2734C35.8592 32.5921 34.4248 32.8312 32.9107 33.0304C33.3889 32.2734 33.9068 31.4765 34.3451 30.6398C34.8232 29.8031 35.2615 28.9664 35.6998 28.1695ZM25.4998 38.9671C24.5436 37.9312 23.6271 36.8156 22.7506 35.6601C23.667 35.7 24.5834 35.7398 25.4998 35.7398C26.4162 35.7398 27.3326 35.7 28.249 35.6601C27.3725 36.8156 26.4561 37.9312 25.4998 38.9671ZM18.0889 32.9906C16.5748 32.7914 15.1404 32.5523 13.7857 32.2335C14.224 30.9187 14.7021 29.5242 15.2998 28.1296C15.7381 28.9265 16.1764 29.7632 16.6545 30.5601C17.1326 31.4367 17.6107 32.1937 18.0889 32.9906ZM15.2998 22.8304C14.7021 21.4359 14.224 20.0812 13.7857 18.7265C15.1404 18.4078 16.5748 18.1687 18.0889 17.9695C17.6107 18.7265 17.0928 19.5234 16.6545 20.3601C16.1764 21.1968 15.7381 22.0335 15.2998 22.8304ZM25.4998 12.0328C26.4561 13.0687 27.3725 14.1843 28.249 15.3398C27.3326 15.3 26.4162 15.2601 25.4998 15.2601C24.5834 15.2601 23.667 15.3 22.7506 15.3398C23.6271 14.1843 24.5436 13.0687 25.4998 12.0328ZM34.3451 20.4L32.9107 18.0093C34.4248 18.2085 35.8592 18.4476 37.2139 18.7664C36.7756 20.0812 36.2975 21.4757 35.6998 22.8703C35.2615 22.0335 34.8232 21.1968 34.3451 20.4ZM12.6303 13.9453C11.9529 9.76167 12.5107 6.81323 14.1443 5.85698C14.5428 5.61792 15.0209 5.49839 15.5389 5.49839C17.9295 5.49839 20.9178 7.45073 23.9061 10.3992C22.5115 11.9132 21.117 13.6664 19.7623 15.5789C17.4514 15.7781 15.26 16.1367 13.1881 16.575C12.949 15.6585 12.7896 14.782 12.6303 13.9453ZM2.78887 25.5C2.78887 23.6273 5.05996 21.6351 9.04434 20.1609C9.84121 19.8421 10.7178 19.5632 11.5943 19.3242C12.2318 21.3164 13.0287 23.4281 13.985 25.5398C13.0287 27.6515 12.192 29.7234 11.5943 31.7156C6.0959 30.1218 2.78887 27.7312 2.78887 25.5ZM14.1443 45.1429C12.5107 44.1867 11.9529 41.2382 12.6303 37.0546C12.7498 36.2179 12.949 35.3414 13.1881 34.425C15.26 34.9031 17.4514 35.2218 19.7623 35.421C21.117 37.3335 22.5115 39.0468 23.9061 40.6007C20.9576 43.5093 17.9693 45.5015 15.5389 45.5015C15.0209 45.5015 14.5428 45.382 14.1443 45.1429ZM38.3693 37.0546C39.0467 41.2382 38.4889 44.1867 36.8553 45.1429C36.4568 45.382 35.9787 45.5015 35.4607 45.5015C33.0701 45.5015 30.0818 43.5492 27.0936 40.6007C28.4881 39.0867 29.8826 37.3335 31.2373 35.421C33.5482 35.2218 35.7396 34.8632 37.8115 34.425C38.0506 35.3414 38.21 36.2179 38.3693 37.0546ZM41.9553 30.839C41.1584 31.1578 40.2818 31.4367 39.4053 31.6757C38.7678 29.6835 37.9709 27.5718 37.0146 25.4601C37.9709 23.3484 38.8076 21.2765 39.4053 19.2843C44.9037 20.8781 48.2107 23.2687 48.2107 25.5C48.2107 27.3726 45.8998 29.3648 41.9553 30.839Z" fill="#61DAFB"/>
</svg>
