<svg width="51" height="51" viewBox="0 0 51 51" fill="none" xmlns="http://www.w3.org/2000/svg">
<path d="M6.66745 15.3945C2.94861 20.6775 3.41144 27.5517 6.25267 33.1663L6.46056 33.5654L6.59359 33.8184L6.67655 33.9639L6.82476 34.2259C6.91277 34.3794 7.00331 34.532 7.09588 34.6855L7.25066 34.9375C7.35335 35.1005 7.45805 35.2625 7.56529 35.4241L7.69933 35.6286C7.84754 35.8471 7.99878 36.0646 8.15508 36.2791L8.16823 36.2956L8.24512 36.3982C8.38017 36.5822 8.51928 36.7642 8.6604 36.9447L8.8167 37.1412C8.94265 37.2977 9.07063 37.4528 9.20062 37.6083L9.34731 37.7813C9.52182 37.9843 9.70038 38.1873 9.88197 38.3854L9.89259 38.3964L9.91333 38.4189C10.0909 38.6104 10.2725 38.7979 10.4571 38.9854L10.6311 39.1589C10.7737 39.301 10.9189 39.4405 11.0651 39.5795L11.2426 39.7465C11.4384 39.9285 11.6357 40.1075 11.8375 40.2816L11.8466 40.2896L11.9503 40.3766C12.1278 40.5291 12.3084 40.6791 12.4905 40.8276L12.7141 41.0041C12.8628 41.1216 13.013 41.2382 13.1643 41.3522L13.4056 41.5327C13.5725 41.6542 13.7409 41.7737 13.9109 41.8912L14.0945 42.0202L14.1456 42.0562C14.3064 42.1662 14.4718 42.2718 14.6362 42.3773L14.8487 42.5173C15.1016 42.6748 15.358 42.8313 15.617 42.9823L15.8295 43.1008C16.0202 43.2094 16.2119 43.3164 16.4061 43.4204L16.7253 43.5834L17.1381 43.7954L17.2331 43.8409L17.4021 43.9214C17.6181 44.0234 17.8361 44.124 18.0561 44.221L18.1942 44.282C18.4461 44.391 18.7006 44.4955 18.957 44.596L19.1431 44.668C19.3804 44.759 19.6212 44.8475 19.8629 44.9315L19.9535 44.9625C20.2185 45.0546 20.4866 45.1391 20.7562 45.2226L20.95 45.2796C21.2241 45.3616 21.4957 45.4586 21.7785 45.5106C39.7621 48.7524 44.9858 34.8275 44.9858 34.8275C40.5983 40.4781 32.8111 41.9682 25.4326 40.3091C25.1529 40.2466 24.8818 40.16 24.6091 40.081L24.4037 40.019C24.1377 39.9385 23.8731 39.854 23.6106 39.764L23.5019 39.7255C23.2666 39.6435 23.0345 39.5575 22.8028 39.469L22.6065 39.393C22.3531 39.294 22.1007 39.1904 21.8518 39.0829L21.7011 39.0164C21.4871 38.9209 21.2752 38.8244 21.0643 38.7239L20.8802 38.6364C20.7148 38.5569 20.5514 38.4724 20.3875 38.3889L20.0592 38.2183C19.8594 38.1133 19.6636 38.0033 19.4689 37.8913L19.2696 37.7818C19.0101 37.6303 18.7542 37.4743 18.5007 37.3158L18.2934 37.1792C18.1097 37.0622 17.9266 36.9427 17.7466 36.8197L17.57 36.6972C17.396 36.5762 17.2235 36.4527 17.0531 36.3281L16.8239 36.1566C16.6671 36.0381 16.5113 35.9186 16.3576 35.7961L16.1497 35.6311C15.9534 35.4721 15.7597 35.311 15.5685 35.1465L15.5047 35.094C15.2979 34.9145 15.0945 34.73 14.8937 34.545L14.7217 34.3809C14.573 34.2414 14.4263 34.1004 14.2827 33.9554L14.1107 33.7854C13.9276 33.6004 13.748 33.4128 13.572 33.2223L13.5452 33.1938C13.359 32.9928 13.1769 32.7873 12.9989 32.5793L12.8557 32.4112C12.7227 32.2532 12.5912 32.0922 12.4627 31.9307L12.3185 31.7532C12.1632 31.5546 12.0125 31.3566 11.8643 31.1556C7.76813 25.6315 6.29617 18.0127 9.57038 11.7561L6.66745 15.3945ZM18.2104 10.943C15.5214 14.7684 15.6671 19.8904 17.7653 23.9359C18.1168 24.6139 18.5124 25.2725 18.9545 25.8986C19.3571 26.4701 19.8043 27.1492 20.3389 27.6077C20.5327 27.8188 20.7355 28.0248 20.9424 28.2268L21.1012 28.3823C21.302 28.5748 21.5064 28.7644 21.7173 28.9484L21.7426 28.9699L21.7487 28.9759C21.9824 29.1784 22.2236 29.3729 22.4685 29.5649L22.6318 29.691C22.8777 29.877 23.128 30.06 23.385 30.2345L23.4068 30.251L23.7507 30.4745L23.9136 30.581C24.0972 30.6976 24.2829 30.8106 24.472 30.9191L24.5509 30.9651C24.7138 31.0576 24.8787 31.1486 25.0441 31.2376L25.2196 31.3276L25.5646 31.5046L25.6167 31.5281C25.8539 31.6432 26.0927 31.7547 26.337 31.8597L26.4958 31.9247C26.6911 32.0062 26.8879 32.0862 27.0861 32.1612L27.3391 32.2532C27.5191 32.3192 27.6992 32.3797 27.8813 32.4397L28.1261 32.5173C28.3846 32.5963 28.6405 32.6968 28.9096 32.7413C42.7946 35.015 46 24.4464 46 24.4464C43.1107 28.5608 37.5148 30.5235 31.5435 28.9914C31.2784 28.9224 31.0164 28.8474 30.7569 28.7669L30.5207 28.6914C30.3361 28.6328 30.1525 28.5698 29.9709 28.5043L29.7225 28.4128C29.5232 28.3368 29.3259 28.2583 29.1302 28.1763L28.9708 28.1098C28.7255 28.0043 28.4842 27.8928 28.2465 27.7768L27.8833 27.5942L27.6739 27.4877C27.5191 27.4047 27.3654 27.3187 27.2141 27.2307L27.1044 27.1692C26.9162 27.0607 26.731 26.9492 26.5479 26.8332L26.38 26.7227L26.0199 26.4866C25.7639 26.3121 25.5145 26.1296 25.2692 25.9441L25.1003 25.8121C22.4867 23.7723 20.4148 20.9841 19.43 17.8227C18.3976 14.5439 18.6201 10.8635 20.4087 7.87619L18.2104 10.943ZM27.9187 7.61717C26.3335 9.92341 26.1777 12.7882 27.2778 15.3355C28.4377 18.0392 30.8146 20.16 33.589 21.1661L33.934 21.2836L34.0858 21.3316C34.2491 21.3826 34.4115 21.4416 34.5805 21.4726C42.2473 22.9373 44.3267 17.5837 44.8801 16.7951C43.0586 19.3879 39.9974 20.0105 36.2411 19.1089C35.9447 19.0379 35.6184 18.9318 35.3326 18.8313C34.9659 18.7018 34.6047 18.5548 34.2532 18.3883C33.5865 18.0713 32.9507 17.6872 32.3609 17.2472C28.9997 14.7259 26.9121 9.91691 29.1054 6" fill="#0868AC"/>
</svg>
