<svg width="37" height="51" viewBox="0 0 37 51" fill="none" xmlns="http://www.w3.org/2000/svg">
<g clip-path="url(#clip0_654_387)">
<path d="M36.103 9.99731L32.8196 46.7795L18.0607 50.8711L3.34246 46.7851L0.0625 9.99731H36.103Z" fill="#E44D26"/>
<path d="M18.083 47.7437L30.009 44.4375L32.8147 13.0054H18.083V47.7437Z" fill="#F16529"/>
<path d="M11.7004 22.0292H18.0832V17.5173H6.76953L6.87746 18.7278L7.98647 31.1613H18.0832V26.6494H12.1128L11.7004 22.0292ZM12.7173 33.4173H8.18807L8.82013 40.5017L18.0624 43.0672L18.0832 43.0616V38.3673L18.0634 38.3725L13.0386 37.0157L12.7173 33.4173Z" fill="#EBEBEB"/>
<path d="M3.41602 0H5.7089V2.26533H7.8064V0H10.0994V6.85999H7.80654V4.56288H5.70904V6.85999H3.41616V0H3.41602ZM13.1145 2.27494H11.0962V0H17.4273V2.27494H15.4078V6.85999H13.1149V2.27494H13.1148H13.1145ZM18.4321 0H20.8228L22.2935 2.41042L23.7628 0H26.1545V6.85999H23.871V3.45981L22.2935 5.89891H22.2539L20.6755 3.45981V6.85999H18.4321V0ZM27.2956 0H29.5892V4.59254H32.8136V6.85999H27.2955V0H27.2956Z" fill="black"/>
<path d="M18.0675 31.1613H23.6234L23.0996 37.0129L18.0674 38.3711V43.0651L27.317 40.5017L27.3848 39.7393L28.4452 27.861L28.5553 26.6494H18.0675V31.1613ZM18.0675 22.0182V22.0292H28.9658L29.0563 21.0151L29.262 18.7278L29.3697 17.5173H18.0675V22.0183V22.0182Z" fill="white"/>
</g>
<defs>
<clipPath id="clip0_654_387">
<rect width="36.1692" height="51" fill="white"/>
</clipPath>
</defs>
</svg>
